<svg id="Layer_1" data-name="Layer 1" xmlns="http://www.w3.org/2000/svg" xmlns:xlink="http://www.w3.org/1999/xlink" viewBox="0 0 113.03 71.33"><defs><style>.cls-1{fill:url(#GradientFill_1);}.cls-2,.cls-3{fill:#fff;}.cls-2{fill-rule:evenodd;}.cls-4{fill:url(#GradientFill_1-2);}</style><linearGradient id="GradientFill_1" y1="43.85" x2="113.03" y2="43.85" gradientUnits="userSpaceOnUse"><stop offset="0" stop-color="#1a0100"/><stop offset="0.06" stop-color="#8b5605"/><stop offset="0.24" stop-color="#8b5605"/><stop offset="0.28" stop-color="#8b5605"/><stop offset="0.51" stop-color="#f2d7a2"/><stop offset="0.61" stop-color="#e8b860"/><stop offset="0.75" stop-color="#875832"/><stop offset="0.91" stop-color="#e7b85f"/><stop offset="1" stop-color="#5b3300"/></linearGradient><linearGradient id="GradientFill_1-2" y1="71.09" x2="113.03" y2="71.09" xlink:href="#GradientFill_1"/></defs><title>logo-small-white-new</title><rect class="cls-1" y="43.62" width="113.03" height="0.47"/><path class="cls-2" d="M68.29,13l.06,0a.29.29,0,0,0,.35,0c.08,0,.18,0,.22,0,.34.27.8.41,1.08.76s.64.38,1,.58.66.25.94.46c.1.07.23,0,.34,0s.29,0,.44,0a2.59,2.59,0,0,0,2-.84c.42-.37.35-.83.45-1.25A1.54,1.54,0,0,0,75,11.65a2.18,2.18,0,0,0-.43-.52.31.31,0,0,0-.53.14.72.72,0,0,1-.59.61,1.32,1.32,0,0,1-1-.21A.78.78,0,0,1,72,10.9a1.48,1.48,0,0,1,.73-1.33,1.56,1.56,0,0,1,1.21,0,3.06,3.06,0,0,1,1.25.58,2.74,2.74,0,0,1,.93,1.29,2.25,2.25,0,0,1,.11.87c0,.3.14.59,0,.9a3.41,3.41,0,0,1-.82,1.38c-.16.14-.24.32-.39.45a2.54,2.54,0,0,1-1.2.64c-.33.06-.64.21-1,.26-.55.07-1.08-.05-1.64,0a.58.58,0,0,0,.22.38,7.09,7.09,0,0,1,1.47,1.64A6.79,6.79,0,0,1,74,20.42a10.48,10.48,0,0,1,.28,1.94,10.25,10.25,0,0,1-.12,1.82c0,.24-.19.47-.24.71a4.62,4.62,0,0,1-.79,1.58A4.75,4.75,0,0,1,71.64,28a6.63,6.63,0,0,1-2.16.84c-.39.07-.76.2-1.16.24a5.23,5.23,0,0,1-1.74,0,3.29,3.29,0,0,1-1.5-.51c-.27-.23-.7-.32-1-.54-.16-.12-.3-.25-.45-.37a7.17,7.17,0,0,1-1.63-2c0-.08-.09-.17,0-.24a1.75,1.75,0,0,1,.82-.52.3.3,0,0,1,.37.14c.15.3.37.57.51.86a4.27,4.27,0,0,0,.79,1,1.35,1.35,0,0,0,.51.33,5.5,5.5,0,0,1,.68.34,1.57,1.57,0,0,0,1,.28c.53,0,1.07,0,1.6,0a4.77,4.77,0,0,0,2.39-.7,5,5,0,0,0,1.5-1.26,3.09,3.09,0,0,0,.74-1.8.76.76,0,0,1,.13-.33c.16-.31.05-.63.09-.94A12.37,12.37,0,0,0,73.16,21a2.4,2.4,0,0,0-.44-1.1c-.12-.21-.22-.42-.35-.62a17.26,17.26,0,0,0-1.09-1.42,19.28,19.28,0,0,0-1.73-1.75,29,29,0,0,0-2.79-2.27c-.69-.5-1.37-1-2.05-1.52a29.61,29.61,0,0,1-2.32-2c-.34-.31-.68-.63-1-1a6.25,6.25,0,0,1-1.5-2.15,13,13,0,0,1-.61-2.36,4.18,4.18,0,0,0-.17-.44.28.28,0,0,1,.11-.33c.11-.1.21,0,.32,0s.46.26.73.32.2.21.2.32a1.89,1.89,0,0,1,0,.45,2.12,2.12,0,0,0,.46,1.74,7.82,7.82,0,0,0,.64,1,10.85,10.85,0,0,0,1.23,1.23,5.23,5.23,0,0,0,1.09.66,6.64,6.64,0,0,0,1,.21,9.82,9.82,0,0,0,1.32.15A1.34,1.34,0,0,0,67,9.51a1.38,1.38,0,0,0,.13-.68c0-.09,0-.2.1-.25a.34.34,0,0,1,.3.07,3.69,3.69,0,0,1,.77.63.58.58,0,0,1,.18.4c0,.2-.05.41.19.56.08,0,.06.17,0,.25a1.63,1.63,0,0,1-1.06,1,1.83,1.83,0,0,0-.76.37.43.43,0,0,0-.08.61c.16.22.3.48.68.46.06,0,.12.06.17.09a.48.48,0,0,0,.59,0Zm-3.43-.85h0a3.68,3.68,0,0,0,.7.61c.61.49,1.3.88,1.89,1.39.07.06.14.15.24.06a.16.16,0,0,0,0-.27c-.16-.12-.33-.24-.48-.38a10.83,10.83,0,0,0-1.09-.68c-.18-.13-.44-.21-.54-.45s-.33-.34-.69-.28Zm8.21,2.93h0a4.24,4.24,0,0,0,.49,0c.07,0,.23,0,.21-.12s-.15-.09-.23-.07a7.21,7.21,0,0,1-1.31,0c-.25,0-.53.06-.69-.21,0-.07-.15-.07-.24,0s-.08.1,0,.13a4.18,4.18,0,0,0,.7.46.2.2,0,0,0,.17,0c.23-.26.55-.17.94-.19Zm-.87.48h-.61c-.06,0-.16,0-.15.07s.07.07.13.08a5.7,5.7,0,0,0,1.59,0c.32,0,.55-.34.91-.25a.06.06,0,0,0,.07-.07c0-.07-.07-.09-.13-.08-.33.07-.7-.06-1,.2a.36.36,0,0,1-.25.06Zm-9-4.94h0c0-.06,0-.1-.05-.1-.2,0-.19-.15-.26-.26a3.45,3.45,0,0,0-.75-.75.18.18,0,0,0-.24,0c-.08.08,0,.16.05.23l.47.42.56.52s.07.1.14,0a.61.61,0,0,0,.07-.09Zm5.1-1.12h0s0,0,0-.05a1.9,1.9,0,0,0-.81-.67c-.07,0-.15-.06-.2,0s0,.13.08.19c.19.23.58.25.71.54a.12.12,0,0,0,.15.06.11.11,0,0,0,.08-.1Zm.12,1.17h0s0-.11,0-.14-.1,0-.14.06a5.51,5.51,0,0,1-.61.46c-.07,0-.22.07-.17.17s.16,0,.25,0l.14,0c.27-.07.58-.37.58-.55ZM59.67,5.17h0c0-.14.06-.3-.09-.42a.08.08,0,0,0-.07,0,.46.46,0,0,0-.06.45c.06.12,0,.37.11.35s0-.26.1-.39ZM59.2,4.3h0c0,.2.17.21.31.24s.15,0,.13-.1a.37.37,0,0,0-.3-.28C59.25,4.13,59.21,4.21,59.2,4.3Z" transform="translate(0.33 -1.01)"/><path class="cls-2" d="M67,38.87h-.05c-.18,0-.27,0-.24.21h0a.12.12,0,0,0-.12.05h0a.32.32,0,0,0-.28.11,4,4,0,0,0-.51.71c0,.07,0,.2-.15.2s-.19-.11-.23-.21c-.22-.5-.27-1-.53-1.54.15,0,.17-.07.17-.18s-.1-.5.24-.65c.07,0,0-.13.05-.19,0-.33.37-.55.39-.88,0,0,0,0,.07,0a.63.63,0,0,0,.22-.27c.12-.24.11-.26-.2-.28a.43.43,0,0,1,.24-.26c0,.14,0,.28.2.1a.21.21,0,0,1,.1,0c.11,0,.22,0,.22-.16s0-.27-.17-.31c.24-.09.2-.36.38-.49a2.28,2.28,0,0,0,.7-.94A7.13,7.13,0,0,0,68,32.38a3.83,3.83,0,0,0-.09-1.5.49.49,0,0,0-.28-.35,1.17,1.17,0,0,1-.24-.19s-.1-.08-.06-.13a.16.16,0,0,1,.13,0,14,14,0,0,1,1.56.48,2.25,2.25,0,0,1,.76.44,4.72,4.72,0,0,1,.74.78,3.09,3.09,0,0,1,.27,1.93,2.56,2.56,0,0,1-.22,1.06c-.15-.14,0-.35-.13-.51-.17.24-.09.49-.1.73a.72.72,0,0,1-.07.38c-.15.23-.08.33.24.39,0,.14-.35.11-.29.32-.15-.1-.27,0-.4.05s-.13-.15-.19-.23a.78.78,0,0,0-.95-.35c-.34.1-.77.6-.67.86a1.18,1.18,0,0,0,.63.76,1.47,1.47,0,0,0,.12.73c-.1,0-.12.07-.12.15a.14.14,0,0,1-.14.14c-.28,0-.52.19-.78.23A1.19,1.19,0,0,0,67,38.87Z" transform="translate(0.33 -1.01)"/><path class="cls-2" d="M36.8,10.18a2.7,2.7,0,0,1,.73-.51,5.41,5.41,0,0,1,1.15-.35.49.49,0,0,1,.42.06c.19.12.41.21.59.32a1.11,1.11,0,0,1,.44.76c0,.2,0,.41,0,.62s-.17.39-.36.5c-.36.22-.69.52-1.21.4a1,1,0,0,1-.73-.61c0-.11,0-.26-.2-.28a.38.38,0,0,0-.38.21,3,3,0,0,0-.45,1.24,2.6,2.6,0,0,0,.54,1.61,1.51,1.51,0,0,0,1.12.61,4.22,4.22,0,0,0,1.53,0A3.85,3.85,0,0,0,41.55,14a9.88,9.88,0,0,1,1.3-1,1.56,1.56,0,0,1,1.05-.09A1,1,0,0,0,45,12.64c.3-.37.17-.74-.29-.92s-.65-.24-1-.39a.7.7,0,0,1-.42-.61q0-.36,0-.73A1.61,1.61,0,0,1,44,8.82a3.86,3.86,0,0,1,.38-.23.45.45,0,0,1,.47,0c.16.08.11.21.08.35-.12.52.4,1,1,1,.35,0,.71,0,1.07,0a2.39,2.39,0,0,0,1.16-.29,6.06,6.06,0,0,0,1-.43,4.66,4.66,0,0,0,.55-.49,5.58,5.58,0,0,0,.8-.95,4.57,4.57,0,0,0,.89-2,2.64,2.64,0,0,0,.06-.81.52.52,0,0,1,.24-.53,3.25,3.25,0,0,1,.84-.41c.27-.1.49.06.42.32-.14.54-.16,1.1-.3,1.65a11.93,11.93,0,0,1-.48,1.48,4,4,0,0,1-.72,1.08,23.9,23.9,0,0,1-1.74,1.88c-.42.39-.87.76-1.31,1.14-1.09.94-2.25,1.81-3.44,2.66A22.21,22.21,0,0,0,42.56,16c-.42.4-.85.79-1.25,1.2a9.8,9.8,0,0,0-1.81,2.33,4.15,4.15,0,0,0-.62,2,8.44,8.44,0,0,0,.23,2c.07.25,0,.53.15.76,0,0,.06.09.12.09h0A3,3,0,0,0,40,26.06a5.49,5.49,0,0,0,1.68,1.17c.19.12.4.22.6.33a1.51,1.51,0,0,0,.83.22,9.8,9.8,0,0,1,1,.1,6.65,6.65,0,0,0,1.92-.31,3.83,3.83,0,0,0,2.22-1.73,4,4,0,0,0,.45-.78c.11-.26.36-.32.65-.19a1.84,1.84,0,0,1,.56.45.3.3,0,0,1,0,.41,8.83,8.83,0,0,1-1.37,1.72,11.82,11.82,0,0,1-1,.7A16.42,16.42,0,0,1,46,29a1.16,1.16,0,0,1-.5.12A11.13,11.13,0,0,1,42.81,29a5,5,0,0,1-1.18-.27,6.14,6.14,0,0,1-1.49-.86,5.79,5.79,0,0,1-.94-.77A9.22,9.22,0,0,1,38,25a7.53,7.53,0,0,1-.47-3.11,6.91,6.91,0,0,1,.38-1.77,11.62,11.62,0,0,1,1.19-2.36.86.86,0,0,1,.17-.21,4.33,4.33,0,0,0,.8-.85c.14-.21.4-.3.57-.48s.19-.16.15-.27-.2-.06-.31-.06a.63.63,0,0,0-.28.05.53.53,0,0,1-.47,0,.24.24,0,0,0-.17,0,1.18,1.18,0,0,1-1.1-.12c-.31-.14-.67-.19-1-.36a.56.56,0,0,1-.12-.06,6.66,6.66,0,0,1-1.23-1.29,2.9,2.9,0,0,1-.49-1.87,3.68,3.68,0,0,1,1-2.06s.07,0,.11,0c0,.15-.06.24-.17.34a1.66,1.66,0,0,0-.51.88c0,.27-.15.53-.22.79a.48.48,0,0,0,0,.15,3.94,3.94,0,0,0,.36,1.57,1.51,1.51,0,0,0,.19.29,3.29,3.29,0,0,0,.78.73c.14.09.12.28.28.35l1.3.53c.31.12.62-.07.92,0a1.9,1.9,0,0,0,1-.12.29.29,0,0,1,.36.07c.09.12,0,.21-.05.33-.27.33-.65.57-.94.88a5.84,5.84,0,0,0-1.32,1.74c-.14.35-.37.66-.49,1a4.75,4.75,0,0,0-.43,1.49.2.2,0,0,1,0,.1,2.42,2.42,0,0,0-.12,1.27c0,.41.23.77.2,1.17a3.89,3.89,0,0,0,.51,1.71,5.34,5.34,0,0,0,.49.9c.2.31.31.69.68.87a1.86,1.86,0,0,1,.61.47,1.42,1.42,0,0,0,.71.38c0,.24.32.19.47.3a1.6,1.6,0,0,0,.88.28c0,.07,0,.1.13.09h.17c0,.07.11.06.18,0H43a4.61,4.61,0,0,0,2.29.17,3.76,3.76,0,0,0,1.26-.41,11.34,11.34,0,0,0,2-1.1c.17-.13.5-.31.17-.59,0,0,0-.08,0-.11s.13,0,.17,0,.26.19.28,0,.17-.3.28-.43.32-.31.28-.55c0-.07.06-.09.13-.12a.23.23,0,0,0,.07-.41l-.25-.18c-.39-.33-.5-.31-.74.12a1.76,1.76,0,0,0-.09.19,2.86,2.86,0,0,1-.56.83,9.28,9.28,0,0,1-1,.92,12.62,12.62,0,0,1-1.46.71.17.17,0,0,1-.09,0,3.87,3.87,0,0,0-1,.09,1.56,1.56,0,0,1-.55,0,7.82,7.82,0,0,0-1-.09,1.6,1.6,0,0,1-.63-.08A15.67,15.67,0,0,1,41,27a3.39,3.39,0,0,1-1-.83,5.63,5.63,0,0,1-.62-1.07A2.34,2.34,0,0,1,39,23.93a.86.86,0,0,0,0-.15,7.61,7.61,0,0,0-.2-1A9.7,9.7,0,0,1,38.68,21c0-.07,0-.15,0-.2.34-.27.28-.69.5-1a5.31,5.31,0,0,0,.51-.92,5.79,5.79,0,0,1,1.14-1.35c.07-.06.15-.11.15-.21.6-.55,1.15-1.15,1.78-1.68s1.05-.88,1.61-1.28c.19-.14.34-.37.52-.44a4,4,0,0,0,1.47-1.11,5.1,5.1,0,0,1,.63-.45,9.09,9.09,0,0,0,.93-.66c.47-.48,1-.89,1.49-1.34s1-1,1.46-1.46c.25-.24.34-.6.62-.78s.37-.53.48-.77.2-.56.32-.84c.2-.48.14-1,.37-1.48a.14.14,0,0,0,0-.1.74.74,0,0,1,.08-.65c.09-.18,0-.29-.2-.22a5.42,5.42,0,0,0-.83.49.23.23,0,0,0-.1.24,2.59,2.59,0,0,1-.1,1.2A2.91,2.91,0,0,1,51,7.15a4.9,4.9,0,0,1-.29.55l-.59.67A4,4,0,0,1,48,9.82c-.16,0-.29.15-.46.15a14.84,14.84,0,0,1-1.82.06.82.82,0,0,1-.74-.59c0-.1,0-.21-.15-.23s-.21-.11,0-.2a.12.12,0,0,0,.06-.14c0-.14-.08-.27-.25-.17a1.68,1.68,0,0,0-.56.39,1,1,0,0,0-.48.73,4.51,4.51,0,0,0,0,.66.82.82,0,0,0,.49.77,6.91,6.91,0,0,1,1.34.57c.17.13.21.23.12.39a2.29,2.29,0,0,1-.4.57,1,1,0,0,1-.89.33,1.76,1.76,0,0,0-1.64.31c-.32.33-.74.55-1.08.86a3.49,3.49,0,0,1-1.38.64,9,9,0,0,1-1.8,0s-.07,0-.08,0c-.12-.24-.44-.23-.64-.41a2.17,2.17,0,0,1-.76-1.23,2.54,2.54,0,0,1,.38-2.09.76.76,0,0,1,.56-.28c.19,0,.25.2.26.35a.57.57,0,0,0,.25.38.67.67,0,0,0,1.07,0,.39.39,0,0,0,.35-.15.93.93,0,0,0,.17-1.18h-.05c0-.38-.34-.46-.65-.57,0-.13-.11-.16-.24-.15h-.06a.77.77,0,0,0-.59.15,1.13,1.13,0,0,0-.88.32A1.86,1.86,0,0,1,36.8,10.18Z" transform="translate(0.33 -1.01)"/><path class="cls-2" d="M78.55,20.75a.13.13,0,0,1,.12,0,.32.32,0,0,0,.32,0,1.61,1.61,0,0,1,.91,0c0,.16.22.17.24.31-.25.05-.32.17-.17.33a.41.41,0,0,1,.11.33c0,.06,0,.13-.1.14s-.07-.07-.08-.11,0-.16-.13-.14-.09.1-.1.17a.35.35,0,0,0,0,.17.5.5,0,0,1-.08.67.26.26,0,0,0-.08.24.36.36,0,0,1-.08.3,1.19,1.19,0,0,0-.27.72c0,.09,0,.23,0,.27-.33.24-.29.67-.59.92a.47.47,0,0,0-.2.31h0l-.06.05h0a1.09,1.09,0,0,0-.62.58,5.81,5.81,0,0,0-.32.54c0,.12-.17.1-.26,0-.3-.29-.58-.59-.89-.88a2.36,2.36,0,0,1-.61-1.06,5.67,5.67,0,0,1-.13-.95,1.63,1.63,0,0,1,.83-1.74c.38-.24.78-.45,1.15-.71a.55.55,0,0,1,.29-.11A1.4,1.4,0,0,0,78.55,20.75Z" transform="translate(0.33 -1.01)"/><path class="cls-2" d="M67.34,41l-.05,0c0-.17-.06-.26-.23-.34-.5-.25-.5-.25-.42-.7h0l.06-.05h0a.35.35,0,0,0,.3-.11,1.48,1.48,0,0,1,1.06-.47,4.2,4.2,0,0,1,1.05.23c.36.08.45.42.79.47,0,.24.27.29.41.45a1.65,1.65,0,0,1,.48.86,14.66,14.66,0,0,1,0,1.59c0,.16-.12.2-.26.12a2.23,2.23,0,0,0-.76-.23s-.09,0-.1,0c-.11-.35-.56-.23-.78-.48s-.51-.21-.43-.57c-.12.11-.22.19-.37.16h0a.1.1,0,0,0-.06-.11h0a.31.31,0,0,0-.24-.26h0l-.06-.05h0l-.06-.05h0c0-.07,0-.11-.12-.11h0a.1.1,0,0,0-.06-.11h0c0-.1-.06-.16-.18-.16Zm.71.31h0s-.05.17.07.18.17-.11.16-.21,0-.2-.13-.2S68.06,41.22,68,41.32Z" transform="translate(0.33 -1.01)"/><path class="cls-2" d="M49.35,32.93a.94.94,0,0,1,.67.53c.12.26.3.49.41.76a2,2,0,0,1,.15.79,5.44,5.44,0,0,0,0,1,.61.61,0,0,0,.54.51,4.74,4.74,0,0,0,2.14,0,1,1,0,0,0,.76-.61c.12-.36.27-.43.67-.33a2.65,2.65,0,0,0,.61.05c.29,0,.42.16.38.42-.08.53-.34,1-.4,1.56a5.81,5.81,0,0,1-.84,1.94,3.09,3.09,0,0,1-1.24,1.11,10.71,10.71,0,0,1-3.08,1.18,11.79,11.79,0,0,1-2.53.29A4.78,4.78,0,0,1,46.35,42a3.27,3.27,0,0,0-.62-.14,1.37,1.37,0,0,1-.61-.32.18.18,0,0,1,0-.27,3.63,3.63,0,0,1,.44-.45.21.21,0,0,1,.3.05,1.82,1.82,0,0,0,.78.44,2.33,2.33,0,0,0,.71,0c.43,0,.86,0,1.29,0,.13,0,.28,0,.33-.11a.32.32,0,0,0-.11-.38,1.91,1.91,0,0,1-.48-.63c-.24-.44,0-.76.24-1.1a.61.61,0,0,1,.12-.11c.35-.32.49-.29.68.14a1.23,1.23,0,0,0,1.19.73,3.6,3.6,0,0,0,1.51-.19,5.73,5.73,0,0,0,1.25-.73,3.34,3.34,0,0,0,1.05-1.43,1.92,1.92,0,0,1,.18-.3.34.34,0,0,0-.09-.43c-.12-.13-.25,0-.36,0a4.43,4.43,0,0,1-1.9.58A2.37,2.37,0,0,1,50.82,37a2.52,2.52,0,0,0-1.17-.42,3.09,3.09,0,0,1-1.92-.86,3,3,0,0,1-.9-2.17c0-.31,0-.62,0-.94,0-.48.3-.63.76-.39a3.49,3.49,0,0,0,.66.19,1.07,1.07,0,0,1,.57.3h0c-.13,0-.31.06-.39,0a.75.75,0,0,0-.67-.22.38.38,0,0,1-.26-.11c-.23-.17-.37-.14-.49.1s0,.45-.06.67c-.1.62.27,1.16.31,1.76a.15.15,0,0,0,.06.11c.28.12.23.42.49.6s.58.55,1,.61a.54.54,0,0,1,.24.09,1.18,1.18,0,0,0,.69.18,1.9,1.9,0,0,1,.54.08,6.12,6.12,0,0,1,1.09.52,1.88,1.88,0,0,0,1.58.09,4.49,4.49,0,0,0,1.32-.56.22.22,0,0,1,.37.08.92.92,0,0,1-.11,1,.27.27,0,0,0-.11.21.48.48,0,0,1-.23.4,1.63,1.63,0,0,0-.2.27,2,2,0,0,1-.68.65c-.23.1-.25.29,0,.42.06,0,.12.08.08.15s-.12.06-.18,0a1.45,1.45,0,0,1-.22-.12.34.34,0,0,0-.45,0,.62.62,0,0,1-.44.2.56.56,0,0,0-.32.12.59.59,0,0,1-.54.11,5.31,5.31,0,0,0-.76,0,1.13,1.13,0,0,1-.72-.28,1,1,0,0,0-.39-.24.61.61,0,0,0-.2-.5c-.06-.08-.15-.11-.22,0a1.42,1.42,0,0,0-.39.44,1.14,1.14,0,0,0,.16,1.13c0,.17.32.12.34.29a.57.57,0,0,0,.23.41.16.16,0,0,1,0,.23c-.06.08-.15,0-.24,0a3,3,0,0,0-1.07,0,.54.54,0,0,1-.23,0,2.55,2.55,0,0,0-1.15,0c-.11,0-.26,0-.27,0,0-.27-.38-.24-.52-.41s-.24-.15-.37,0a2.44,2.44,0,0,1-.21.19s-.09.09-.06.16.11.09.19.09.34-.08.29.18c0,0,.08.09.13.07.25-.09.45.06.66.12s.26.07.32-.1a.17.17,0,0,1,.21-.11c.13,0,.12.12.08.21s0,.14.11.14a14.4,14.4,0,0,0,1.7,0c.83-.1,1.59-.44,2.42-.57a.25.25,0,0,0,.13-.06c.22-.22.62-.16.81-.42,0,0,.11,0,.17,0,.22,0,.24-.08.17-.24a.47.47,0,0,1,.35-.63.16.16,0,0,1,.18,0c.06.07,0,.11-.05.15l-.27.24s-.12.08-.08.15a.16.16,0,0,0,.2.06.58.58,0,0,0,.26-.1c.26-.26.54-.51.83-.76a4.53,4.53,0,0,0,1-1.63,5.2,5.2,0,0,0,.27-1c.09-.36.19-.72.28-1.08s0-.26-.25-.27a1.32,1.32,0,0,1-.52,0c-.32-.13-.42-.1-.53.22a.67.67,0,0,1-.29.37,2.17,2.17,0,0,1-.92.36c-.23,0-.49,0-.69.17a.28.28,0,0,1-.33,0,.82.82,0,0,0-.51-.16c-.77-.07-1-.3-1.13-1-.06-.31,0-.6,0-.9a3,3,0,0,0-.68-1.54,4.63,4.63,0,0,0-.37-.36Z" transform="translate(0.33 -1.01)"/><path class="cls-2" d="M53.8,6c.06-.18.23-.29.36-.43a.38.38,0,0,0,.11-.33,5.28,5.28,0,0,1,0-1.81,3.27,3.27,0,0,1,.54-1.17A1.34,1.34,0,0,0,55,1.8,1.37,1.37,0,0,1,56.05,1a1,1,0,0,1,.62.3,1.26,1.26,0,0,1,.39.56A4.76,4.76,0,0,0,57.61,3a.81.81,0,0,1,.12.45c0,.47,0,.93,0,1.4s0,.69.31.92a5.32,5.32,0,0,1,.55.45,3,3,0,0,1,.63,1.13,2.61,2.61,0,0,0,.14.37,1.45,1.45,0,0,1,.17.65,8,8,0,0,0,.43,2.2,6.69,6.69,0,0,0,.47,1.08,3.78,3.78,0,0,0,1.71,1.56,1.11,1.11,0,0,1,.2.1.17.17,0,0,1,0,.19c0,.08-.09.08-.16.08a5.73,5.73,0,0,1-1.41-.15,3.77,3.77,0,0,1-1.45-.58,6.42,6.42,0,0,1-1.22-1.3,12.49,12.49,0,0,0-.81-1.17A1.41,1.41,0,0,1,57,9.83a12.59,12.59,0,0,0-.52-1.15,1.28,1.28,0,0,1-.14-.63.56.56,0,0,0-.07-.35.37.37,0,0,1,0-.38.34.34,0,0,0-.05-.45.47.47,0,0,0-.48-.11c-.2.06-.25.23-.29.39a.33.33,0,0,0,0,.18,2.21,2.21,0,0,1-.15,1.56,11.39,11.39,0,0,1-1.25,2.26A5.56,5.56,0,0,1,52.41,13a4,4,0,0,1-1.14.42,4.35,4.35,0,0,1-1.41.16c-.1,0-.23,0-.27-.09s.06-.21.19-.25A3.14,3.14,0,0,0,51,12.34a5.06,5.06,0,0,0,1-1.92,8.61,8.61,0,0,0,.24-1.59A4.21,4.21,0,0,1,53.65,6,.22.22,0,0,1,53.8,6a.36.36,0,0,1-.14.25,3.09,3.09,0,0,0-.61.77,4.8,4.8,0,0,0-.55,1.83,5.67,5.67,0,0,1-.45,2A1.23,1.23,0,0,0,52,11a5.29,5.29,0,0,1-.45.9,4.38,4.38,0,0,1-.9,1,1.22,1.22,0,0,1-.51.33c-.1,0-.23.06-.18.19s.18.05.28,0c.28,0,.51-.17.78-.18a3.18,3.18,0,0,0,1.7-.69,2.65,2.65,0,0,0,.86-.94c.18-.32.47-.58.63-.91a2.51,2.51,0,0,1,.34-.58,2.36,2.36,0,0,0,.54-1,1.8,1.8,0,0,1,.13-.3,1.73,1.73,0,0,0,.16-1.28,1,1,0,0,1,0-.69A.58.58,0,0,1,56,6.56c.43.16.61.32.51.61a3.63,3.63,0,0,0,0,1.13.38.38,0,0,0,.09.22,6.18,6.18,0,0,1,.41.86c.15.29.51.5.44.88,0,0,.05.07.09.1a.51.51,0,0,1,.15.22,6.77,6.77,0,0,0,.66,1,3.64,3.64,0,0,0,.66.75,3.16,3.16,0,0,0,1,.7,7.65,7.65,0,0,0,1.2.3,3.68,3.68,0,0,1,.65.11c.07,0,.21.05.25-.06s-.08-.13-.16-.16-.08,0-.11,0c-.2-.15-.51-.15-.65-.36a9.28,9.28,0,0,0-.59-.73,5.29,5.29,0,0,1-.93-1.91c-.14-.44-.14-.9-.25-1.35a5.46,5.46,0,0,0-.13-1c-.14-.31-.25-.63-.4-.94A2.8,2.8,0,0,0,58.15,6c-.39-.33-.76-.61-.6-1.14,0-.05,0-.12,0-.18,0-.44-.22-.87,0-1.31a.31.31,0,0,0,0-.25,3.24,3.24,0,0,1-.37-.78c0-.13-.25-.18-.23-.32s-.14-.41-.31-.58a.71.71,0,0,0-.9-.15,1,1,0,0,0-.51.62,3.25,3.25,0,0,1-.28.56,2.36,2.36,0,0,0-.41,1c0,.6,0,1.2-.06,1.8A.79.79,0,0,1,53.8,6Z" transform="translate(0.33 -1.01)"/><path class="cls-2" d="M66.71,41.16c.27.15.28.28,0,.4a4.65,4.65,0,0,1-2.17.55c-.54,0-1.08-.05-1.63,0A1.32,1.32,0,0,1,62.3,42a1.6,1.6,0,0,0-.36-.09,9.24,9.24,0,0,1-2.81-.95,5.23,5.23,0,0,1-1.51-1.28A4.88,4.88,0,0,1,57,38.59a9.46,9.46,0,0,1-.57-1.6,6,6,0,0,0-.2-1c-.06-.13.23-.37.43-.37a5.07,5.07,0,0,0,.73,0,.35.35,0,0,1,.44.25c.12.55,1.11.85,1.63.85a6.22,6.22,0,0,0,1.06-.07c.52-.09.87-.35.93-.74a2.69,2.69,0,0,0,0-.46,3.28,3.28,0,0,1,.7-2.14,2.24,2.24,0,0,1,1.11-.71,4.12,4.12,0,0,0,.92-.37,1.08,1.08,0,0,1,.75-.13c.13,0,.26.1.26.25s.07.28.05.41a3.55,3.55,0,0,1-.13,1,1,1,0,0,0-.08.41,3.68,3.68,0,0,1-1.4,2.08,1.82,1.82,0,0,1-.92.29c-.28,0-.56.07-.84.07a.54.54,0,0,0-.29.11,3.42,3.42,0,0,1-2.42.59A4.18,4.18,0,0,1,58,36.9a.72.72,0,0,0-.32-.11c-.1,0-.22,0-.29.07s0,.16.08.23.21.41.29.62a3.26,3.26,0,0,0,2.81,2.05A2.58,2.58,0,0,0,62,39.69a1.32,1.32,0,0,0,.69-.69c.11-.24.33-.32.53-.13a1.43,1.43,0,0,1,.58,1.37,1.17,1.17,0,0,1-.46.59c-.09.08-.23.16-.17.31s.22.15.37.15a5.87,5.87,0,0,0,1.42,0,3.13,3.13,0,0,0,1.18-.36c.24-.18.36-.13.55.21h0c-.1,0-.15-.07-.22-.11s-.19-.06-.22,0-.24.18-.42.19-.32,0-.33.18-.11.06-.18,0a1.37,1.37,0,0,0-.46-.06,6.68,6.68,0,0,1-1.79,0c-.21,0-.24-.13-.16-.27a2.43,2.43,0,0,1,.34-.42c.16-.18.42-.32.43-.57A1.32,1.32,0,0,0,63.16,39c-.07-.06-.12-.19-.25-.14s-.1.16-.13.25,0,.24-.13.29a.37.37,0,0,0-.29.33c0,.14-.12.18-.25.11a.35.35,0,0,0-.38,0,1.17,1.17,0,0,1-.89.09,8,8,0,0,1-1-.23,2.55,2.55,0,0,1-.71-.26,3.32,3.32,0,0,1-1.46-1.59s0-.06,0-.06c-.26,0-.26-.11-.13-.28s0-.14,0-.2c-.14-.22-.35-.42-.21-.71,0,0,0-.06-.06-.08s-.17-.22,0-.3c0,0,.07-.08.11-.12h.06a.17.17,0,0,0,.12.11c0,.26.22.34.47.37s.35.24.56.34a4.48,4.48,0,0,0,.82.18,1.57,1.57,0,0,0,.81,0,3.62,3.62,0,0,0,1.36-.63.36.36,0,0,1,.21-.06,6.32,6.32,0,0,0,1.43-.21,1.77,1.77,0,0,0,1.11-.9,1.18,1.18,0,0,1,.21-.33c.14-.15.28-.31,0-.48s0-.19,0-.25.11,0,.17.05.21,0,.22-.15,0-.43,0-.65A2.74,2.74,0,0,0,65,32.38c-.07-.21-.16-.28-.35-.2a3.71,3.71,0,0,1-.87.31s-.09.06-.13.1a.55.55,0,0,1-.37.14,1.63,1.63,0,0,0-1.09.85c0,.06,0,.13-.08.16-.24.17-.24.42-.28.65a2,2,0,0,0-.18,1.13c0,.12,0,.24,0,.36a.66.66,0,0,1-.32.58,3.29,3.29,0,0,1-1.59.41,4.12,4.12,0,0,1-1.32-.26.81.81,0,0,0-.33-.09c0-.19-.29-.28-.29-.46s-.22-.29-.43-.25a1.54,1.54,0,0,1-.57,0c-.21,0-.31.06-.28.25s.07.48.1.71a9.88,9.88,0,0,1,.28,1,.1.1,0,0,0,0,0c.33.26.26.68.49,1s.32.64.56.94a4.92,4.92,0,0,0,1.47,1.14,9.74,9.74,0,0,0,.95.42c.3.12.66.08.91.24.47.3,1.06.14,1.53.37a.49.49,0,0,0,.14,0h2.23s.07,0,.1,0c.35-.18.84-.06,1.09-.44,0,0,.09,0,.14,0,.3,0,.33-.11.24-.31Z" transform="translate(0.33 -1.01)"/><path class="cls-2" d="M72.7,23.84c-.09.25-.16.49-.26.72s-.23.14-.35.06a7,7,0,0,0-3.22-.86c-.71-.06-1.42-.1-2.13-.09a12,12,0,0,0-2.25.23,9.5,9.5,0,0,0-2.14.7,7.49,7.49,0,0,0-2,1.36,6,6,0,0,0-1.21,1.25,6.76,6.76,0,0,0-.81,1.34c-.15.52-.52,1-.68,1.48a4.42,4.42,0,0,0-.3,1,.73.73,0,0,1-.42.59.42.42,0,0,1-.46,0c-.16-.11-.37-.2-.28-.43.2-.51.19-1.06.4-1.58a12.05,12.05,0,0,1,.74-1.76,14.78,14.78,0,0,1,1.72-2.4,6.89,6.89,0,0,1,1.72-1.34c.45-.26.94-.44,1.4-.68a3.58,3.58,0,0,1,.89-.36,10.41,10.41,0,0,0,1.21-.35,6.49,6.49,0,0,1,.74-.12,10.37,10.37,0,0,1,2.57-.16,9.51,9.51,0,0,1,1.83.22c.94.21,1.87.48,2.8.74a.59.59,0,0,1,.46.45Zm-10.89.62h0c.16.09.33.15.44.08a1,1,0,0,1,.74-.32s0,0,0,0c0-.34.23-.16.38-.15s.29,0,.36-.07.51-.19.78-.22a13.65,13.65,0,0,1,3.26-.24,18.19,18.19,0,0,1,3.34.51,2.93,2.93,0,0,1,.95.42c.06,0,.12.09.21.05a.15.15,0,0,0,.08-.16,2.13,2.13,0,0,1,0-.43c0-.18,0-.25-.21-.34a6,6,0,0,0-1-.32c-.28-.09-.56-.3-.83-.27-.56.06-1-.24-1.54-.27s-.95-.07-1.41-.09a10.49,10.49,0,0,0-3,.27A6.5,6.5,0,0,1,63,23.2a.2.2,0,0,0-.11,0c-.29.23-.69.27-1,.48s-.79.32-1.13.54a6.43,6.43,0,0,0-1.35,1c-.42.47-.78,1-1.19,1.46-.21.25-.29.55-.52.8s-.57.58-.28,1c0,0,0,.18-.08.14-.3-.14-.23.11-.25.19a.4.4,0,0,1-.14.24.37.37,0,0,0-.16.37.62.62,0,0,1-.12.5.75.75,0,0,0-.17.51,2.46,2.46,0,0,1,0,.54.4.4,0,0,0,.34.49c.22,0,.39-.18.42-.44a3.82,3.82,0,0,1,.37-1.18,1.93,1.93,0,0,0,.18-.62c0-.18-.21-.39.21-.36,0-.24.33-.38.34-.64A.47.47,0,0,1,58.4,28c.46-.53.76-1.15,1.27-1.66.14-.14.18-.31.44-.39a1.48,1.48,0,0,0,.57-.5,3.55,3.55,0,0,1,1-.69C61.87,24.68,61.9,24.63,61.8,24.46Z" transform="translate(0.33 -1.01)"/><path class="cls-2" d="M58,21.28a3,3,0,0,1-.68,1.49,3.81,3.81,0,0,0-1,1.37.49.49,0,0,1-.21.24c-.16.1-.31.14-.42-.07A5.86,5.86,0,0,0,55,23.07a2.36,2.36,0,0,1-.39-.48,2.12,2.12,0,0,1-.17-2.14.79.79,0,0,1,.41-.4c.16-.06.24-.3.34-.47a3.09,3.09,0,0,0,.58-1.11c0-.19.16-.17.34-.05a6.11,6.11,0,0,1,.94,1,3.15,3.15,0,0,1,.9,1.83Zm-3.35-.15h0c0,.22.07.48.1.73a.4.4,0,0,0,.23.36c.09,0,.1.15.15.22s.17.47.34.68.32.43.47.65c0,.05,0,.15.12.15s.13-.1.15-.17a1.7,1.7,0,0,1,.45-.77.9.9,0,0,0,.24-.35,4.68,4.68,0,0,1,.5-.86.79.79,0,0,0,.06-.75c-.07-.15-.2-.31-.2-.45,0-.38-.39-.57-.51-.9s-.58-.5-.52-.92c0-.09-.11-.14-.2-.17s-.12,0-.11.09c0,.27-.19.46-.32.68a8.49,8.49,0,0,1-.65,1A1.23,1.23,0,0,0,54.62,21.13Z" transform="translate(0.33 -1.01)"/><path class="cls-2" d="M42,38.61a5.06,5.06,0,0,0-1.33,0,2.16,2.16,0,0,0-.89.35c-.72.37-1.36.86-2,1.27a3,3,0,0,1-2.29.41,2.68,2.68,0,0,1-1-.48A4.23,4.23,0,0,1,33.07,38a1.15,1.15,0,0,0-.19-.34.27.27,0,0,1,0-.34.26.26,0,0,1,.33-.09,2.28,2.28,0,0,0,2.12-.36,5.75,5.75,0,0,1,2.41-.65c.39,0,.8,0,1.18-.11a2.23,2.23,0,0,1,1.25.26,4.39,4.39,0,0,1,1.47,1,4.83,4.83,0,0,1,.67.77c.18.27.07.44-.34.43Zm-6.4,1.88h0c.15,0,.3.11.46.14s.25.07.28-.06-.15-.05-.22-.11,0,0,0-.06a.66.66,0,0,1,.37,0,.77.77,0,0,0,.86-.18.18.18,0,0,1,.12-.07c.34,0,.53-.23.78-.37s.62-.26.12-.54c-.09-.05,0-.14.1-.14a.23.23,0,0,1,.21.11c.1.14.21.12.34,0A2.13,2.13,0,0,1,40,38.75a.14.14,0,0,0,.14-.14c0-.06-.07-.06-.12,0-.4.06-.59-.19-.78-.43a.8.8,0,0,1,0-.85.83.83,0,0,1,.83-.28c.31,0,.57.11.67.36s.23.65-.11.93c-.07.06-.25.07-.18.19s.2,0,.3,0a.32.32,0,0,0,.17,0,1,1,0,0,1,.92,0c.08,0,.19,0,.24,0a.17.17,0,0,0,0-.24,6.93,6.93,0,0,1-.71-.78,5.56,5.56,0,0,0-1.26-.91,3,3,0,0,0-1-.24.07.07,0,0,0-.09,0c-.07.21-.3.17-.42.13a2.33,2.33,0,0,0-1,0,5.94,5.94,0,0,0-2.36.74,2.31,2.31,0,0,1-1.25.36l-.81-.06c-.12,0-.25,0-.14.16a3.22,3.22,0,0,1,.45,1.07c.12.33.37.58.5.89a.62.62,0,0,0,.41.33,1.3,1.3,0,0,0,1.17.62ZM40,37.1h0c-.28,0-.65.3-.65.53a.86.86,0,0,0,.72.82.81.81,0,0,0,.68-.65A.71.71,0,0,0,40,37.1Z" transform="translate(0.33 -1.01)"/><path class="cls-2" d="M44.74,30c.15,0,.2,0,.21.16s-.09.21-.19.28a1.8,1.8,0,0,0-.6,1.7,4.77,4.77,0,0,0,.21.91,2.77,2.77,0,0,0,.47.85,17.19,17.19,0,0,1,1.39,1.85c.22.41.59.75.8,1.17a2.24,2.24,0,0,1,.18,1.85,6.77,6.77,0,0,1-.68,1.28c-.06.1-.11.23-.29.21S46,40.12,46,40a1.84,1.84,0,0,0-.89-1,6.42,6.42,0,0,0-1.42-.53A2.8,2.8,0,0,1,41.77,37a6.37,6.37,0,0,1-.59-2.49c0-.39-.07-.78-.07-1.16a3,3,0,0,1,.18-1.55,3,3,0,0,1,1.83-1.38c.54-.16,1.09-.27,1.63-.4Zm-.68,1.14h0c0-.1.13-.16.12-.27a1,1,0,0,1,.32-.42s.1-.1.06-.16-.12,0-.18,0a3.16,3.16,0,0,1-.34,0c-.18,0-.22.08-.2.21s-.09.18-.24.12c-.46-.17-.46-.17-.78.15a.12.12,0,0,1-.13,0,.32.32,0,0,0-.35.13c-.27.29-.67.46-.86.84a.9.9,0,0,0-.17.47c0,.51-.07,1,0,1.54a16.35,16.35,0,0,0,.21,1.9c0,.16,0,.34.32.37s.2.32.07.36c-.34.08-.18.19-.06.33a1.35,1.35,0,0,1,.19.29,2.5,2.5,0,0,0,1.34,1.23.8.8,0,0,0,.8-.09c.08-.05.16-.08.23,0s0,.12-.07.14-.17,0-.16.12.15.12.23.13a2,2,0,0,1,.85.36,2,2,0,0,1,.93,1c0,.06,0,.12.13.13s.09-.07.13-.12a5.59,5.59,0,0,0,.43-.73,1,1,0,0,0,.2-.74c0-.18-.13-.33.1-.45.06,0,0-.13,0-.19a.72.72,0,0,1-.13-.52.44.44,0,0,0-.07-.32,7.16,7.16,0,0,0-.45-.66,1,1,0,0,1-.33-.47c-.05-.33-.34-.52-.52-.76a15.18,15.18,0,0,1-1.15-1.51,4,4,0,0,1-.53-2A1,1,0,0,0,44.07,31.17Z" transform="translate(0.33 -1.01)"/><path class="cls-2" d="M51.75,24.5a3.51,3.51,0,0,1,1.1.87A11.5,11.5,0,0,1,54.14,27a8.93,8.93,0,0,1,1,2.15c.17.52.32,1,.48,1.57a1.25,1.25,0,0,1,.07.46c0,.21,0,.44-.31.49a.64.64,0,0,1-.73-.39c-.12-.54-.36-1-.52-1.58a7.28,7.28,0,0,0-1-2,11,11,0,0,0-1.26-1.42,7.83,7.83,0,0,0-2.17-1.63A10.42,10.42,0,0,0,47.84,24a11.82,11.82,0,0,0-2.1-.22c-.42,0-.82.06-1.23,0s-.84,0-1.26,0a12.56,12.56,0,0,0-2.77.53c-.15,0-.24.18-.4.2h0c0-.17.14-.25.3-.32s.46-.13.69-.2a9.1,9.1,0,0,1,2.75-.36c.79,0,1.57-.12,2.35-.07a2.27,2.27,0,0,1,.6,0c.5.17,1,.15,1.54.32a11.07,11.07,0,0,1,1.12.38,6.5,6.5,0,0,1,1.32.76,6,6,0,0,1,.74.57,3.88,3.88,0,0,0,1.1,1c.06,0,.09.07.06.13s0,.15.1.2c.38.29.51.71.79,1.06a3.36,3.36,0,0,1,.45.82,5.19,5.19,0,0,1,.39,1,1,1,0,0,0,0,.25,5.45,5.45,0,0,1,.36,1.12.46.46,0,0,0,.62.31c.3-.08.23-.3.19-.48-.16-.69-.49-1.33-.6-2a.58.58,0,0,0-.06-.14,10,10,0,0,0-.49-1c-.19-.31-.26-.69-.63-.9a5.1,5.1,0,0,0-1.17-1.51,1.09,1.09,0,0,0-.32-.38c-.18-.17-.46-.26-.56-.5Z" transform="translate(0.33 -1.01)"/><path class="cls-2" d="M70.22,36.17c-.06-.22.25-.18.29-.32l.07-1a2.56,2.56,0,0,0,.22-1.06,3.09,3.09,0,0,0-.27-1.93,4.72,4.72,0,0,0-.74-.78,2.25,2.25,0,0,0-.76-.44,14,14,0,0,0-1.56-.48.16.16,0,0,0-.13,0c0,.05,0,.09.06.13a1.17,1.17,0,0,0,.24.19.49.49,0,0,1,.28.35,3.83,3.83,0,0,1,.09,1.5,7.13,7.13,0,0,1-.51,1.42,2.28,2.28,0,0,1-.7.94c-.18.13-.15.39-.38.49l-.35.42a.43.43,0,0,0-.24.26,5.22,5.22,0,0,0-.75,1.35,1.55,1.55,0,0,0-.18,1.14c.25.49.31,1,.53,1.54,0,.1.11.2.23.21s.1-.13.15-.2a4,4,0,0,1,.51-.71.32.32,0,0,1,.28-.11,3.24,3.24,0,0,0-.75,1.09c-.06.16-.31.14-.43,0a2.32,2.32,0,0,1-.24-.44,7.71,7.71,0,0,1-.49-1.56,1.63,1.63,0,0,1,.2-1,4.49,4.49,0,0,1,1.18-1.82,1.21,1.21,0,0,0,.27-.34c.26-.43.63-.8.93-1.21a3.72,3.72,0,0,0,.55-1.35,3,3,0,0,0,0-1.44.89.89,0,0,0-.39-.54l-.24-.15a.19.19,0,0,1-.07-.23c0-.09.12-.07.2-.07a2.64,2.64,0,0,1,.49,0,5,5,0,0,1,2.57,1.24,1.55,1.55,0,0,1,.6,1.15,12,12,0,0,1-.08,2A10.62,10.62,0,0,1,70.59,36,7.89,7.89,0,0,1,70,37.47a1.27,1.27,0,0,1-.46.43,6,6,0,0,1-1.15.52,3.39,3.39,0,0,0-1.11.42c-.07.05-.15.13-.25,0a1.19,1.19,0,0,1,.72-.36c.26,0,.5-.21.78-.23a.14.14,0,0,0,.14-.14c0-.07,0-.14.12-.15s.19.1.29,0a1.86,1.86,0,0,0,.87-.79c0-.1,0-.21.07-.27C70.29,36.72,70.22,36.44,70.22,36.17Z" transform="translate(0.33 -1.01)"/><path class="cls-2" d="M77.43,32.18a4,4,0,0,1-.67,2.32,3.3,3.3,0,0,1-1.11.93,2.53,2.53,0,0,1-1.76.25,3,3,0,0,0-1.13,0,.89.89,0,0,1-.26,0,1.28,1.28,0,0,0-1,.33.6.6,0,0,1-.25.13c-.15,0-.26,0-.22-.17a1.07,1.07,0,0,1,.15-.42c.18-.24.12-.54.17-.81a5.07,5.07,0,0,0,.07-.72,3.88,3.88,0,0,1,.69-2.21,2.78,2.78,0,0,1,.67-.61,11,11,0,0,0,1.35-1,1.67,1.67,0,0,0,.64-1.49c0-.14-.12-.36.12-.44s.31.13.45.25a12.74,12.74,0,0,1,1,1.06,4.9,4.9,0,0,1,.51.72,3.6,3.6,0,0,1,.61,1.77Zm-1.76,2.95h0c.33,0,.45-.25.67-.4a1.12,1.12,0,0,0,.5-1c.14-.07.28-.18.28-.31a10.14,10.14,0,0,1,.13-1.15s0-.1,0-.13c-.15-.2-.09-.41-.11-.63s0-.33-.14-.4-.14-.18-.15-.3,0-.14,0-.18c-.28-.28-.41-.66-.68-.95s-.34-.5-.65-.64c-.11-.15-.29-.25-.36-.43s-.09-.15-.19-.12a.14.14,0,0,0-.08.2c.17.28,0,.54,0,.81a2.45,2.45,0,0,1-.75,1,12.67,12.67,0,0,1-1.25.83c-.14.08-.14.23-.26.3a2,2,0,0,0-.85,1.24c-.17.59-.14,1.21-.29,1.81-.15.36.1.8-.28,1.12a.13.13,0,0,0,0,.19c.07,0,.13,0,.17-.06a1.41,1.41,0,0,1,.83-.35l0,0a1.23,1.23,0,0,0,.37,0,2.59,2.59,0,0,1,1.59-.05A1.37,1.37,0,0,0,75.67,35.12Z" transform="translate(0.33 -1.01)"/><path class="cls-2" d="M38.71,35.63a2.48,2.48,0,0,1-.94,0,2.85,2.85,0,0,1-1.5-.23,2.19,2.19,0,0,1-.74-.6,4.39,4.39,0,0,1-.79-1.41,3.28,3.28,0,0,1,0-1.88A5.1,5.1,0,0,1,35.58,30a9.57,9.57,0,0,1,1.31-1.45c.06-.05.14-.12.23-.07a.28.28,0,0,1,.13.32,1.57,1.57,0,0,0,.23,1.2,1.87,1.87,0,0,0,.66.64c.33.25.74.36,1.07.6a3.49,3.49,0,0,1,1,1.26,4.08,4.08,0,0,1,.41,1.94,1.41,1.41,0,0,0,.21.8c.13.2.05.44.14.66,0,.06,0,.13.06.17s0,.19-.07.26a.2.2,0,0,1-.28,0,2,2,0,0,0-1.46-.54l-.49-.06Zm1.66-2h0a2.72,2.72,0,0,0-.47-1.38,3.43,3.43,0,0,0-1.23-1.18c-.54-.32-1.16-.55-1.43-1.17a1.47,1.47,0,0,1-.12-1c0-.09.06-.18,0-.23s-.16,0-.23.08c-.27.16-.25.53-.61.61-.08.36-.46.55-.66.85a6.17,6.17,0,0,1-.52.8.26.26,0,0,0-.07.25.62.62,0,0,1-.12.54,1,1,0,0,0-.13.47,3.8,3.8,0,0,0,.17,1.07,2.83,2.83,0,0,0,1,1.62,2,2,0,0,0,1.35.53c.47,0,.94,0,1.41,0a.58.58,0,0,1,.37,0,1.14,1.14,0,0,0,.7.12c.28.11.64.08.84.35,0,0,.08.12.16.09s.05-.12,0-.18,0-.1,0-.15c0-.3-.25-.56-.28-.85S40.46,34,40.37,33.62Z" transform="translate(0.33 -1.01)"/><path class="cls-2" d="M75.77,40.76a2.91,2.91,0,0,1-1.19-.31,4.38,4.38,0,0,1-1.5-1,5,5,0,0,0-1-.56,8.28,8.28,0,0,0-1.58-.47c-.06,0-.09,0-.13,0a.79.79,0,0,1-.45.07c-.24,0-.34-.14-.23-.33a2.67,2.67,0,0,1,.65-.72c.39-.31.74-.66,1.16-.94a1.13,1.13,0,0,1,.43-.2,1.1,1.1,0,0,0,.53-.21.34.34,0,0,1,.3-.08,10.54,10.54,0,0,0,1.16.05,6.07,6.07,0,0,1,1.59.31c.6.24,1.2.51,1.82.71a2.23,2.23,0,0,0,1.44.1c.16-.06.39.16.32.32a8.06,8.06,0,0,1-1,2.11,2.78,2.78,0,0,1-2.32,1.08Zm3.18-3.22h0c-.07-.17-.22-.13-.34-.11a2.78,2.78,0,0,1-1.4-.15c-.69-.27-1.35-.61-2.07-.85a.78.78,0,0,0-.2-.05,7.5,7.5,0,0,1-1.48-.1c-.25-.06-.49.11-.8,0a1.35,1.35,0,0,0-.93.29,5.74,5.74,0,0,0-1.45,1.2c-.08.1,0,.27-.23.3s-.24.13-.16.25.2,0,.31,0a.49.49,0,0,1,.44-.06c.41.19.89.19,1.31.42a9.65,9.65,0,0,1,1.11.58,5.3,5.3,0,0,0,1.13.8,2,2,0,0,1,.37.15,4,4,0,0,0,1.49.41c.07,0,.2,0,.19-.07,0-.33.19-.2.32-.15a.61.61,0,0,0,.63-.12,4.34,4.34,0,0,0,1-1.1,1.67,1.67,0,0,0,.39-.87.44.44,0,0,1,.15-.4C78.86,37.85,78.89,37.67,78.95,37.53Z" transform="translate(0.33 -1.01)"/><path class="cls-2" d="M59.35,19.71a2.63,2.63,0,0,1-1.81-.61,3.87,3.87,0,0,1-.87-1.24,2.45,2.45,0,0,0-.53-.85c-.18-.15-.28-.15-.39.05-.28.51-.56,1-.86,1.53a2.49,2.49,0,0,1-2.12,1.11,1.22,1.22,0,0,0-.39.08.28.28,0,0,1-.33-.1c-.09-.09,0-.18,0-.23A3.79,3.79,0,0,0,53,17.51,3.32,3.32,0,0,1,53.84,16a6,6,0,0,1,1.23-.91l.15-.08c.66-.42.81-.43,1.46-.06a7,7,0,0,1,1.85,1.41.52.52,0,0,1,.14.22,8.26,8.26,0,0,0,.29.89,8,8,0,0,0,.6,1.58,1.17,1.17,0,0,0,.2.22c.08.09.17.18.12.3s-.21.09-.33.1ZM55.51,15h0a.24.24,0,0,0-.18.2.37.37,0,0,0-.29.11c-.24.15-.46.34-.69.49a2.67,2.67,0,0,0-1.1,1.58c-.1.35-.18.71-.31,1s-.22.77-.63,1a.13.13,0,0,0-.07.18s.08.08.11.06c.22-.19.5,0,.74-.13s.57-.15.84-.25a1.46,1.46,0,0,0,.78-.66c.34-.57.63-1.16,1-1.72a.23.23,0,0,1,.37-.08,3.49,3.49,0,0,1,1,1.37,3.49,3.49,0,0,0,.49.73,2.53,2.53,0,0,0,2,.64c.15,0,.18-.06.07-.15a1.23,1.23,0,0,1-.28-.36c-.33-.65-.44-1.36-.76-2a.36.36,0,0,1,0-.2.31.31,0,0,0-.24-.36.23.23,0,0,0-.09-.21,7.8,7.8,0,0,0-.91-.73c-.18-.11-.36-.31-.64-.26a.33.33,0,0,1-.23-.1c.07-.11.05-.17-.1-.21A1.55,1.55,0,0,0,55.51,15Z" transform="translate(0.33 -1.01)"/><path class="cls-2" d="M67.46,20a1.23,1.23,0,0,1-.79,1.29.36.36,0,0,1-.13,0A1.92,1.92,0,0,1,65.38,21a1.6,1.6,0,0,1-.66-1,.35.35,0,0,1,.06-.25c.07-.13.12-.3,0-.41a.45.45,0,0,0-.54,0A6,6,0,0,0,63,20.48a3.22,3.22,0,0,0-.63,1.09,1.41,1.41,0,0,0,0,1c.08.18-.08.31-.23.41s-.32.19-.47.3a.39.39,0,0,1-.65-.3,7.58,7.58,0,0,1,0-1.4,4,4,0,0,1,.92-2,5.64,5.64,0,0,1,.85-.7,5,5,0,0,1,1.23-.67A2.19,2.19,0,0,1,65.4,18a1.12,1.12,0,0,0,.23,0,1.55,1.55,0,0,1,1.51.86A1.88,1.88,0,0,1,67.46,20Zm-.23-.48h0a5,5,0,0,0-.51-.89,2.16,2.16,0,0,0-1.82-.47,1.64,1.64,0,0,0-1.56.79.12.12,0,0,1-.13,0c-.49-.09-.68.32-1,.51s-.37.71-.69,1c0,0,0,0,0,.07a6.16,6.16,0,0,0-.21.72,6.89,6.89,0,0,0-.1,1.7c0,.13.12.26.23.21a2.42,2.42,0,0,0,.75-.41.23.23,0,0,0,.06-.22,1.74,1.74,0,0,1,.26-1.61,6.14,6.14,0,0,1,1.61-1.65.92.92,0,0,1,.75-.05.36.36,0,0,1,.11.57.29.29,0,0,0,.07.42.21.21,0,0,1,.09.16.63.63,0,0,0,0,.15,1.12,1.12,0,0,0,1.23.58.86.86,0,0,0,.86-.72A3,3,0,0,0,67.23,19.5Z" transform="translate(0.33 -1.01)"/><path class="cls-2" d="M51,22.36c0,.2,0,.4,0,.6s-.15.44-.5.3-.75-.24-.78-.68a3.2,3.2,0,0,1,.05-.41,2.54,2.54,0,0,0-.62-1.58,4.09,4.09,0,0,0-1.51-1.23c-.11-.06-.25-.15-.37-.08s-.14.21-.14.35a1.75,1.75,0,0,1-.16,1,1.55,1.55,0,0,1-1.57.55,1.37,1.37,0,0,1-.72-.44,1.27,1.27,0,0,1-.16-1A1.84,1.84,0,0,1,45,18.69,1.88,1.88,0,0,1,46.2,18a4,4,0,0,1,2.35.48,4.78,4.78,0,0,1,1.56,1.18A3.77,3.77,0,0,1,51,22.36Zm-.17-.77h0a2.23,2.23,0,0,1-.23-.7.55.55,0,0,0-.08-.37c-.18-.24-.34-.49-.53-.72s-.32-.46-.62-.55a.3.3,0,0,0-.24-.15c-.11-.07-.19-.19-.35-.21s-.16-.15-.3-.15a2.07,2.07,0,0,0-.91-.41,4.09,4.09,0,0,1-.62-.12,1.82,1.82,0,0,0-1.21.15,1.24,1.24,0,0,0-.59.39c-.2.31-.45.61-.35,1a.19.19,0,0,1,0,.12.82.82,0,0,0,.28,1c.23.18.51.13.75.24a.89.89,0,0,0,.94-.52.33.33,0,0,0,.18-.22,2.78,2.78,0,0,0,0-.83c0-.4.1-.46.53-.37a.92.92,0,0,1,.47.22c0,.06.11,0,.17,0a5.27,5.27,0,0,0,.6.47,3.05,3.05,0,0,1,.91,1.26c.06.14.1.28.3.31a3.43,3.43,0,0,1,0,.54c-.12.66,0,.92.66,1.14.17.06.27,0,.26-.14,0-.38.06-.76.06-1.13A.5.5,0,0,0,50.81,21.59Z" transform="translate(0.33 -1.01)"/><path class="cls-2" d="M56,33.51a4.88,4.88,0,0,1-1.35-.08,2.49,2.49,0,0,1-1.73-.8c-.14-.2-.37-.34-.46-.58-.22-.62-.12-.89.51-1.28a.88.88,0,0,1,.51-.22c.33,0,.52.12.53.4a1.91,1.91,0,0,1,0,.87c-.06.15,0,.27.24.29a11.34,11.34,0,0,0,2,.21,11.33,11.33,0,0,0,1.52-.2c.15,0,.2-.11.18-.22A2.56,2.56,0,0,1,58.1,31c.09-.39.36-.49.76-.33.73.3.93.74.63,1.43a2,2,0,0,1-.52.74,2.52,2.52,0,0,1-.87.44,6.56,6.56,0,0,1-2.13.26Zm-1-.19h0a3.25,3.25,0,0,1,.89,0,9.42,9.42,0,0,0,1.43-.07,2.65,2.65,0,0,0,1.51-.53,3.11,3.11,0,0,0,.53-.73.8.8,0,0,0-.51-1.21c-.47-.08-.66-.06-.51.44a.18.18,0,0,1,0,.15.42.42,0,0,0-.05.42.34.34,0,0,1-.29.42,5.2,5.2,0,0,1-1.06.16,16.37,16.37,0,0,1-2.62-.1.49.49,0,0,1-.45-.6,2.39,2.39,0,0,0,0-.82c0-.12-.18-.17-.32-.19a2.36,2.36,0,0,0-.85.44c0,.27-.16.52,0,.81a3,3,0,0,0,.61.77A2.71,2.71,0,0,0,55,33.32Z" transform="translate(0.33 -1.01)"/><path class="cls-2" d="M36.66,23.55a2.77,2.77,0,0,1-.28,1.53,2,2,0,0,1-.55.72c-.33.34-.67.67-1,1a.24.24,0,0,1-.43-.09,3.19,3.19,0,0,0-.24-.68,4.06,4.06,0,0,0-.64-.62,4.18,4.18,0,0,1-.8-1.3c-.22-.5-.26-1-.48-1.54A3.15,3.15,0,0,0,31,20.93a.33.33,0,0,1-.2-.3c0-.14.05-.19.22-.2a9.68,9.68,0,0,1,1.83.07A4.81,4.81,0,0,1,34.4,21a15,15,0,0,1,1.46.84,1.6,1.6,0,0,1,.8,1.71Zm-.44,1.11h0a.66.66,0,0,0,.29-.37,1.78,1.78,0,0,0,0-.79.74.74,0,0,1,0-.38.52.52,0,0,0-.27-.49,1,1,0,0,0-.54-.67c-.19-.12-.34-.35-.64-.32-.11-.08-.22-.18-.33-.25a1.58,1.58,0,0,0-.66-.34c-.2,0-.41.05-.49-.21,0-.06-.14,0-.22,0-.28,0-.54-.26-.84-.07l-.05,0a2,2,0,0,0-.58-.16c-.1,0-.26-.06-.32.05s-.12.26-.27,0a.28.28,0,0,0-.37,0c-.11.12.08.16.16.22a1.12,1.12,0,0,1,.29.22c.07.1.14.14.24,0s.1-.1.17,0,0,.1-.05.13a.17.17,0,0,0,0,.26,4.23,4.23,0,0,1,.4.68.21.21,0,0,0,.19.11.93.93,0,0,0,.1.51,1.51,1.51,0,0,1,.2.87c0,.07,0,.12.11.13a1.1,1.1,0,0,1,.13.47.53.53,0,0,0,.34.47c0,.34.34.5.52.74a.2.2,0,0,0,.22.08c.11,0,.07-.13.08-.2s.22.06.17.17a.39.39,0,0,0,.18.53c.07,0,.07.12.07.19a2.7,2.7,0,0,0,0,.34.13.13,0,0,0,.21.1,1.72,1.72,0,0,0,.67-.59c.11,0,.17-.06.17-.16.22,0,.2-.23.33-.33A.86.86,0,0,0,36.21,24.66Z" transform="translate(0.33 -1.01)"/><path class="cls-2" d="M43.73,39.14a2.09,2.09,0,0,1,1.58.58c.16.12.32.21.37.41s0,.49-.27.55a1.65,1.65,0,0,0-1.07.82,3.58,3.58,0,0,1-1,.82,6.83,6.83,0,0,1-1.88.9c-.22.07-.49-.05-.48-.24,0-.39-.13-.75-.13-1.13a2.58,2.58,0,0,1,.77-1.74,4,4,0,0,1,1.48-.93,1.92,1.92,0,0,1,.58,0Zm1.8,1.24h0c0-.13.06-.27-.11-.36,0,0,0-.1-.06-.11-.29-.12-.46-.35-.77-.47a2.26,2.26,0,0,0-1.47-.08,1.66,1.66,0,0,0-.29.11c-.34.17-.72.32-.81.71a1.44,1.44,0,0,0-.82,1,1.41,1.41,0,0,0-.11.86,2.7,2.7,0,0,1,.07.71.25.25,0,0,0,.39.24,7.36,7.36,0,0,1,1.22-.51A4,4,0,0,0,44.4,41.1a1.23,1.23,0,0,1,.61-.49C45.18,40.54,45.41,40.55,45.53,40.38Z" transform="translate(0.33 -1.01)"/><path class="cls-2" d="M39.38,24.4a2.69,2.69,0,0,1-.06-.56.25.25,0,0,1,.19-.27c.61-.14,1.08-.56,1.7-.67s1.11-.26,1.68-.34A13.27,13.27,0,0,1,45,22.37a10.3,10.3,0,0,1,1.7.18c.5.09,1,.22,1.5.29a4.75,4.75,0,0,1,1.13.38,8.17,8.17,0,0,1,1,.46,13,13,0,0,1,1.26.65c.06,0,.13.08.13.16h0c-.1,0-.24,0-.3-.1a3,3,0,0,0-.89-.46c-.4-.2-.82-.41-1.24-.58A5.34,5.34,0,0,0,48.12,23a3.87,3.87,0,0,0-1.3-.19.24.24,0,0,1-.11,0,9.54,9.54,0,0,0-1.63-.23c-.14,0-.24.11-.39.09a5.86,5.86,0,0,0-1.59.06c-.37,0-.71.19-1.06.2a4,4,0,0,0-1.26.32c-.39.13-.77.35-1.17.5a.24.24,0,0,0-.18.26.88.88,0,0,0,.64.55h0c-.22.21-.34.21-.52,0,0-.06-.09-.11-.18-.1Z" transform="translate(0.33 -1.01)"/><path class="cls-2" d="M56.68,35.2a10.45,10.45,0,0,1-1.9,0,2.14,2.14,0,0,1-.58-.14,2.1,2.1,0,0,1-1.38-.83.48.48,0,0,1,.09-.64.29.29,0,0,1,.32-.06c.33.16.73.19,1,.48a.4.4,0,0,0,.26.11,8.25,8.25,0,0,0,2.2.08c.13,0,.27,0,.41,0a1.16,1.16,0,0,0,.82-.27,1.14,1.14,0,0,1,.51-.24.41.41,0,0,0,.16-.05c.16-.16.31-.22.51,0s.28.31.11.58a2.14,2.14,0,0,1-1.27.82,2.3,2.3,0,0,1-1.24.22Zm.3-.1h0c.12,0,.2,0,.27-.11s.08-.14.17-.13a1.77,1.77,0,0,0,1-.27,1.6,1.6,0,0,0,.69-.66.09.09,0,0,0-.08-.16c-.32,0-.72-.06-.92.14a1.5,1.5,0,0,1-1.22.4c-.54,0-1.09,0-1.63,0-.33,0-.73.06-1-.12a3.58,3.58,0,0,0-1-.5c-.11,0-.2-.07-.29,0s-.17.16-.1.27a1.55,1.55,0,0,0,.61.65,3,3,0,0,0,.61.23,3.63,3.63,0,0,0,.69.19A18.2,18.2,0,0,0,57,35.1Z" transform="translate(0.33 -1.01)"/><path class="cls-2" d="M57.2,11.71a3.5,3.5,0,0,1-.36,1.72,1,1,0,0,1-1.07.55.76.76,0,0,1-.53-.45,4.25,4.25,0,0,1-.43-2.2,1.61,1.61,0,0,1,.18-.52,5.74,5.74,0,0,1,.41-1.12,4.81,4.81,0,0,1,.42-.53c.13-.15.36-.08.49.13A7.34,7.34,0,0,1,57.16,11a3.79,3.79,0,0,1,0,.67Zm-.94-2h0a.46.46,0,0,0,0-.15c0-.09,0-.21-.16-.25s-.23.07-.31.14a.91.91,0,0,0-.27.52.39.39,0,0,0-.24.39.77.77,0,0,1-.1.4,1.55,1.55,0,0,0-.19.72,4.66,4.66,0,0,0,.25,1.6,1.3,1.3,0,0,0,.53.71.41.41,0,0,0,.55,0,1.74,1.74,0,0,0,.49-.76,3.51,3.51,0,0,0,.05-2.32,2.92,2.92,0,0,1-.21-.51A.56.56,0,0,0,56.26,9.71Z" transform="translate(0.33 -1.01)"/><path class="cls-2" d="M65.53,30.64a1.07,1.07,0,0,1-1.07,1.1,2.72,2.72,0,0,0-1.22.47c-.09.05-.18.11-.29.06a.18.18,0,0,1-.09-.25,1.28,1.28,0,0,0,0-.51c0-.41.35-.65.63-.89s.78-.56.92-1c.06-.2.43-.19.61,0a1.81,1.81,0,0,1,.47,1.05Zm-.23.08h0c-.12-.31,0-.75-.46-1-.14-.09-.19-.07-.26.05s0,.28-.06.32c-.28.14-.43.39-.68.55s-.77.54-.77,1c0,.11,0,.25.13.29s.36.07.44,0c.23-.34.66-.27,1-.39S65.3,31.21,65.3,30.72Z" transform="translate(0.33 -1.01)"/><path class="cls-2" d="M78.55,20.75a1.4,1.4,0,0,1-.8.33.55.55,0,0,0-.29.11c-.37.26-.77.47-1.15.71a1.63,1.63,0,0,0-.83,1.74,5.67,5.67,0,0,0,.13.95,2.36,2.36,0,0,0,.61,1.06c.31.28.59.59.89.88.09.08.22.1.26,0A5.81,5.81,0,0,1,77.7,26a1.09,1.09,0,0,1,.62-.58c0,.13-.13.19-.22.27a2.14,2.14,0,0,0-.55,1c-.06.2-.18.24-.34.1a5.56,5.56,0,0,1-1.62-1.81,2.48,2.48,0,0,1-.22-.77,3.44,3.44,0,0,1,.07-1.56,1.75,1.75,0,0,1,.78-.81l1.13-.68A2.9,2.9,0,0,1,78.55,20.75Z" transform="translate(0.33 -1.01)"/><path class="cls-2" d="M79.89,20.7a1.61,1.61,0,0,0-.91,0,.32.32,0,0,1-.32,0,6.23,6.23,0,0,1,2.14-.25c.13,0,.34,0,.38.16s-.12.27-.28.34a1.39,1.39,0,0,0-.66.69,20,20,0,0,0-1,2.45,1.94,1.94,0,0,1-.9,1.24.47.47,0,0,1,.2-.31c.3-.25.27-.67.59-.92.06,0,0-.18,0-.27a1.19,1.19,0,0,1,.27-.72.36.36,0,0,0,.08-.3.26.26,0,0,1,.08-.24.5.5,0,0,0,.08-.67.35.35,0,0,1,0-.17c0-.07,0-.16.1-.17s.1.08.13.14,0,.12.08.11.09-.08.1-.14a.41.41,0,0,0-.11-.33c-.15-.17-.08-.28.17-.33s0,.24.15.25.21-.11.28-.2a.57.57,0,0,1,.32-.21c.1,0,.23-.1.16-.2s-.27,0-.41-.05-.2,0-.18.1,0,.09,0,.1a.13.13,0,0,1-.14-.07C80.16,20.52,80,20.56,79.89,20.7Z" transform="translate(0.33 -1.01)"/><path class="cls-2" d="M68.11,41.84c.15,0,.25-.05.37-.16-.09.36.27.4.43.57s.68.14.78.48c0,0,.06,0,.1,0a2.23,2.23,0,0,1,.76.23c.14.07.26,0,.26-.12a14.66,14.66,0,0,0,0-1.59,1.65,1.65,0,0,0-.48-.86c-.13-.15-.4-.21-.41-.45-.34,0-.42-.39-.79-.47a4.2,4.2,0,0,0-1.05-.23,1.48,1.48,0,0,0-1.06.47.35.35,0,0,1-.3.11A2,2,0,0,1,69,39.35,3.57,3.57,0,0,1,70.8,40.9a.73.73,0,0,1,.11.34,10.56,10.56,0,0,1,0,1.73c0,.19-.32.25-.6.1s-.68-.28-1-.45A10.36,10.36,0,0,1,68.11,41.84Z" transform="translate(0.33 -1.01)"/><path class="cls-2" d="M49.17,31.78c0,.1,0,.16,0,.22,0,.26-.11.3-.37.19a6.87,6.87,0,0,0-1.28-.48,1.28,1.28,0,0,1-.83-.41,1,1,0,0,1-.06-1.19c.11-.18.21-.37.33-.55a.34.34,0,0,1,.33-.18c.16,0,.19.13.23.24a1.55,1.55,0,0,0,.64.69,4.52,4.52,0,0,1,.69.6,1.12,1.12,0,0,1,.32.86Zm-1.29-1.4h0a3.26,3.26,0,0,1-.49-.61c0-.07,0-.2-.15-.2s-.17.12-.23.21-.08.35-.22.5a.69.69,0,0,0,.24,1.1,5.76,5.76,0,0,0,.88.3,1.18,1.18,0,0,1,.47.18A1.59,1.59,0,0,0,49,32c.11,0,.1-.09.1-.15s0-.24-.06-.36C48.83,31,48.34,30.7,47.88,30.39Z" transform="translate(0.33 -1.01)"/><path class="cls-2" d="M50.11,31.11c.09-.25.24-.17.38,0a2.44,2.44,0,0,1,.65,1.12,2.91,2.91,0,0,1,0,1.79.26.26,0,0,1-.32.21c-.21,0-.15-.16-.14-.26a2.11,2.11,0,0,0-.59-1.23,1.35,1.35,0,0,1-.1-1.54s.06,0,.1,0c0,.16.2.37-.15.44,0,0,0,.06,0,.1a1.4,1.4,0,0,0,.22.89c.14.2.42.34.4.63,0,.1.09.13.21.06s.18,0,.13.11a1,1,0,0,0-.07.49c0,.07,0,.18.09.19s.12-.08.15-.16c.23-.46,0-.92,0-1.38,0-.15-.1-.07-.18,0a.21.21,0,0,1-.29,0c-.09-.09,0-.13.09-.18a.37.37,0,0,0,.15-.42,2.32,2.32,0,0,0-.49-.75C50.29,31,50.2,31.12,50.11,31.11Z" transform="translate(0.33 -1.01)"/><path class="cls-2" d="M60.83,33a6,6,0,0,1,.05-.95,4.88,4.88,0,0,1,.61-1,.23.23,0,0,1,.39,0,1,1,0,0,1,.24.35c.07.3.22.61,0,.92s-.43.73-.66,1.09a1.7,1.7,0,0,0-.17.6c0,.09,0,.17-.16.17s-.21,0-.26-.16a4.66,4.66,0,0,1-.06-1Zm.12.46h0c0,.05,0,.1,0,.16s0,.28.13.28.16-.17.16-.26a1.09,1.09,0,0,1,.4-.81c.48-.49.34-1,.26-1.53a.24.24,0,0,0-.13-.19c-.1,0-.22-.05-.24.06s-.28.31-.24.53a.21.21,0,0,1-.13.19.36.36,0,0,0-.21.42A3.14,3.14,0,0,1,61,33.45Z" transform="translate(0.33 -1.01)"/><path class="cls-2" d="M66.64,39.91c-.09.45-.09.46.42.7.16.08.25.17.23.34a2.33,2.33,0,0,0-.74-.43c-.22-.07-.26-.23-.12-.38S66.53,40,66.64,39.91Z" transform="translate(0.33 -1.01)"/><path class="cls-2" d="M48.82,32.67c.2.05.41.08.53.26h0a.56.56,0,0,1-.53-.26Z" transform="translate(0.33 -1.01)"/><path class="cls-2" d="M68.29,13a.48.48,0,0,1-.59,0Z" transform="translate(0.33 -1.01)"/><path class="cls-2" d="M66.7,39.08c0-.17.06-.23.24-.21C66.91,39,66.79,39,66.7,39.08Z" transform="translate(0.33 -1.01)"/><path class="cls-2" d="M67.81,41.48a.31.31,0,0,1,.24.26C67.88,41.72,67.85,41.6,67.81,41.48Z" transform="translate(0.33 -1.01)"/><path class="cls-2" d="M68.7,13a.29.29,0,0,1-.35,0C68.46,13,68.58,12.88,68.7,13Z" transform="translate(0.33 -1.01)"/><path class="cls-2" d="M67.34,41c.12,0,.18.06.18.16A.17.17,0,0,1,67.34,41Z" transform="translate(0.33 -1.01)"/><path class="cls-2" d="M67.58,41.27c.08,0,.12,0,.12.11A.11.11,0,0,1,67.58,41.27Z" transform="translate(0.33 -1.01)"/><path class="cls-2" d="M66.59,39.13a.12.12,0,0,1,.12-.05A.13.13,0,0,1,66.59,39.13Z" transform="translate(0.33 -1.01)"/><path class="cls-2" d="M67.52,41.16a.1.1,0,0,1,.06.11A.11.11,0,0,1,67.52,41.16Z" transform="translate(0.33 -1.01)"/><path class="cls-2" d="M68,41.74a.1.1,0,0,1,.06.11A.11.11,0,0,1,68,41.74Z" transform="translate(0.33 -1.01)"/><path class="cls-2" d="M78.31,25.39l.06-.05Z" transform="translate(0.33 -1.01)"/><path class="cls-2" d="M66.7,39.86l-.06.05Z" transform="translate(0.33 -1.01)"/><path class="cls-2" d="M67.7,41.37l.06.05Z" transform="translate(0.33 -1.01)"/><path class="cls-2" d="M67.76,41.42l.06.05Z" transform="translate(0.33 -1.01)"/><path class="cls-2" d="M66.65,41.11l.06.05h0l-.06-.05Z" transform="translate(0.33 -1.01)"/><path class="cls-2" d="M64.86,12.19c.36-.06.58,0,.69.28s.35.32.54.45a10.83,10.83,0,0,1,1.09.68c.15.14.32.25.48.38a.16.16,0,0,1,0,.27c-.1.1-.18,0-.24-.06-.59-.51-1.28-.91-1.89-1.39A3.68,3.68,0,0,1,64.86,12.19Z" transform="translate(0.33 -1.01)"/><path class="cls-2" d="M73.06,15.12c-.39,0-.71-.07-.94.19a.2.2,0,0,1-.17,0,4.18,4.18,0,0,1-.7-.46c-.05,0,0-.1,0-.13s.2,0,.24,0c.16.27.44.21.69.21a7.21,7.21,0,0,0,1.31,0c.08,0,.21,0,.23.07s-.13.11-.21.12A4.24,4.24,0,0,1,73.06,15.12Z" transform="translate(0.33 -1.01)"/><path class="cls-2" d="M72.19,15.6h.58a.36.36,0,0,0,.25-.06c.28-.26.65-.14,1-.2.06,0,.12,0,.13.08a.06.06,0,0,1-.07.07c-.36-.09-.59.2-.91.25a5.7,5.7,0,0,1-1.59,0c-.06,0-.13,0-.13-.08s.09-.07.15-.07Z" transform="translate(0.33 -1.01)"/><path class="cls-2" d="M63.23,10.66a.61.61,0,0,1-.07.09c-.07.06-.11,0-.14,0l-.56-.52L62,9.76c-.07-.06-.13-.14-.05-.23a.18.18,0,0,1,.24,0,3.45,3.45,0,0,1,.75.75c.07.11.06.25.26.26C63.22,10.56,63.24,10.6,63.23,10.66Z" transform="translate(0.33 -1.01)"/><path class="cls-2" d="M68.34,9.54a.11.11,0,0,1-.08.1.12.12,0,0,1-.15-.06c-.13-.29-.52-.31-.71-.54-.05-.06-.14-.1-.08-.19s.13,0,.2,0a1.9,1.9,0,0,1,.81.67S68.33,9.52,68.34,9.54Z" transform="translate(0.33 -1.01)"/><path class="cls-2" d="M68.46,10.71c0,.18-.31.48-.58.55l-.14,0c-.09,0-.2.09-.25,0s.1-.14.17-.17a5.51,5.51,0,0,0,.61-.46s.08-.09.14-.06S68.45,10.66,68.46,10.71Z" transform="translate(0.33 -1.01)"/><path class="cls-2" d="M59.67,5.17c-.06.13.11.37-.1.39s-.05-.23-.11-.35a.46.46,0,0,1,.06-.45.08.08,0,0,1,.07,0C59.74,4.86,59.63,5,59.67,5.17Z" transform="translate(0.33 -1.01)"/><path class="cls-2" d="M59.2,4.3c0-.09,0-.17.15-.14a.37.37,0,0,1,.3.28c0,.06-.05.12-.13.1S59.2,4.49,59.2,4.3Z" transform="translate(0.33 -1.01)"/><path class="cls-2" d="M64.89,38.4a1.55,1.55,0,0,1,.18-1.14,5.22,5.22,0,0,1,.75-1.35c.32,0,.32,0,.2.28a.63.63,0,0,1-.22.27s-.07,0-.07,0c0,.33-.35.55-.39.88,0,.07,0,.16-.05.19-.34.14-.23.41-.24.65S65,38.42,64.89,38.4Z" transform="translate(0.33 -1.01)"/><path class="cls-2" d="M69,38c-.1.1-.2,0-.29,0a1.47,1.47,0,0,1-.12-.73c.46-.05,1,0,1.13-.56a2.6,2.6,0,0,0,0-.48c.13,0,.25-.15.4-.05,0,.27.07.55-.22.76-.08.06-.08.17-.07.27s-.24,0-.29.12a.11.11,0,0,1-.15.07.47.47,0,0,0-.55.17C68.77,37.76,69,37.85,69,38Z" transform="translate(0.33 -1.01)"/><path class="cls-2" d="M69.82,36.22a2.6,2.6,0,0,1,0,.48c-.17.53-.67.51-1.13.56A1.18,1.18,0,0,1,68,36.5c-.1-.26.33-.75.67-.86a.78.78,0,0,1,.95.35c.05.08.13.15.19.23Zm-1,.88h0a.78.78,0,0,0,.85-.69.81.81,0,0,0-.78-.72.76.76,0,0,0-.73.73A.72.72,0,0,0,68.84,37.1Z" transform="translate(0.33 -1.01)"/><path class="cls-2" d="M70.57,34.86l-.07,1c-.32-.06-.39-.16-.24-.39a.72.72,0,0,0,.07-.38c0-.24-.06-.49.1-.73C70.6,34.51,70.42,34.72,70.57,34.86Z" transform="translate(0.33 -1.01)"/><path class="cls-2" d="M66.06,35.65l.35-.42c.19,0,.18.18.17.31s-.1.15-.22.16a.21.21,0,0,0-.1,0C66.06,35.92,66.06,35.79,66.06,35.65Z" transform="translate(0.33 -1.01)"/><path class="cls-2" d="M39.32,11.58a.67.67,0,0,1-1.07,0,.57.57,0,0,1-.25-.38c0-.16-.08-.37-.26-.35a.76.76,0,0,0-.56.28,2.54,2.54,0,0,0-.38,2.09,2.17,2.17,0,0,0,.76,1.23c.2.18.52.17.64.41,0,0,.05,0,.08,0a9,9,0,0,0,1.8,0,3.49,3.49,0,0,0,1.38-.64c.34-.3.76-.53,1.08-.86a1.76,1.76,0,0,1,1.64-.31,1,1,0,0,0,.89-.33,2.29,2.29,0,0,0,.4-.57c.1-.15.06-.25-.12-.39A6.91,6.91,0,0,0,44,11.26a.82.82,0,0,1-.49-.77,4.51,4.51,0,0,1,0-.66A1,1,0,0,1,44,9.09c0,.1,0,.19.16.21a.2.2,0,0,0,.23-.12.71.71,0,0,1,.42-.3.12.12,0,0,1-.06.14c-.18.09-.21.15,0,.2s.14.14.15.23a.82.82,0,0,0,.74.59A14.84,14.84,0,0,0,47.51,10c.17,0,.3-.11.46-.15a4,4,0,0,0,2.19-1.45l.59-.67A4.9,4.9,0,0,0,51,7.15,2.91,2.91,0,0,0,51.54,6a2.59,2.59,0,0,0,.1-1.2.23.23,0,0,1,.1-.24A5.42,5.42,0,0,1,52.56,4c.15-.07.29,0,.2.22a.74.74,0,0,0-.08.65.14.14,0,0,1,0,.1c-.23.47-.17,1-.37,1.48-.12.28-.2.58-.32.84s-.16.57-.48.77-.37.55-.62.78c-.5.47-.94,1-1.46,1.46s-1,.86-1.49,1.34a9.09,9.09,0,0,1-.93.66,5.1,5.1,0,0,0-.63.45,4,4,0,0,1-1.47,1.11c-.18.07-.33.3-.52.44-.56.41-1.09.84-1.61,1.28S41.62,16.76,41,17.31c-.07,0-.11-.17-.2-.06-.28.32-.75.5-.9.93,0,.07-.1.1-.16.14a.35.35,0,0,0,0,.55,5.31,5.31,0,0,1-.51.92c-.22.32-.16.74-.5,1-.06,0,0,.13,0,.2a9.7,9.7,0,0,0,.07,1.81,7.61,7.61,0,0,1,.2,1,.86.86,0,0,1,0,.15,2.34,2.34,0,0,0,.39,1.22A5.63,5.63,0,0,0,40,26.21,3.39,3.39,0,0,0,41,27a15.67,15.67,0,0,0,1.48.81,1.6,1.6,0,0,0,.63.08,7.82,7.82,0,0,1,1,.09,1.56,1.56,0,0,0,.55,0,3.87,3.87,0,0,1,1-.09.17.17,0,0,0,.09,0,12.62,12.62,0,0,0,1.46-.71,9.28,9.28,0,0,0,1-.92,2.86,2.86,0,0,0,.56-.83,1.76,1.76,0,0,1,.09-.19c.24-.43.34-.45.74-.12l.25.18a.23.23,0,0,1-.07.41c-.07,0-.14,0-.13.12,0,.24-.14.38-.28.55s-.26.22-.28.43-.18.12-.28,0-.09-.1-.17,0-.06.08,0,.11c.33.28,0,.46-.17.59a11.34,11.34,0,0,1-2,1.1,3.76,3.76,0,0,1-1.26.41A4.61,4.61,0,0,1,43,28.81c.05-.05.12,0,.19,0s.18,0,.19-.09-.12-.07-.18-.08a2.26,2.26,0,0,1-1.1-.24s-.08,0-.11,0a.37.37,0,0,1-.33-.13.59.59,0,0,0-.7-.13,1.42,1.42,0,0,1-.71-.38,1.86,1.86,0,0,0-.61-.47c-.37-.19-.48-.57-.68-.87a5.34,5.34,0,0,1-.49-.9,3.89,3.89,0,0,1-.51-1.71c0-.4-.21-.76-.2-1.17a2.42,2.42,0,0,1,.12-1.27.2.2,0,0,0,0-.1,4.75,4.75,0,0,1,.43-1.49c.11-.36.34-.67.49-1A5.84,5.84,0,0,1,40.09,17c.3-.31.67-.55.94-.88.09-.11.14-.21.05-.33a.29.29,0,0,0-.36-.07,1.9,1.9,0,0,1-1,.12c-.3-.06-.61.13-.92,0l-1.3-.53c-.16-.07-.14-.26-.28-.35a3.29,3.29,0,0,1-.78-.73,1.51,1.51,0,0,1-.19-.29,3.94,3.94,0,0,1-.36-1.57.48.48,0,0,1,0-.15c.07-.26.17-.52.22-.79a1.66,1.66,0,0,1,.51-.88c.1-.1.2-.19.17-.34h0a1.86,1.86,0,0,0,.59-.21c0,.12.1.16.22.15s.22,0,.25-.17.21-.19.28-.05.25.14.39,0,.41-.19.64,0a.94.94,0,0,1,.38.75.12.12,0,0,0,.14.14c.09,0,.08-.08.1-.13a.61.61,0,0,0,0-.48h.05a.93.93,0,0,1-.17,1.18c0-.11.19-.22,0-.29s-.21.12-.31.18A.25.25,0,0,0,39.32,11.58Z" transform="translate(0.33 -1.01)"/><path class="cls-2" d="M39.79,10.23a.61.61,0,0,1,0,.48c0,.05,0,.13-.1.13a.12.12,0,0,1-.14-.14.94.94,0,0,0-.38-.75c-.23-.24-.4-.26-.64,0s-.25.26-.39,0-.24-.13-.28.05-.13.16-.25.17-.21,0-.22-.15a1.13,1.13,0,0,1,.88-.32.65.65,0,0,0,.59-.15h.06a.27.27,0,0,0,.24.15C39.45,9.77,39.78,9.85,39.79,10.23Z" transform="translate(0.33 -1.01)"/><path class="cls-2" d="M40.9,28.09a.59.59,0,0,1,.7.13.37.37,0,0,0,.33.13s.09,0,.11,0a2.26,2.26,0,0,0,1.1.24c.06,0,.19,0,.18.08s-.11.08-.19.09-.14,0-.19,0h-.23c0-.1-.09-.12-.18,0h-.17a.11.11,0,0,0-.13-.09,1.6,1.6,0,0,1-.88-.28C41.22,28.28,40.94,28.33,40.9,28.09Z" transform="translate(0.33 -1.01)"/><path class="cls-2" d="M39.73,18.87a.35.35,0,0,1,0-.55c.06,0,.14-.07.16-.14.14-.43.61-.61.9-.93.09-.1.14,0,.2.06s-.08.15-.15.21A5.79,5.79,0,0,0,39.73,18.87Z" transform="translate(0.33 -1.01)"/><path class="cls-2" d="M44.82,8.87a.71.71,0,0,0-.42.3.2.2,0,0,1-.23.12c-.14,0-.17-.1-.16-.21a1.68,1.68,0,0,1,.56-.39C44.73,8.6,44.8,8.74,44.82,8.87Z" transform="translate(0.33 -1.01)"/><path class="cls-2" d="M39.32,11.58a.25.25,0,0,1,.09-.26c.1-.07.18-.25.31-.18s-.07.18,0,.29A.39.39,0,0,1,39.32,11.58Z" transform="translate(0.33 -1.01)"/><path class="cls-2" d="M38.85,9.5a.65.65,0,0,1-.59.15A.77.77,0,0,1,38.85,9.5Z" transform="translate(0.33 -1.01)"/><path class="cls-2" d="M39.14,9.66a.27.27,0,0,1-.24-.15C39,9.5,39.13,9.53,39.14,9.66Z" transform="translate(0.33 -1.01)"/><path class="cls-2" d="M42.54,28.76c.09-.07.15-.05.18,0S42.59,28.83,42.54,28.76Z" transform="translate(0.33 -1.01)"/><path class="cls-2" d="M42.25,28.67a.11.11,0,0,1,.13.09C42.3,28.77,42.26,28.74,42.25,28.67Z" transform="translate(0.33 -1.01)"/><path class="cls-2" d="M79.89,20.7c.13-.13.26-.18.37,0a.13.13,0,0,0,.14.07c.07,0,.05-.05,0-.1s.11-.1.18-.1.32-.07.41.05-.06.17-.16.2a.57.57,0,0,0-.32.21c-.07.09-.14.21-.28.2s0-.19-.15-.25S79.88,20.86,79.89,20.7Z" transform="translate(0.33 -1.01)"/><path class="cls-2" d="M48.82,32.68a.56.56,0,0,0,.53.26,4.63,4.63,0,0,1,.37.36,3,3,0,0,1,.68,1.54c0,.3-.07.59,0,.9.14.69.36.92,1.13,1a.82.82,0,0,1,.51.16.28.28,0,0,0,.33,0c.2-.19.46-.13.69-.17a2.17,2.17,0,0,0,.92-.36.67.67,0,0,0,.29-.37c.1-.32.21-.35.53-.22a1.32,1.32,0,0,0,.52,0c.21,0,.3.05.25.27s-.19.72-.28,1.08a5.2,5.2,0,0,1-.27,1,4.53,4.53,0,0,1-1,1.63c-.28.24-.56.5-.83.76a.58.58,0,0,1-.26.1.16.16,0,0,1-.2-.06c0-.07,0-.11.08-.15l.27-.24s.11-.09.05-.15a.16.16,0,0,0-.18,0,.47.47,0,0,0-.35.63c.07.16.05.25-.17.24-.06,0-.15,0-.17,0-.2.26-.59.2-.81.42a.25.25,0,0,1-.13.06c-.83.12-1.59.46-2.42.57a14.4,14.4,0,0,1-1.7,0c-.1,0-.14-.05-.11-.14s0-.18-.08-.21a.17.17,0,0,0-.21.11c-.06.17-.18.14-.32.1s-.41-.21-.66-.12c-.05,0-.14,0-.13-.07,0-.26-.16-.17-.29-.18s-.16,0-.19-.09,0-.12.06-.16a2.44,2.44,0,0,0,.21-.19c.13-.15.25-.14.37,0s.47.14.52.41c0,0,.16.07.27,0a2.55,2.55,0,0,1,1.15,0,.54.54,0,0,0,.23,0,3,3,0,0,1,1.07,0c.09,0,.17.05.24,0a.16.16,0,0,0,0-.23.57.57,0,0,1-.23-.41c0-.17-.31-.12-.34-.29.24-.07.28-.25.1-.45s-.21-.31.14-.67.26.09.4.08a1,1,0,0,1,.39.24,1.13,1.13,0,0,0,.72.28,5.31,5.31,0,0,1,.76,0,.59.59,0,0,0,.54-.11.56.56,0,0,1,.32-.12.62.62,0,0,0,.44-.2.34.34,0,0,1,.45,0,1.45,1.45,0,0,0,.22.12c.06,0,.14,0,.18,0s0-.11-.08-.15c-.21-.13-.19-.32,0-.42a2,2,0,0,0,.68-.65,1.63,1.63,0,0,1,.2-.27.48.48,0,0,0,.23-.4.27.27,0,0,1,.11-.21.92.92,0,0,0,.11-1,.22.22,0,0,0-.37-.08,4.49,4.49,0,0,1-1.32.56A1.88,1.88,0,0,1,51.39,37a6.12,6.12,0,0,0-1.09-.52,1.9,1.9,0,0,0-.54-.08,1.18,1.18,0,0,1-.69-.18.54.54,0,0,0-.24-.09c-.45-.07-.7-.39-1-.61s-.21-.48-.49-.6a.15.15,0,0,1-.06-.11c0-.59-.42-1.14-.31-1.76,0-.22-.05-.45.06-.67s.27-.27.49-.1a.38.38,0,0,0,.26.11.75.75,0,0,1,.67.22C48.5,32.73,48.68,32.66,48.82,32.68Z" transform="translate(0.33 -1.01)"/><path class="cls-2" d="M49.35,39.5c-.14,0-.19-.29-.4-.08s-.37.42-.14.67.14.38-.1.45a1.14,1.14,0,0,1-.16-1.13,1.42,1.42,0,0,1,.39-.44c.07-.07.16,0,.22,0A.61.61,0,0,1,49.35,39.5Z" transform="translate(0.33 -1.01)"/><path class="cls-2" d="M53.8,6a.79.79,0,0,0,.59-.68c0-.6,0-1.2.06-1.8a2.36,2.36,0,0,1,.41-1,3.25,3.25,0,0,0,.28-.56,1,1,0,0,1,.51-.62.71.71,0,0,1,.9.15c.17.17.35.31.31.58s.19.19.23.32a3.24,3.24,0,0,0,.37.78.31.31,0,0,1,0,.25c-.17.44.07.87,0,1.31,0,.06,0,.12,0,.18-.16.54.21.82.6,1.14a2.8,2.8,0,0,1,.74.91c.15.31.26.63.4.94a5.46,5.46,0,0,1,.13,1c.11.45.11.91.25,1.35a5.29,5.29,0,0,0,.93,1.91,9.28,9.28,0,0,1,.59.73c.14.21.45.21.65.36,0,0,.07,0,.11,0s.19.07.16.16-.18.09-.25.06a3.68,3.68,0,0,0-.65-.11A7.65,7.65,0,0,1,60,13a3.16,3.16,0,0,1-1-.7,3.64,3.64,0,0,1-.66-.75,6.77,6.77,0,0,1-.66-1,.51.51,0,0,0-.15-.22s-.09-.07-.09-.1c.06-.37-.29-.59-.44-.88a6.18,6.18,0,0,0-.41-.86.38.38,0,0,1-.09-.22,3.63,3.63,0,0,1,0-1.13c.11-.29-.08-.45-.51-.61a.58.58,0,0,0-.63.31,1,1,0,0,0,0,.69,1.73,1.73,0,0,1-.16,1.28,1.8,1.8,0,0,0-.13.3,2.36,2.36,0,0,1-.54,1,2.51,2.51,0,0,0-.34.58c-.16.34-.45.59-.63.91a2.65,2.65,0,0,1-.86.94,3.18,3.18,0,0,1-1.7.69c-.27,0-.5.18-.78.18-.1,0-.23.07-.28,0s.08-.16.18-.19a1.22,1.22,0,0,0,.51-.33,4.38,4.38,0,0,0,.9-1A5.29,5.29,0,0,0,52,11a1.23,1.23,0,0,1,.07-.22,5.67,5.67,0,0,0,.45-2A4.8,4.8,0,0,1,53.05,7a3.09,3.09,0,0,1,.61-.77A.36.36,0,0,0,53.8,6Zm2.14-2.71h0a.61.61,0,0,0-.67.6c0,.52.25.8.68.8a.77.77,0,0,0,.79-.72A.81.81,0,0,0,55.94,3.25Z" transform="translate(0.33 -1.01)"/><path class="cls-2" d="M66.64,41.11l.06.05c.09.21.06.34-.24.31,0,0-.12,0-.14,0-.25.38-.74.26-1.09.44a1.21,1.21,0,0,0-.82-.14c-.47,0-.95,0-1.42,0-.09,0-.2,0-.23.1-.47-.23-1.06-.07-1.53-.37-.25-.16-.62-.11-.91-.24a9.74,9.74,0,0,1-.95-.42,4.92,4.92,0,0,1-1.47-1.14c-.24-.29-.35-.65-.56-.94s-.16-.73-.49-1a.1.1,0,0,1,0,0,9.85,9.85,0,0,0-.28-1,.27.27,0,0,0,.17-.45c0-.08-.08-.16,0-.23a.2.2,0,0,1,.26,0,.54.54,0,0,0,.33.06s-.06.1-.11.12c-.21.09-.2.19,0,.3s.07.07.06.08c-.14.29.08.49.21.71,0,.06.08.14,0,.2s-.13.26.13.28c0,0,0,0,0,.06a3.32,3.32,0,0,0,1.46,1.59,2.55,2.55,0,0,0,.71.26,8,8,0,0,0,1,.23,1.17,1.17,0,0,0,.89-.09.35.35,0,0,1,.38,0c.13.07.22,0,.25-.11a.37.37,0,0,1,.29-.33c.17,0,.1-.18.13-.29s0-.21.13-.25.18.08.25.14a1.32,1.32,0,0,1,.48,1.07c0,.25-.27.39-.43.57a2.43,2.43,0,0,0-.34.42c-.08.14-.06.26.16.27a6.68,6.68,0,0,0,1.79,0,1.37,1.37,0,0,1,.46.06c.08,0,.18.06.18,0s.18-.18.33-.18.35,0,.42-.19.13-.09.22,0S66.54,41.11,66.64,41.11Z" transform="translate(0.33 -1.01)"/><path class="cls-2" d="M58,36.53a.81.81,0,0,1,.33.09,4.12,4.12,0,0,0,1.32.26,3.29,3.29,0,0,0,1.59-.41.66.66,0,0,0,.32-.58c0-.12,0-.24,0-.36a2,2,0,0,1,.18-1.13c.2.09.31,0,.37-.16a1.74,1.74,0,0,1,.23-.41c.13-.17.31-.31.28-.55,0-.08.07-.12.15-.12.29,0,.37-.2.42-.41a.55.55,0,0,0,.37-.14s.08-.09.13-.1a3.71,3.71,0,0,0,.87-.31c.19-.08.28,0,.35.2a2.74,2.74,0,0,1-.06,1.16c0,.22,0,.43,0,.65s0,.25-.22.15-.1-.15-.17-.05-.13.18,0,.25.13.33,0,.48a1.18,1.18,0,0,0-.21.33,1.77,1.77,0,0,1-1.11.9,6.32,6.32,0,0,1-1.43.21.36.36,0,0,0-.21.06,3.62,3.62,0,0,1-1.36.63,1.57,1.57,0,0,1-.81,0,4.48,4.48,0,0,1-.82-.18c-.21-.1-.37-.24-.56-.34A.13.13,0,0,0,58,36.53Z" transform="translate(0.33 -1.01)"/><path class="cls-2" d="M58,36.53a.13.13,0,0,1-.06.11c-.25,0-.45-.11-.47-.37.05,0,.08-.08,0-.13s-.1,0-.14,0h-.06a.54.54,0,0,1-.33-.06.2.2,0,0,0-.26,0c-.08.07,0,.15,0,.23a.27.27,0,0,1-.17.45c0-.24-.07-.48-.1-.71s.07-.28.28-.25a1.54,1.54,0,0,0,.57,0c.22,0,.43-.06.43.25S58,36.34,58,36.53Z" transform="translate(0.33 -1.01)"/><path class="cls-2" d="M63.24,32.73c0,.21-.13.39-.42.41-.09,0-.16,0-.15.12,0,.24-.15.38-.28.55a1.74,1.74,0,0,0-.23.41c-.06.15-.17.25-.37.16,0-.23,0-.48.28-.65,0,0,.06-.1.08-.16A1.63,1.63,0,0,1,63.24,32.73Z" transform="translate(0.33 -1.01)"/><path class="cls-2" d="M62.77,41.95c0-.13.13-.1.23-.1.47,0,.94,0,1.42,0a1.21,1.21,0,0,1,.82.14s-.07,0-.1,0H62.91A.49.49,0,0,1,62.77,41.95Z" transform="translate(0.33 -1.01)"/><path class="cls-2" d="M57.38,36.16s.09-.06.14,0,0,.09,0,.13A.17.17,0,0,1,57.38,36.16Z" transform="translate(0.33 -1.01)"/><path class="cls-2" d="M61.8,24.46c.09.18.06.22-.13.33a3.55,3.55,0,0,0-1,.69,1.48,1.48,0,0,1-.57.5c-.27.08-.3.25-.44.39-.51.51-.81,1.13-1.27,1.66a.47.47,0,0,0-.08.27c0,.26-.3.4-.34.64-.43,0-.2.18-.21.36a1.93,1.93,0,0,1-.18.62,3.82,3.82,0,0,0-.37,1.18c0,.26-.19.46-.42.44a.4.4,0,0,1-.34-.49,2.46,2.46,0,0,0,0-.54.75.75,0,0,1,.17-.51.62.62,0,0,0,.12-.5.37.37,0,0,1,.16-.37.4.4,0,0,0,.14-.24c0-.09,0-.33.25-.19.1,0,.11-.1.08-.14-.28-.42,0-.73.28-1s.31-.55.52-.8c.4-.48.76-1,1.19-1.46a6.43,6.43,0,0,1,1.35-1c.34-.22.78-.32,1.13-.54s.72-.25,1-.48a.2.2,0,0,1,.11,0,6.5,6.5,0,0,0,1.36-.34,10.49,10.49,0,0,1,3-.27c.47,0,.95.06,1.41.09s1,.34,1.54.27c.27,0,.55.19.83.27a6,6,0,0,1,1,.32c.17.09.24.17.21.34a2.13,2.13,0,0,0,0,.43.15.15,0,0,1-.08.16c-.09,0-.15,0-.21-.05a2.93,2.93,0,0,0-.95-.42,18.19,18.19,0,0,0-3.34-.51,13.65,13.65,0,0,0-3.26.24c-.27,0-.56,0-.78.22s-.23.07-.36.07-.4-.19-.38.15c0,0,0,0,0,0a1,1,0,0,0-.74.32C62.14,24.61,62,24.55,61.8,24.46Z" transform="translate(0.33 -1.01)"/><path class="cls-2" d="M54.62,21.13a1.23,1.23,0,0,1,.29-.78,8.49,8.49,0,0,0,.65-1c.13-.21.34-.4.32-.68,0,0,0-.12.11-.09s.21.07.2.17c-.06.42.4.6.52.92s.5.51.51.9c0,.14.13.3.2.45a.79.79,0,0,1-.06.75,4.68,4.68,0,0,0-.5.86.9.9,0,0,1-.24.35,1.7,1.7,0,0,0-.45.77c0,.07,0,.16-.15.17s-.08-.1-.12-.15c-.15-.22-.3-.44-.47-.65s-.19-.46-.34-.68-.06-.18-.15-.22a.4.4,0,0,1-.23-.36C54.69,21.6,54.65,21.35,54.62,21.13Z" transform="translate(0.33 -1.01)"/><path class="cls-2" d="M34.39,39.86a.62.62,0,0,1-.41-.33c-.14-.31-.39-.57-.5-.89A3.22,3.22,0,0,0,33,37.57c-.11-.13,0-.17.14-.16l.81.06a2.31,2.31,0,0,0,1.25-.36,5.94,5.94,0,0,1,2.36-.74,2.33,2.33,0,0,1,1,0c.12,0,.34.08.42-.13a.07.07,0,0,1,.09,0,3,3,0,0,1,1,.24,5.56,5.56,0,0,1,1.26.91,6.93,6.93,0,0,0,.71.78.17.17,0,0,1,0,.24c-.05.08-.16.06-.24,0a1,1,0,0,0-.92,0,.32.32,0,0,1-.17,0c-.1,0-.25,0-.3,0s.11-.14.18-.19c.35-.28.23-.62.11-.93s-.35-.34-.67-.36a.83.83,0,0,0-.83.28.8.8,0,0,0,0,.85c.19.25.37.49.78.43,0,0,.11,0,.12,0a.14.14,0,0,1-.14.14,2.13,2.13,0,0,0-1.06.52c-.13.09-.25.11-.34,0a.23.23,0,0,0-.21-.11c-.12,0-.2.09-.1.14.51.28.06.45-.12.54s-.44.38-.78.37a.18.18,0,0,0-.12.07.77.77,0,0,1-.86.18.66.66,0,0,0-.37,0s0,0,0,.06.25,0,.22.11-.18.08-.28.06-.31-.09-.46-.14c.08-.13.08-.22-.13-.21s-.44-.39-.78-.38c0,0,0,0,0-.07s0-.12-.13-.11S34.4,39.8,34.39,39.86Z" transform="translate(0.33 -1.01)"/><path class="cls-2" d="M34.39,39.86c0-.07,0-.15.11-.15s.12,0,.13.11,0,.07,0,.07c.34,0,.44.4.78.38s.21.08.13.21A1.3,1.3,0,0,1,34.39,39.86Z" transform="translate(0.33 -1.01)"/><path class="cls-2" d="M44,31.63a4,4,0,0,0,.53,2,15.18,15.18,0,0,0,1.15,1.51c.18.24.46.43.52.76a1,1,0,0,0,.33.47,7.16,7.16,0,0,1,.45.66.44.44,0,0,1,.07.32.72.72,0,0,0,.13.52c0,.06.08.16,0,.19-.23.13-.15.27-.1.45a1,1,0,0,1-.2.74,5.59,5.59,0,0,1-.43.73s0,.12-.13.12-.11-.07-.13-.13a2,2,0,0,0-.93-1,2,2,0,0,0-.85-.36c-.08,0-.22,0-.23-.13s.09-.09.16-.12.12-.07.07-.14-.15-.05-.23,0a.8.8,0,0,1-.8.09A2.5,2.5,0,0,1,42,37.06a1.35,1.35,0,0,0-.19-.29c-.12-.14-.28-.25.06-.33.14,0,.09-.35-.07-.36s-.29-.21-.32-.37a16.35,16.35,0,0,1-.21-1.9c0-.52.07-1,0-1.54a.9.9,0,0,1,.17-.47c.19-.38.59-.54.86-.84a.32.32,0,0,1,.35-.13.12.12,0,0,0,.13,0c.31-.31.31-.32.78-.15.16.06.22,0,.24-.12s.13.09.08.17-.06.44-.13.66,0,.25.17.27Zm-1,5.57h0c.67,0,1-.28,1-.8a.91.91,0,0,0-.91-.8c-.57,0-.81.3-.87.85,0,.34.36.43.41.71C42.61,37.25,42.81,37.19,42.91,37.21Z" transform="translate(0.33 -1.01)"/><path class="cls-2" d="M44,31.63c-.2,0-.2-.16-.17-.27s0-.45.13-.66.05-.15-.08-.17,0-.21.2-.21a3.16,3.16,0,0,0,.34,0c.06,0,.15,0,.18,0s0,.13-.06.16a1,1,0,0,0-.32.42c-.26.1-.28.14-.12.27A1,1,0,0,1,44,31.63Z" transform="translate(0.33 -1.01)"/><path class="cls-2" d="M44.07,31.17c-.16-.12-.14-.17.12-.27C44.2,31,44.06,31.06,44.07,31.17Z" transform="translate(0.33 -1.01)"/><path class="cls-2" d="M40.08,24.5a.88.88,0,0,1-.64-.55.24.24,0,0,1,.18-.26c.4-.16.78-.37,1.17-.5A4,4,0,0,1,42,22.87c.35,0,.7-.17,1.06-.2a5.86,5.86,0,0,1,1.59-.06c.15,0,.25-.11.39-.09a9.54,9.54,0,0,1,1.63.23.24.24,0,0,0,.11,0,3.87,3.87,0,0,1,1.3.19,5.34,5.34,0,0,1,1.21.38c.42.18.84.38,1.24.58a3,3,0,0,1,.89.46c.06.06.19.07.3.1.1.24.38.33.56.5a1.09,1.09,0,0,1,.32.38c-.22,0-.21.16-.06.24a1.12,1.12,0,0,1,.44.49c.15.34.47.54.67.83.06.08.11,0,.13-.05.37.21.44.59.63.9a10,10,0,0,1,.49,1A.58.58,0,0,1,55,29c.11.7.44,1.35.6,2,0,.17.11.4-.19.48a.46.46,0,0,1-.62-.31A5.45,5.45,0,0,0,54.43,30a1,1,0,0,1,0-.25,5.19,5.19,0,0,0-.39-1,3.36,3.36,0,0,0-.45-.82c-.28-.34-.41-.77-.79-1.06-.06,0-.14-.1-.1-.2s0-.1-.06-.13a3.88,3.88,0,0,1-1.1-1,6,6,0,0,0-.74-.57,6.5,6.5,0,0,0-1.32-.76,11.07,11.07,0,0,0-1.12-.38c-.5-.17-1-.15-1.54-.32a2.27,2.27,0,0,0-.6,0c-.79-.05-1.57.07-2.35.07a9.1,9.1,0,0,0-2.75.36c-.23.07-.47.11-.69.2S40.1,24.33,40.08,24.5Z" transform="translate(0.33 -1.01)"/><path class="cls-2" d="M53.8,26.89c0,.07-.07.14-.13.05-.19-.29-.52-.49-.67-.83a1.12,1.12,0,0,0-.44-.49c-.14-.08-.16-.2.06-.24A5.1,5.1,0,0,1,53.8,26.89Z" transform="translate(0.33 -1.01)"/><path class="cls-2" d="M69,38c-.07-.13-.28-.23-.12-.42a.47.47,0,0,1,.55-.17.11.11,0,0,0,.15-.07c0-.14.17-.11.29-.12A1.86,1.86,0,0,1,69,38Z" transform="translate(0.33 -1.01)"/><path class="cls-2" d="M75.5,29.08c.3.14.44.42.65.64s.39.66.68.95c0,0,0,.12,0,.18s0,.22.15.3.13.26.14.4,0,.43.11.63c0,0,0,.08,0,.13a10.14,10.14,0,0,0-.13,1.15c0,.14-.13.24-.28.31l-.13,0c0,.26-.29.37-.38.57a.64.64,0,0,1-.38.36.32.32,0,0,0-.27.39,1.37,1.37,0,0,1-1.5.39,2.59,2.59,0,0,0-1.59.05,1.23,1.23,0,0,1-.37,0c0-.16-.15-.17-.28-.15s-.33-.08-.31-.29,0-.19,0-.29,0-.17-.17-.15c.16-.6.13-1.22.29-1.81a2,2,0,0,1,.85-1.24c.12-.07.13-.22.26-.3a12.67,12.67,0,0,0,1.25-.83,2.45,2.45,0,0,0,.75-1c.18.13.3.12.29-.11S75.28,29.12,75.5,29.08Z" transform="translate(0.33 -1.01)"/><path class="cls-2" d="M71.46,34.71c.13,0,.17,0,.17.15s0,.19,0,.29.06.31.31.29.26,0,.28.15l0,0a1.41,1.41,0,0,0-.83.35s-.1.11-.17.06a.13.13,0,0,1,0-.19C71.56,35.51,71.31,35.07,71.46,34.71Z" transform="translate(0.33 -1.01)"/><path class="cls-2" d="M75.67,35.12a.32.32,0,0,1,.27-.39.64.64,0,0,0,.38-.36c.1-.2.38-.31.38-.57l.13,0a1.12,1.12,0,0,1-.5,1C76.13,34.87,76,35.14,75.67,35.12Z" transform="translate(0.33 -1.01)"/><path class="cls-2" d="M75.5,29.08c-.22,0-.37.13-.35.35s-.11.24-.29.11c0-.27.17-.54,0-.81a.14.14,0,0,1,.08-.2c.1,0,.17,0,.19.12S75.39,28.93,75.5,29.08Z" transform="translate(0.33 -1.01)"/><path class="cls-2" d="M39.73,35.59a1.14,1.14,0,0,1-.7-.12.58.58,0,0,0-.37,0c-.47,0-.94,0-1.41,0a2,2,0,0,1-1.35-.53,2.83,2.83,0,0,1-1-1.62,3.8,3.8,0,0,1-.17-1.07,1,1,0,0,1,.13-.47.62.62,0,0,0,.12-.54.26.26,0,0,1,.07-.25,6.17,6.17,0,0,0,.52-.8c.2-.3.57-.48.66-.85.36-.08.35-.45.61-.61.08,0,.12-.15.23-.08s.07.14,0,.23a1.47,1.47,0,0,0,.12,1c.27.61.89.85,1.43,1.17a3.43,3.43,0,0,1,1.23,1.18,2.72,2.72,0,0,1,.47,1.38c-.1,0-.15,0-.18.12a3.61,3.61,0,0,0,0,1.38c0,.2,0,.3-.26.31S39.74,35.45,39.73,35.59Z" transform="translate(0.33 -1.01)"/><path class="cls-2" d="M39.73,35.59c0-.14.12-.15.25-.16s.29-.11.26-.31a3.61,3.61,0,0,1,0-1.38c0-.1.08-.13.18-.12.08.41,0,.83.07,1.23s.24.56.28.85c0,0,0,.1,0,.15s0,.15,0,.18-.13,0-.16-.09C40.37,35.67,40,35.7,39.73,35.59Z" transform="translate(0.33 -1.01)"/><path class="cls-2" d="M78.95,37.53c-.06.14-.09.31-.19.4a.44.44,0,0,0-.15.4,1.67,1.67,0,0,1-.39.87,4.34,4.34,0,0,1-1,1.1.61.61,0,0,1-.63.12c-.13,0-.37-.18-.32.15,0,.09-.12.08-.19.07a4,4,0,0,1-1.49-.41,2,2,0,0,0-.37-.15,5.3,5.3,0,0,1-1.13-.8A9.65,9.65,0,0,0,72,38.7c-.42-.23-.9-.23-1.31-.42a.49.49,0,0,0-.44.06c-.11.05-.24.11-.31,0s0-.23.16-.25.15-.21.23-.3a5.74,5.74,0,0,1,1.45-1.2,1.35,1.35,0,0,1,.93-.29c.31.09.55-.09.8,0a7.5,7.5,0,0,0,1.48.1.78.78,0,0,1,.2.05c.71.23,1.37.57,2.07.85a2.78,2.78,0,0,0,1.4.15c.13,0,.28-.06.34.11Zm-6.09.24h0a.81.81,0,0,0-1-.83.87.87,0,0,0-.75.7c-.09.39.09.54.43.71s.55.32.83.16A.75.75,0,0,0,72.86,37.77Z" transform="translate(0.33 -1.01)"/><path class="cls-2" d="M56.44,15.18a.33.33,0,0,0,.23.1,1.66,1.66,0,0,0,.55.57,1.6,1.6,0,0,1,.32.25,1.12,1.12,0,0,0,.78.38.31.31,0,0,1,.24.36.36.36,0,0,0,0,.2c.32.65.43,1.36.76,2a1.23,1.23,0,0,0,.28.36c.1.09.08.14-.07.15a2.53,2.53,0,0,1-2-.64,3.49,3.49,0,0,1-.49-.73,3.49,3.49,0,0,0-1-1.37.23.23,0,0,0-.37.08c-.37.56-.65,1.15-1,1.72a1.46,1.46,0,0,1-.78.66c-.28.1-.57.15-.84.25s-.52-.07-.74.13c0,0-.09,0-.11-.06a.13.13,0,0,1,.07-.18c.42-.23.5-.64.63-1s.21-.7.31-1a2.67,2.67,0,0,1,1.1-1.58c.23-.15.45-.34.69-.49.09.11.2.21.35.11s0-.16-.06-.22a.24.24,0,0,1,.18-.2s0,.11,0,.12C55.84,15.14,56.1,15.47,56.44,15.18Z" transform="translate(0.33 -1.01)"/><path class="cls-2" d="M58.32,16.48a1.12,1.12,0,0,1-.78-.38,1.6,1.6,0,0,0-.32-.25,1.66,1.66,0,0,1-.55-.57c.28,0,.46.15.64.26a7.8,7.8,0,0,1,.91.73A.23.23,0,0,1,58.32,16.48Z" transform="translate(0.33 -1.01)"/><path class="cls-2" d="M56.44,15.18c-.34.3-.6,0-.9-.08,0,0,0-.08,0-.12a1.55,1.55,0,0,1,.83,0C56.49,15,56.51,15.07,56.44,15.18Z" transform="translate(0.33 -1.01)"/><path class="cls-2" d="M55.33,15.18c.1.05.18.14.06.22s-.26,0-.35-.11A.37.37,0,0,1,55.33,15.18Z" transform="translate(0.33 -1.01)"/><path class="cls-2" d="M65.12,20.39a.21.21,0,0,0-.09-.16.29.29,0,0,1-.07-.42.36.36,0,0,0-.11-.57.92.92,0,0,0-.75.05,6.14,6.14,0,0,0-1.61,1.65,1.74,1.74,0,0,0-.26,1.61.23.23,0,0,1-.06.22,2.42,2.42,0,0,1-.75.41c-.11.05-.23-.08-.23-.21a6.89,6.89,0,0,1,.1-1.7,6.16,6.16,0,0,1,.21-.72s0-.06,0-.07c.31-.29.33-.77.69-1s.49-.59,1-.51a.12.12,0,0,0,.13,0,1.64,1.64,0,0,1,1.56-.79,2.16,2.16,0,0,1,1.82.47,5,5,0,0,1,.51.89c-.14,0-.17.09-.17.2s0,.31,0,.47c0,.42-.21.58-.67.54a.22.22,0,0,0-.19,0c-.09.09-.16,0-.25,0Z" transform="translate(0.33 -1.01)"/><path class="cls-2" d="M65.12,20.39l.82.35c.09,0,.16.09.25,0a.22.22,0,0,1,.19,0c.46,0,.67-.12.67-.54,0-.16,0-.31,0-.47s0-.19.17-.2a3,3,0,0,1,0,.89.86.86,0,0,1-.86.72,1.12,1.12,0,0,1-1.23-.58A.63.63,0,0,1,65.12,20.39Z" transform="translate(0.33 -1.01)"/><path class="cls-2" d="M47.94,19.4a.92.92,0,0,0-.47-.22c-.43-.08-.52,0-.53.37a2.78,2.78,0,0,1,0,.83.33.33,0,0,1-.18.22.4.4,0,0,0-.55.11c-.05.06-.08.15-.19.15s-.2.13-.2.26c-.24-.1-.52-.05-.75-.24a.82.82,0,0,1-.28-1,.19.19,0,0,0,0-.12c-.09-.39.16-.7.35-1a1.24,1.24,0,0,1,.59-.39,1.82,1.82,0,0,1,1.21-.15,4.09,4.09,0,0,0,.62.12,2.07,2.07,0,0,1,.91.41C48.29,18.95,48,19.09,47.94,19.4Z" transform="translate(0.33 -1.01)"/><path class="cls-2" d="M49.35,19.24c.3.1.45.35.62.55s.35.48.53.72a.55.55,0,0,1,.08.37,2.23,2.23,0,0,0,.23.7c-.18.05-.16.2-.17.32s0,.4,0,.6-.12.22-.29.23-.18-.12-.18-.23c0-.29,0-.57,0-.86s0-.26-.24-.16-.24-.17-.3-.31a3.05,3.05,0,0,0-.91-1.26,5.27,5.27,0,0,1-.6-.47c.06,0,.17-.05.19-.1a.63.63,0,0,1,.41-.36s0-.07.05-.11.23.14.35.21-.19.14,0,.23A.19.19,0,0,0,49.35,19.24Z" transform="translate(0.33 -1.01)"/><path class="cls-2" d="M49.93,21.48c.21-.09.23,0,.24.16s0,.57,0,.86c0,.11,0,.23.18.23s.28-.07.29-.23,0-.4,0-.6,0-.27.17-.32a.5.5,0,0,1,.06.3c0,.38-.09.75-.06,1.13,0,.19-.09.2-.26.14-.62-.22-.78-.48-.66-1.14A3.43,3.43,0,0,0,49.93,21.48Z" transform="translate(0.33 -1.01)"/><path class="cls-2" d="M45.77,21.11c0-.13,0-.27.2-.26s.13-.09.19-.15a.4.4,0,0,1,.55-.11A.89.89,0,0,1,45.77,21.11Z" transform="translate(0.33 -1.01)"/><path class="cls-2" d="M48.76,18.87s0,.1-.05.11a.63.63,0,0,0-.41.36s-.12.07-.19.1-.13,0-.17,0c0-.3.35-.45.53-.67C48.6,18.72,48.74,18.71,48.76,18.87Z" transform="translate(0.33 -1.01)"/><path class="cls-2" d="M49.35,19.24a.19.19,0,0,1-.28.08c-.15-.09,0-.15,0-.23A.3.3,0,0,1,49.35,19.24Z" transform="translate(0.33 -1.01)"/><path class="cls-2" d="M55,33.32a2.71,2.71,0,0,1-1.78-.6,3,3,0,0,1-.61-.77c-.14-.29,0-.54,0-.81a2.36,2.36,0,0,1,.85-.44c.14,0,.31.07.32.19a2.39,2.39,0,0,1,0,.82.49.49,0,0,0,.45.6,16.37,16.37,0,0,0,2.62.1A5.2,5.2,0,0,0,58,32.25a.34.34,0,0,0,.29-.42.42.42,0,0,1,.05-.42.18.18,0,0,0,0-.15c-.15-.5,0-.51.51-.44A.8.8,0,0,1,59.32,32a3.11,3.11,0,0,1-.53.73,2.65,2.65,0,0,1-1.51.53,9.42,9.42,0,0,1-1.43.07,3.25,3.25,0,0,0-.89,0Zm2.58-.48h0a.14.14,0,0,0-.15-.16c-.1,0-.14,0-.14.12s0,.18.15.18A.13.13,0,0,0,57.55,32.84Z" transform="translate(0.33 -1.01)"/><path class="cls-2" d="M36.27,22.63a.31.31,0,0,1,.18.16.12.12,0,0,0-.11.1,3.68,3.68,0,0,0,0,1.33c0,.08.09.07.16.07a.66.66,0,0,1-.29.37s0-.07,0-.1-.11-.25-.22-.23-.06.17,0,.27a1.57,1.57,0,0,1-.36.81c-.15.13-.28.27-.08.45,0,.1-.07.15-.17.16-.1-.16-.28-.17-.49,0a.49.49,0,0,1-.39.13c0-.07,0-.14-.07-.19a.39.39,0,0,1-.18-.53c0-.11,0-.18-.17-.17a1.67,1.67,0,0,1-.63-.66c0-.1-.16-.09-.2,0a.53.53,0,0,1-.34-.47,1.1,1.1,0,0,0-.13-.47c.14,0,.11-.12.12-.2s-.08-.43-.06-.64a.33.33,0,0,0-.19-.37c-.16-.08-.1-.22-.07-.35s.13-.13.11-.24c-.19,0-.32.11-.32.3a.21.21,0,0,1-.19-.11,4.23,4.23,0,0,0-.4-.68.17.17,0,0,1,0-.26s.11-.08.05-.13-.13,0-.17,0-.16.09-.24,0a1.12,1.12,0,0,0-.29-.22c-.08-.06-.27-.09-.16-.22a.28.28,0,0,1,.37,0c.15.23.19.12.27,0s.21-.08.32-.05a2,2,0,0,1,.58.16l.05,0c.3-.2.56.08.84.07.08,0,.2,0,.22,0,.07.26.29.18.49.21a1.58,1.58,0,0,1,.66.34c.11.07.22.17.33.25s.12.23.24.34.39.27.48.49S36.09,22.8,36.27,22.63Z" transform="translate(0.33 -1.01)"/><path class="cls-2" d="M35.51,25.86c-.2-.18-.07-.32.08-.45a1.57,1.57,0,0,0,.36-.81c0-.1-.09-.24,0-.27s.21.1.22.23,0,.07,0,.1a.86.86,0,0,1-.38.87C35.71,25.63,35.73,25.84,35.51,25.86Z" transform="translate(0.33 -1.01)"/><path class="cls-2" d="M32.34,22.21c0-.19.13-.26.32-.3,0,.12-.09.16-.11.24s-.09.27.07.35a.33.33,0,0,1,.19.37c0,.22.09.42.06.64s0,.18-.12.2-.12-.06-.11-.13a1.51,1.51,0,0,0-.2-.87A.93.93,0,0,1,32.34,22.21Z" transform="translate(0.33 -1.01)"/><path class="cls-2" d="M36.27,22.63c-.18.18-.34.13-.45-.16s-.31-.35-.48-.49-.23-.18-.24-.34c.3,0,.44.2.64.32A1,1,0,0,1,36.27,22.63Z" transform="translate(0.33 -1.01)"/><path class="cls-2" d="M34.46,26.17a.49.49,0,0,0,.39-.13c.21-.2.39-.19.49,0a1.72,1.72,0,0,1-.67.59.13.13,0,0,1-.21-.1A2.7,2.7,0,0,1,34.46,26.17Z" transform="translate(0.33 -1.01)"/><path class="cls-2" d="M36.5,24.29c-.07,0-.16,0-.16-.07a3.68,3.68,0,0,1,0-1.33.12.12,0,0,1,.11-.1.31.31,0,0,1,.09.33.74.74,0,0,0,0,.38A1.78,1.78,0,0,1,36.5,24.29Z" transform="translate(0.33 -1.01)"/><path class="cls-2" d="M33.22,24.66c0-.13.16-.14.2,0a1.67,1.67,0,0,0,.63.66c0,.07,0,.16-.08.2a.2.2,0,0,1-.22-.08C33.56,25.16,33.23,25,33.22,24.66Z" transform="translate(0.33 -1.01)"/><path class="cls-2" d="M42,40.17c.09-.39.47-.54.81-.71a1.66,1.66,0,0,1,.29-.11,2.26,2.26,0,0,1,1.47.08c.31.12.48.35.77.47,0,0,0,.07.06.11-.25,0-.18.16-.17.27s.18.07.28.09c-.12.17-.35.16-.52.23a1.23,1.23,0,0,0-.61.49,4,4,0,0,1-1.64,1.41,7.36,7.36,0,0,0-1.22.51.25.25,0,0,1-.39-.24,2.7,2.7,0,0,0-.07-.71,1.41,1.41,0,0,1,.11-.86c.08,0,0,.17.17.15a.22.22,0,0,0,.18-.19.76.76,0,0,1,.36-.48C42.18,40.51,42.21,40.45,42,40.17Z" transform="translate(0.33 -1.01)"/><path class="cls-2" d="M45.53,40.38c-.1,0-.27.11-.28-.09s-.08-.28.17-.27S45.52,40.25,45.53,40.38Z" transform="translate(0.33 -1.01)"/><path class="cls-2" d="M57,35.1a18.2,18.2,0,0,1-2.17,0,3.63,3.63,0,0,1-.69-.19,3,3,0,0,1-.61-.23,1.55,1.55,0,0,1-.61-.65c-.07-.11,0-.2.1-.27s.18,0,.29,0a3.58,3.58,0,0,1,1,.5c.26.18.66.11,1,.12.54,0,1.09,0,1.63,0a1.5,1.5,0,0,0,1.22-.4c.2-.19.6-.16.92-.14a.09.09,0,0,1,.08.16,1.6,1.6,0,0,1-.69.66,1.77,1.77,0,0,1-1,.27c-.09,0-.12.08-.17.13S57.11,35.14,57,35.1Z" transform="translate(0.33 -1.01)"/><path class="cls-2" d="M56.26,9.71a.56.56,0,0,1,.38.48,2.92,2.92,0,0,0,.21.51A3.51,3.51,0,0,1,56.79,13a1.74,1.74,0,0,1-.49.76.41.41,0,0,1-.55,0,1.3,1.3,0,0,1-.53-.71,4.66,4.66,0,0,1-.25-1.6,1.55,1.55,0,0,1,.19-.72.77.77,0,0,0,.1-.4A.39.39,0,0,1,55.5,10c.11.14.23.15.28,0s.13-.19.28-.19A.79.79,0,0,0,56.26,9.71Z" transform="translate(0.33 -1.01)"/><path class="cls-2" d="M56.26,9.71a.79.79,0,0,1-.19,0c-.15,0-.24,0-.28.19s-.17.16-.28,0a.91.91,0,0,1,.27-.52c.09-.08.16-.19.31-.14s.13.16.16.25A.46.46,0,0,1,56.26,9.71Z" transform="translate(0.33 -1.01)"/><path class="cls-2" d="M65.3,30.72c0,.49-.23.63-.67.78s-.75,0-1,.39c-.08.12-.3.08-.44,0s-.13-.18-.13-.29c0-.49.37-.78.77-1s.4-.41.68-.55c.08,0,0-.21.06-.32s.13-.15.26-.05C65.26,30,65.17,30.41,65.3,30.72Z" transform="translate(0.33 -1.01)"/><path class="cls-2" d="M49,31.53c0,.12,0,.24.06.36s0,.17-.1.15a1.59,1.59,0,0,1-.57-.16,1.18,1.18,0,0,0-.47-.18,5.76,5.76,0,0,1-.88-.3.69.69,0,0,1-.24-1.1c.14-.15.12-.35.22-.5s.09-.21.23-.21.1.13.15.2a3.25,3.25,0,0,0,.49.61c-.27,0-.16.11-.07.22.21.27.56.43.74.72A.39.39,0,0,0,49,31.53Z" transform="translate(0.33 -1.01)"/><path class="cls-2" d="M49,31.53a.39.39,0,0,1-.44-.2c-.18-.29-.53-.45-.74-.72-.09-.11-.2-.21.07-.22C48.34,30.7,48.83,31,49,31.53Z" transform="translate(0.33 -1.01)"/><path class="cls-2" d="M50.11,31.11c.09,0,.18-.09.27,0a2.32,2.32,0,0,1,.49.75.37.37,0,0,1-.15.42c-.06,0-.18.09-.09.18a.21.21,0,0,0,.29,0c.07-.06.19-.15.18,0,0,.46.19.93,0,1.38,0,.07,0,.17-.15.16s-.08-.12-.09-.19a1,1,0,0,1,.07-.49c.06-.13,0-.18-.13-.11s-.22,0-.21-.06c0-.29-.26-.43-.4-.63a1.4,1.4,0,0,1-.22-.89s0-.09,0-.1c.35-.07.14-.29.15-.44Z" transform="translate(0.33 -1.01)"/><path class="cls-2" d="M61,33.45a3.14,3.14,0,0,0,0-1.15.36.36,0,0,1,.21-.42.21.21,0,0,0,.13-.19c0-.23.2-.34.24-.53s.14-.1.24-.06a.24.24,0,0,1,.13.19c.08.53.22,1-.26,1.53a1.09,1.09,0,0,0-.4.81c0,.09,0,.27-.16.26s-.12-.17-.13-.28S61,33.5,61,33.45Z" transform="translate(0.33 -1.01)"/><path class="cls-2" d="M55.94,3.25a.81.81,0,0,1,.79.69.77.77,0,0,1-.79.72c-.43,0-.67-.28-.68-.8a.61.61,0,0,1,.67-.6ZM56,4.5h0a.55.55,0,0,0,.56-.57A.61.61,0,0,0,56,3.36a.53.53,0,0,0-.58.53A.6.6,0,0,0,56,4.5Z" transform="translate(0.33 -1.01)"/><path class="cls-2" d="M42.91,37.21c-.1,0-.3,0-.31,0-.06-.28-.44-.37-.41-.71.05-.55.3-.83.87-.85a.91.91,0,0,1,.91.8c0,.52-.37.8-1,.8ZM43,37h0a.64.64,0,0,0,.72-.66.69.69,0,0,0-.76-.64.65.65,0,0,0-.69.68A.8.8,0,0,0,43,37Z" transform="translate(0.33 -1.01)"/><path class="cls-2" d="M72.86,37.77a.75.75,0,0,1-.46.74c-.28.16-.55,0-.83-.16s-.52-.32-.43-.71a.87.87,0,0,1,.75-.7.81.81,0,0,1,1,.83Zm-1.58,0h0c0,.28.43.65.77.65a.72.72,0,0,0,.7-.62.82.82,0,0,0-.69-.73A.8.8,0,0,0,71.28,37.76Z" transform="translate(0.33 -1.01)"/><path class="cls-2" d="M57.55,32.84a.13.13,0,0,1-.14.14c-.13,0-.15-.08-.15-.18s0-.13.14-.12A.14.14,0,0,1,57.55,32.84Z" transform="translate(0.33 -1.01)"/><polygon class="cls-2" points="25.81 68.86 23.04 68.86 18.56 59.26 12.31 59.26 12.31 58.56 18.24 58.56 14.13 49.68 5.25 68.86 4.31 68.86 15.03 45.84 25.81 68.86"/><polygon class="cls-2" points="54.82 68.86 52.17 68.86 50.79 51.63 41.76 69.21 32.48 51.9 31.17 68.86 30.3 68.86 32.11 45.79 42.81 65.77 53 45.8 54.82 68.86"/><polygon class="cls-2" points="78.97 68.86 76.2 68.86 71.72 59.26 65.47 59.26 65.47 58.56 71.4 58.56 67.29 49.68 58.41 68.86 57.47 68.86 68.19 45.84 78.97 68.86"/><polygon class="cls-2" points="100.96 69.21 84.27 50.35 84.27 68.86 83.46 68.86 83.46 45.84 100.15 64.52 100.15 46.2 100.96 46.2 100.96 69.21"/><rect class="cls-3" x="106.08" y="46.2" width="2.65" height="22.64"/><rect class="cls-4" y="70.85" width="113.03" height="0.48"/></svg>