<svg xmlns="http://www.w3.org/2000/svg" viewBox="0 0 291.73 255.53"><style><![CDATA[.Bh{fill-rule:evenodd}.Bh, .Bi{fill:#fff}]]></style><defs><linearGradient id="A" y1="157.09" x2="291.73" y2="157.09" gradientUnits="userSpaceOnUse"><stop offset="0" stop-color="#1a0100"/><stop offset=".06" stop-color="#8b5605"/><stop offset=".24" stop-color="#8b5605"/><stop offset=".28" stop-color="#8b5605"/><stop offset=".51" stop-color="#f2d7a2"/><stop offset=".61" stop-color="#e8b860"/><stop offset=".75" stop-color="#875832"/><stop offset=".91" stop-color="#e7b85f"/><stop offset="1" stop-color="#5b3300"/></linearGradient></defs><path d="M0 156.24h291.73v1.69H0z" fill="url(#A)"/><g transform="translate(45.67 27.46)"><path class="Bh" d="M139.75 15.63l.2-.16a.85.85 0 0 0 1.11 0c.24 0 .56 0 .71.12 1.09 1 2.54 1.45 3.45 2.71.73 1 2 1.35 3 2.07s2.11.91 3 1.65c.32.26.72.14 1.08.15h1.4c2.7.23 4.53-1.21 6.34-3 1.34-1.33 1.11-3 1.43-4.49a6.11 6.11 0 0 0-.5-4 7.68 7.68 0 0 0-1.37-1.85 1 1 0 0 0-1.6.47 2.46 2.46 0 0 1-1.87 2.17 3.84 3.84 0 0 1-3.25-.77 2.88 2.88 0 0 1-1.4-2.7c.17-1.91.51-3.65 2.32-4.76 1.3-.8 2.58-.4 3.84 0a9.3 9.3 0 0 1 4 2.07 9.84 9.84 0 0 1 3 4.61 9 9 0 0 1 .37 3.12c-.1 1.07.43 2.13 0 3.22-.66 1.77-1.23 3.58-2.62 4.94-.5.49-.75 1.15-1.24 1.61a7.87 7.87 0 0 1-3.8 2.31c-1.06.22-2 .76-3.17.92-1.75.25-3.44-.18-5.2-.06a2.16 2.16 0 0 0 .7 1.37 24.66 24.66 0 0 1 4.68 5.89c1.63 2.79 3.24 5.6 3.76 8.9a42 42 0 0 1 .89 7 41.27 41.27 0 0 1-.37 6.53c-.15.88-.61 1.67-.76 2.56a17.43 17.43 0 0 1-2.5 5.67 16.17 16.17 0 0 1-4.88 5.44 19.76 19.76 0 0 1-6.86 3c-1.23.27-2.43.71-3.68.85a14.82 14.82 0 0 1-5.53 0c-1.61-.43-3.37-.5-4.76-1.83-.87-.83-2.21-1.15-3.21-2a15.19 15.19 0 0 1-1.43-1.33 25.34 25.34 0 0 1-5.18-7.15c-.14-.29-.3-.61-.07-.88a5.54 5.54 0 0 1 2.6-1.88.92.92 0 0 1 1.18.5c.48 1.06 1.18 2 1.63 3.07a15.2 15.2 0 0 0 2.5 3.63 4.29 4.29 0 0 0 1.61 1.19 16.83 16.83 0 0 1 2.17 1.23 4.62 4.62 0 0 0 3 1c1.69-.16 3.39.18 5.1.18a14 14 0 0 0 7.61-2.51 16.64 16.64 0 0 0 4.76-4.5 11.87 11.87 0 0 0 2.35-6.44 2.91 2.91 0 0 1 .42-1.19c.52-1.09.17-2.25.29-3.37a49.86 49.86 0 0 0 .25-6.69 9.23 9.23 0 0 0-1.39-3.93c-.38-.74-.69-1.51-1.12-2.23a61.59 61.59 0 0 0-3.47-5.09 65.92 65.92 0 0 0-5.49-6.27 95.29 95.29 0 0 0-8.89-8.14l-6.53-5.46A98.58 98.58 0 0 1 121 5.78l-3.21-3.44A22.6 22.6 0 0 1 113-5.38a51.37 51.37 0 0 1-2-8.44 16.2 16.2 0 0 0-.53-1.58 1.09 1.09 0 0 1 .34-1.17c.36-.35.66-.13 1 0 .83.27 1.46.92 2.33 1.13.51.13.63.74.63 1.16a7.62 7.62 0 0 1 0 1.63 8.29 8.29 0 0 0 1.45 6.23 28.5 28.5 0 0 0 2 3.42 37 37 0 0 0 3.92 4.39 16.39 16.39 0 0 0 3.48 2.35c1 .53 2.12.39 3.13.74 1.36.46 2.8.28 4.18.53.65.12 2.44-1.21 2.73-2a5.48 5.48 0 0 0 .42-2.45c0-.33-.08-.72.33-.89a1 1 0 0 1 1 .24 12.14 12.14 0 0 1 2.45 2.26 2.19 2.19 0 0 1 .56 1.45c0 .72-.17 1.48.61 2 .26.17.2.61.09.88a5.52 5.52 0 0 1-3.38 3.67 5.6 5.6 0 0 0-2.41 1.34 1.69 1.69 0 0 0-.26 2.19c.52.78 1 1.7 2.17 1.64.18 0 .37.21.55.32a1.39 1.39 0 0 0 1.88 0zm-10.91-3a12.23 12.23 0 0 0 2.22 2.17c1.93 1.74 4.14 3.16 6 5 .21.21.44.55.77.2a.61.61 0 0 0-.07-1l-1.53-1.35c-1-1-2.39-1.54-3.48-2.42-.59-.47-1.39-.77-1.71-1.61s-1.06-1.23-2.21-1zm26.1 10.49a12 12 0 0 0 1.55 0c.23 0 .74 0 .66-.44s-.46-.3-.72-.24a20.41 20.41 0 0 1-4.17.17c-.81 0-1.69.23-2.2-.74-.14-.26-.49-.25-.76-.09s-.26.34-.1.47a13.25 13.25 0 0 0 2.23 1.64.56.56 0 0 0 .53-.07c.73-.93 1.74-.61 3-.69zm-2.76 1.71h-2c-.2 0-.49-.08-.49.25s.22.26.42.29a16.12 16.12 0 0 0 5.06-.05c1-.18 1.74-1.23 2.9-.91.12 0 .23-.11.23-.24a.3.3 0 0 0-.4-.27c-1 .23-2.23-.2-3.12.72a1 1 0 0 1-.79.2zM123.67 7.09c0-.21-.05-.36-.17-.36-.63 0-.6-.54-.83-.92a11.76 11.76 0 0 0-2.37-2.68.54.54 0 0 0-.76-.06c-.26.29-.07.58.16.81l1.51 1.51L123 7.26c.11.11.23.35.44.14a2.16 2.16 0 0 0 .23-.31zm16.24-4v-.18a6.27 6.27 0 0 0-2.57-2.4c-.23-.08-.48-.22-.65.09s.1.46.26.69c.6.82 1.84.89 2.25 1.93a.37.37 0 0 0 .73-.12zm.4 4.18c0-.17.07-.4-.15-.49s-.31.13-.46.23c-.7.48-1.15 1.24-1.93 1.63-.23.12-.69.24-.55.62s.52.15.8.07.31 0 .45-.09a3 3 0 0 0 1.84-2zm-28-19.85c-.14-.51.2-1.08-.27-1.51a.24.24 0 0 0-.23 0 1.81 1.81 0 0 0-.18 1.61c.19.44-.12 1.34.35 1.27.67-.1.13-.94.33-1.41zm-1.5-3.12c0 .71.54.74 1 .86a.33.33 0 0 0 .43-.35 1.25 1.25 0 0 0-.95-1c-.29-.11-.42.19-.43.5zm24.83 123.87h-.17c-.59-.09-.85.15-.76.75a.37.37 0 0 0-.38.19 1 1 0 0 0-.89.41 14.27 14.27 0 0 0-1.63 2.54c-.15.25-.07.72-.48.7s-.59-.38-.74-.74c-.7-1.8-.87-3.76-1.68-5.53.49.05.54-.25.55-.64 0-.84-.33-1.81.77-2.32.23-.11.14-.45.16-.7.11-1.17 1.19-2 1.23-3.15 0-.06.14-.11.22-.16a2.22 2.22 0 0 0 .7-1c.38-.88.37-.93-.64-1a1.5 1.5 0 0 1 .75-.93c0 .51 0 1 .64.38a.63.63 0 0 1 .32-.17c.36 0 .69-.13.7-.58s.06-1-.55-1.12c.75-.34.64-1.27 1.22-1.75a8.18 8.18 0 0 0 2.24-3.35 27.72 27.72 0 0 0 1.61-5.1 15.38 15.38 0 0 0-.29-5.38 1.73 1.73 0 0 0-.9-1.25 3.83 3.83 0 0 1-.76-.68c-.13-.12-.32-.27-.18-.46a.47.47 0 0 1 .42-.1 41 41 0 0 1 5 1.74 7 7 0 0 1 2.42 1.57 16.25 16.25 0 0 1 2.35 2.78c1.19 2.19 1 4.57.87 6.91a10.18 10.18 0 0 1-.76 3.77c-.47-.5.11-1.26-.4-1.82a4.89 4.89 0 0 0-.33 2.6 2.85 2.85 0 0 1-.23 1.35c-.47.82-.26 1.18.76 1.39-.14.52-1.1.38-.92 1.15-.48-.35-.85.09-1.27.19-.2-.27-.43-.53-.6-.82a2.37 2.37 0 0 0-3-1.26c-1.08.37-2.46 2.14-2.12 3.07a4.15 4.15 0 0 0 2 2.73 5.85 5.85 0 0 0 .37 2.61c-.33 0-.38.26-.38.53a.48.48 0 0 1-.44.51c-.9.09-1.66.68-2.48.83a3.66 3.66 0 0 0-2.32 1.31zM39.57 5.38a8.66 8.66 0 0 1 2.33-1.85c1.09-.76 2.45-.79 3.66-1.26a1.41 1.41 0 0 1 1.33.21c.61.42 1.3.74 1.89 1.15a4.09 4.09 0 0 1 1.41 2.72c.14.72 0 1.47.14 2.22s-.54 1.39-1.14 1.8c-1.19.78-2.19 1.88-3.84 1.43A3.37 3.37 0 0 1 43 9.62c-.16-.39-.12-.94-.65-1a1.18 1.18 0 0 0-1.2.74 11.57 11.57 0 0 0-1.42 4.44 10.1 10.1 0 0 0 1.73 5.78A4.68 4.68 0 0 0 45 21.72c1.6.13 3.22.64 4.86.1A11.83 11.83 0 0 0 54.71 19a32.12 32.12 0 0 1 4.13-3.53 4.46 4.46 0 0 1 3.35-.32c1.29.22 2.52.27 3.42-1a2 2 0 0 0-.93-3.31c-1-.46-2.06-.84-3-1.4a2.51 2.51 0 0 1-1.35-2.19q0-1.3 0-2.61c0-1.79 1.12-3 2.32-4.16a12.12 12.12 0 0 1 1.22-.84 1.29 1.29 0 0 1 1.48-.12c.5.29.36.76.26 1.24a3 3 0 0 0 3.14 3.41l3.4-.11a6.93 6.93 0 0 0 3.68-1 18.23 18.23 0 0 0 3.12-1.53 15.57 15.57 0 0 0 1.72-1.74 19.61 19.61 0 0 0 2.54-3.39c1.26-2.28 2.65-4.52 2.83-7.24a10.63 10.63 0 0 0 .21-2.92 2 2 0 0 1 .77-1.9 9.93 9.93 0 0 1 2.67-1.49A.93.93 0 0 1 91-16c-.46 1.95-.52 3.95-1 5.9a46.68 46.68 0 0 1-1.52 5.32A14.56 14.56 0 0 1 86.25-.9a82.68 82.68 0 0 1-5.52 6.73C79.4 7.24 78 8.55 76.57 9.9c-3.48 3.37-7.17 6.5-11 9.51a72.9 72.9 0 0 0-7.71 7l-4 4.28A34.89 34.89 0 0 0 48.17 39c-1 2.26-2.07 4.61-2 7.17a33.85 33.85 0 0 0 .74 7.09c.22.9-.13 1.88.46 2.72.11.16.18.31.39.32a11.69 11.69 0 0 0 2.11 6c1.31 2 3.48 2.9 5.33 4.21.61.43 1.27.78 1.9 1.17a4.41 4.41 0 0 0 2.63.79 27.8 27.8 0 0 1 3.32.37 19 19 0 0 0 6.11-1.1c3.32-.93 5.34-3.42 7.07-6.2a14.78 14.78 0 0 0 1.44-2.79c.34-.95 1.15-1.15 2.07-.69a6 6 0 0 1 1.8 1.6 1.17 1.17 0 0 1 .11 1.46 31.31 31.31 0 0 1-4.37 6.16 38.16 38.16 0 0 1-3.07 2.52c-1.63 1.28-3.56 2-5.3 3a3.35 3.35 0 0 1-1.6.42c-2.88.07-5.77.26-8.61-.47a14.46 14.46 0 0 1-3.75-1 19.12 19.12 0 0 1-4.73-3.06c-.94-1-2.22-1.57-3-2.77a34.31 34.31 0 0 1-3.75-7.42A30.07 30.07 0 0 1 42 47.41a27.48 27.48 0 0 1 1.2-6.36 43.87 43.87 0 0 1 3.8-8.44 3.07 3.07 0 0 1 .53-.75 14.93 14.93 0 0 0 2.56-3.06c.43-.74 1.27-1.08 1.83-1.71.25-.28.6-.59.47-1s-.65-.22-1-.23a1.82 1.82 0 0 0-.9.19 1.51 1.51 0 0 1-1.48.07.7.7 0 0 0-.54 0c-1.28.74-2.44.14-3.51-.42s-2.12-.68-3.06-1.29c-.13-.08-.3-.12-.39-.23-1.31-1.53-3-2.79-3.9-4.61-1-2.07-1.94-4.28-1.55-6.69a13.91 13.91 0 0 1 3.17-7.38c.07-.08.22-.08.34-.12A1.35 1.35 0 0 1 39 6.59a6.15 6.15 0 0 0-1.62 3.14c-.16 1-.47 1.9-.7 2.85a1.91 1.91 0 0 0-.11.54 15.61 15.61 0 0 0 1.16 5.64 5.52 5.52 0 0 0 .6 1 11.11 11.11 0 0 0 2.47 2.62c.45.31.39 1 .9 1.26l4.15 1.89c1 .45 2-.23 2.93 0a5.41 5.41 0 0 0 3.24-.43.85.85 0 0 1 1.14.26c.29.43.13.76-.16 1.17-.86 1.2-2.05 2.05-3 3.15A20.89 20.89 0 0 0 45.86 36c-.45 1.24-1.19 2.36-1.55 3.65-.49 1.77-1.41 3.42-1.37 5.33a.79.79 0 0 1-.09.36c-.74 1.47-.37 3-.38 4.56s.73 2.77.64 4.19c-.14 2.24.9 4.14 1.62 6.13a20 20 0 0 0 1.56 3.22c.64 1.1 1 2.46 2.16 3.13a6.06 6.06 0 0 1 1.95 1.67 4.4 4.4 0 0 0 2.24 1.37c.13.85 1 .68 1.49 1.06a4.7 4.7 0 0 0 2.8 1c0 .25.14.37.4.33h.54c.14.24.37.2.59.17h.72c2.35 1.11 4.84.9 7.28.63a11.05 11.05 0 0 0 4-1.46 35.21 35.21 0 0 0 6.21-3.93c.55-.47 1.59-1.1.54-2.11a.26.26 0 0 1 .06-.41c.25-.19.4 0 .53.16.3.48.83.68.88 0s.55-1.08.89-1.54 1-1.1.89-2c0-.26.19-.32.4-.42a.86.86 0 0 0 .22-1.48c-.25-.23-.55-.4-.8-.63-1.25-1.16-1.58-1.11-2.34.44a6.68 6.68 0 0 0-.29.68 10.41 10.41 0 0 1-1.78 3 31.38 31.38 0 0 1-3.08 3.29c-1.39 1.28-3.22 1.5-4.66 2.54a.48.48 0 0 1-.27 0 11 11 0 0 0-3.22.34 4.41 4.41 0 0 1-1.76 0 22.18 22.18 0 0 0-3.15-.27 4.57 4.57 0 0 1-2-.3A48.39 48.39 0 0 1 53 65.79a11.09 11.09 0 0 1-3.34-3 20.92 20.92 0 0 1-2-3.82c-.55-1.42-1.42-2.73-1.24-4.36a3.44 3.44 0 0 0-.07-.55 30.29 30.29 0 0 0-.63-3.45 39.08 39.08 0 0 1-.21-6.5c0-.25-.06-.53.14-.71 1.07-1 .88-2.46 1.59-3.62a19.84 19.84 0 0 0 1.62-3.28 20.35 20.35 0 0 1 3.63-4.83c.22-.21.47-.41.47-.76l5.65-6 5.11-4.6c.61-.5 1.09-1.34 1.66-1.58a13.12 13.12 0 0 0 4.67-4 16.42 16.42 0 0 1 2-1.62 29.19 29.19 0 0 0 3-2.35c1.49-1.7 3.16-3.2 4.74-4.8s3-3.53 4.64-5.22c.81-.85 1.09-2.17 2-2.8s1.17-1.88 1.54-2.77.64-2 1-3c.63-1.71.45-3.61 1.17-5.31a.55.55 0 0 0 0-.37 3 3 0 0 1 .25-2.32c.29-.66-.16-1-.64-.78a17 17 0 0 0-2.63 1.77.87.87 0 0 0-.3.85c.41 1.48-.13 2.86-.32 4.29a11.15 11.15 0 0 1-1.6 4.19 18.43 18.43 0 0 1-.92 2L82.1-1.12c-1.81 2.37-3.89 4.46-7 5.21-.5.12-.92.54-1.47.53-1.94 0-3.84.53-5.8.22a2.7 2.7 0 0 1-2.37-2.1c-.05-.35-.14-.76-.49-.84-.76-.19-.67-.4-.1-.73a.46.46 0 0 0 .23-.48c-.05-.48-.27-1-.79-.62a5.38 5.38 0 0 0-1.78 1.4A3.74 3.74 0 0 0 61 4.1a18.19 18.19 0 0 0 0 2.38 3 3 0 0 0 1.57 2.76c1.39.75 3 1 4.27 2 .55.48.68.83.37 1.39a8.3 8.3 0 0 1-1.27 2 3 3 0 0 1-2.82 1.18c-1.82-.32-3.82-.54-5.22 1.09-1 1.19-2.35 2-3.45 3.08A10.6 10.6 0 0 1 50 22.34c-1.88.61-3.81-.17-5.73 0-.09 0-.24 0-.26-.06-.38-.87-1.39-.83-2-1.48a8 8 0 0 1-2.42-4.42c-.41-2.63-.35-5.17 1.19-7.49a2.33 2.33 0 0 1 1.77-1c.59-.05.79.71.84 1.27a2.08 2.08 0 0 0 .8 1.36c1.24 1.19 2.33 1.2 3.4-.12a1.2 1.2 0 0 0 1.11-.55c1-.69 1.38-3.37.55-4.24 0 0-.11 0-.17-.05 0-1.35-1.08-1.66-2.05-2 0-.48-.35-.58-.75-.55h-.18a2.26 2.26 0 0 0-1.87.54 3.37 3.37 0 0 0-2.79 1.13 5.5 5.5 0 0 1-1.87.7zM172.4 43.24a.39.39 0 0 1 .37-.18.91.91 0 0 0 1 .11 4.58 4.58 0 0 1 2.88-.12c0 .57.7.61.75 1.12-.8.19-1 .6-.54 1.2a1.61 1.61 0 0 1 .35 1.2c0 .23-.05.47-.31.5s-.21-.24-.27-.4-.09-.58-.41-.5-.29.37-.31.63a1.37 1.37 0 0 0 .15.62 2 2 0 0 1-.26 2.38 1 1 0 0 0-.26.86 1.42 1.42 0 0 1-.24 1.06 4.59 4.59 0 0 0-.85 2.57c-.06.33.06.83-.13 1-1 .88-.93 2.39-1.89 3.29a1.7 1.7 0 0 0-.62 1.11l-.19.19a3.7 3.7 0 0 0-2 2.07 21.55 21.55 0 0 0-1 1.95c-.14.42-.56.35-.83.05-1-1-1.85-2.13-2.83-3.14a8.77 8.77 0 0 1-1.89-3.81 22.73 22.73 0 0 1-.43-3.39 6.1 6.1 0 0 1 2.63-6.24c1.2-.86 2.49-1.6 3.65-2.53a1.64 1.64 0 0 1 .92-.41 4.19 4.19 0 0 0 2.56-1.19zm-35.65 72.58l-.17-.17a1.13 1.13 0 0 0-.73-1.23c-1.61-.88-1.6-.9-1.33-2.52l.19-.19a1.06 1.06 0 0 0 1-.39 4.48 4.48 0 0 1 3.36-1.67 12.09 12.09 0 0 1 3.35.82c1.15.27 1.44 1.5 2.5 1.67 0 .85.87 1.06 1.29 1.6a6.13 6.13 0 0 1 1.54 3.09c.16 1.88.07 3.78 0 5.68 0 .56-.38.7-.83.44a6.51 6.51 0 0 0-2.41-.81c-.11 0-.3-.08-.32-.16-.34-1.24-1.78-.84-2.49-1.73-.5-.62-1.63-.75-1.35-2-.38.38-.69.69-1.17.58a.38.38 0 0 0-.19-.38 1.08 1.08 0 0 0-.75-.94l-.38-.38a.34.34 0 0 0-.38-.38.38.38 0 0 0-.19-.38.52.52 0 0 0-.57-.57zm2.24 1.12c.12.17-.17.62.23.63s.54-.38.51-.76 0-.73-.42-.7-.31.47-.31.83zM79.51 86.89a3.08 3.08 0 0 1 2.14 1.9c.37.94.95 1.77 1.31 2.71a8 8 0 0 1 .47 2.81 21.92 21.92 0 0 0 .13 3.53 2 2 0 0 0 1.7 1.83 13.43 13.43 0 0 0 6.79.14 3.15 3.15 0 0 0 2.41-2.19c.39-1.31.85-1.54 2.13-1.19a7.53 7.53 0 0 0 1.93.19c.93 0 1.33.58 1.21 1.51-.25 1.91-1.09 3.69-1.29 5.59-.27 2.57-1.63 4.7-2.67 6.94a10.34 10.34 0 0 1-3.93 4 31.88 31.88 0 0 1-9.84 4.19 33.51 33.51 0 0 1-8 1.06 13.64 13.64 0 0 1-4-.66 9.42 9.42 0 0 0-2-.5 4.21 4.21 0 0 1-1.93-1.14.72.72 0 0 1-.1-1 12.44 12.44 0 0 1 1.4-1.61c.33-.32.73-.15 1 .18a5.67 5.67 0 0 0 2.48 1.57 6.59 6.59 0 0 0 2.25.13c1.37.05 2.73 0 4.1 0 .41 0 .91.07 1.06-.38a1.23 1.23 0 0 0-.35-1.35 6.8 6.8 0 0 1-1.56-2.15c-.76-1.58.08-2.72.75-4a2.06 2.06 0 0 1 .39-.4c1.13-1.14 1.57-1 2.17.5a3.91 3.91 0 0 0 3.78 2.62 10.27 10.27 0 0 0 4.81-.69 17.88 17.88 0 0 0 4-2.61 12 12 0 0 0 3.35-5.12 7.09 7.09 0 0 1 .56-1.07 1.3 1.3 0 0 0-.27-1.55c-.38-.45-.79 0-1.15.16a13 13 0 0 1-6 2.08 7 7 0 0 1-4.5-1.63 7.48 7.48 0 0 0-3.73-1.52 9.37 9.37 0 0 1-6.09-3.08c-2.16-2.28-2.66-4.92-2.86-7.77-.08-1.11 0-2.24 0-3.36 0-1.7 1-2.24 2.4-1.41a10.17 10.17 0 0 0 2.11.69A3.31 3.31 0 0 1 77.83 86c-.43 0-1 .2-1.25-.14a2.24 2.24 0 0 0-2.16-.86 1.16 1.16 0 0 1-.81-.38c-.72-.61-1.17-.5-1.57.35s-.08 1.6-.2 2.39c-.33 2.21.85 4.17 1 6.3a.55.55 0 0 0 .2.41c.88.43.74 1.52 1.54 2.15 1.05.81 1.83 2 3.27 2.2a1.6 1.6 0 0 1 .76.32 3.42 3.42 0 0 0 2.18.63 5.44 5.44 0 0 1 1.72.3 18.6 18.6 0 0 1 3.49 1.87 5.39 5.39 0 0 0 5 .32c1.42-.58 3-.91 4.21-2 .44-.4.86-.36 1.17.27a3.62 3.62 0 0 1-.34 3.49 1 1 0 0 0-.33.74 1.76 1.76 0 0 1-.72 1.44 5.85 5.85 0 0 0-.64 1 6.64 6.64 0 0 1-2.18 2.35c-.74.37-.81 1.05-.14 1.51.2.13.37.29.25.53s-.38.2-.57.11a4.51 4.51 0 0 1-.7-.44 1 1 0 0 0-1.42 0 1.9 1.9 0 0 1-1.4.73 1.66 1.66 0 0 0-1 .42 1.73 1.73 0 0 1-1.73.41 15 15 0 0 0-2.4-.16 3.39 3.39 0 0 1-2.31-1 3.26 3.26 0 0 0-1.25-.87 2.35 2.35 0 0 0-.62-1.78c-.2-.27-.47-.38-.7-.12a5 5 0 0 0-1.18 1.6 4.52 4.52 0 0 0 .51 4c.1.62 1 .41 1.08 1a2.12 2.12 0 0 0 .72 1.46.61.61 0 0 1 .13.84c-.2.3-.48.12-.75.11-1.13-.05-2.25-.49-3.4-.09a1.54 1.54 0 0 1-.74 0 7.24 7.24 0 0 0-3.67.09c-.34.11-.83 0-.85-.13-.15-1-1.21-.87-1.64-1.48s-.76-.55-1.17 0a8.19 8.19 0 0 1-.65.66c-.16.16-.3.33-.21.58s.35.31.61.33c.41 0 1.08-.27.93.64 0 .16.26.33.43.27.8-.31 1.43.2 2.11.44.46.16.82.27 1-.35a.53.53 0 0 1 .66-.38c.4.13.37.43.24.76s0 .49.34.49a40.71 40.71 0 0 0 5.4-.08c2.63-.36 5.07-1.58 7.7-2a.75.75 0 0 0 .41-.2c.7-.78 2-.59 2.58-1.51.07-.1.35-.09.53-.08.71 0 .78-.28.54-.86a1.7 1.7 0 0 1 1.11-2.24c.23-.07.44-.08.58.13s0 .4-.17.55l-.85.86c-.14.15-.37.29-.25.55a.49.49 0 0 0 .64.23 1.72 1.72 0 0 0 .84-.37 51.82 51.82 0 0 1 2.63-2.71c1.69-1.63 2.23-3.84 3.11-5.83a20.52 20.52 0 0 0 .87-3.61l.89-3.86c.17-.76-.13-.94-.8-.95a3.74 3.74 0 0 1-1.65-.14c-1-.47-1.35-.35-1.67.78a2.36 2.36 0 0 1-.93 1.31 6.49 6.49 0 0 1-2.92 1.3c-.72.13-1.55-.07-2.18.6a.8.8 0 0 1-1-.11 2.42 2.42 0 0 0-1.61-.58c-2.45-.27-3.14-1.08-3.59-3.55-.2-1.11.14-2.16 0-3.22a11.44 11.44 0 0 0-2.15-5.51 15.74 15.74 0 0 0-1.24-1.33zM93.67-9.73a4.65 4.65 0 0 1 1.14-1.54 1.47 1.47 0 0 0 .34-1.2 21.27 21.27 0 0 1 .06-6.53 12.47 12.47 0 0 1 1.71-4.18 5.19 5.19 0 0 0 .49-1.49 4.46 4.46 0 0 1 3.42-2.84 3 3 0 0 1 2 1.09 4.55 4.55 0 0 1 1.23 2 18 18 0 0 0 1.74 4 3.18 3.18 0 0 1 .39 1.6l.09 5c0 1.26 0 2.47 1 3.29A17.54 17.54 0 0 1 109-8.86a11.29 11.29 0 0 1 2 4 10.11 10.11 0 0 0 .43 1.32 5.71 5.71 0 0 1 .57 2.35 31.68 31.68 0 0 0 1.35 7.88 25.62 25.62 0 0 0 1.51 3.88 12.7 12.7 0 0 0 5.44 5.6 3.42 3.42 0 0 1 .64.37.64.64 0 0 1 .14.69c-.06.28-.3.27-.52.27A16.27 16.27 0 0 1 116 17a11.26 11.26 0 0 1-4.6-2.06 22.14 22.14 0 0 1-3.89-4.67A45.27 45.27 0 0 0 105 6.08a5.21 5.21 0 0 1-1-1.94c-.38-1.45-1.15-2.73-1.65-4.12a5.08 5.08 0 0 1-.43-2.26 2.23 2.23 0 0 0-.22-1.27 1.47 1.47 0 0 1 0-1.35 1.33 1.33 0 0 0-.17-1.63 1.38 1.38 0 0 0-1.52-.4c-.65.2-.8.82-.91 1.41a1.34 1.34 0 0 0 0 .65c.64 1.94.12 3.71-.47 5.6a42.55 42.55 0 0 1-4 8.11 19.21 19.21 0 0 1-5.41 6.57 11.71 11.71 0 0 1-3.64 1.49 12.36 12.36 0 0 1-4.49.57c-.31 0-.73.17-.85-.33s.2-.75.6-.91a10.1 10.1 0 0 0 3.92-3.16 19 19 0 0 0 3.3-6.88 34.47 34.47 0 0 0 .79-5.68c.5-3.74 1.44-7.32 4.33-10.05a.66.66 0 0 1 .49-.23 1.35 1.35 0 0 1-.43.9 11 11 0 0 0-1.95 2.77A18.83 18.83 0 0 0 89.56.5c-.34 2.38-.32 4.84-1.43 7.06a4.79 4.79 0 0 0-.23.8 20 20 0 0 1-1.43 3.21A15.13 15.13 0 0 1 83.61 15 3.87 3.87 0 0 1 82 16.21c-.32.11-.74.22-.58.67s.56.18.88.18c.89 0 1.63-.62 2.48-.64 2.18 0 3.81-1.27 5.42-2.45a9.16 9.16 0 0 0 2.72-3.35c.57-1.15 1.5-2.06 2-3.27A9.32 9.32 0 0 1 96 5.25a8.83 8.83 0 0 0 1.72-3.6 6.9 6.9 0 0 1 .43-1.09A6.89 6.89 0 0 0 98.67-4a3.87 3.87 0 0 1 0-2.46 1.79 1.79 0 0 1 2-1.1c1.36.59 2 1.14 1.62 2.19-.43 1.33 0 2.69 0 4a1.47 1.47 0 0 0 .29.77 23.48 23.48 0 0 1 1.29 3.08c.48 1 1.62 1.8 1.41 3.14 0 .1.17.25.28.35a1.84 1.84 0 0 1 .47.78 24.79 24.79 0 0 0 2.11 3.68 12.69 12.69 0 0 0 2.11 2.68 10.14 10.14 0 0 0 3.17 2.5 22.16 22.16 0 0 0 3.81 1.09 10.52 10.52 0 0 1 2.08.38c.23.1.68.2.79-.22s-.25-.45-.5-.57-.26-.05-.35-.13c-.62-.54-1.61-.54-2.07-1.28-.56-.93-1.25-1.78-1.89-2.63a20 20 0 0 1-2.95-6.82c-.45-1.56-.46-3.24-.8-4.83-.26-1.19 0-2.42-.43-3.58l-1.26-3.37a9.89 9.89 0 0 0-2.35-3.27c-1.25-1.17-2.42-2.18-1.92-4.09.05-.2-.07-.43-.06-.64.1-1.57-.68-3.11-.14-4.7a1.21 1.21 0 0 0-.08-.9 12.29 12.29 0 0 1-1.18-2.78c-.13-.45-.81-.63-.74-1.14.13-.95-.45-1.46-1-2.07a2.1 2.1 0 0 0-2.86-.52 3.59 3.59 0 0 0-1.61 2.21 12.28 12.28 0 0 1-.89 2 9.08 9.08 0 0 0-1.31 3.62l-.19 6.46a2.77 2.77 0 0 1-1.85 2.44zm41.06 126.09c.86.53.9 1 0 1.45-2.16 1.11-4.31 2.1-6.91 2a48.35 48.35 0 0 0-5.17-.07 3.79 3.79 0 0 1-2-.42 4.61 4.61 0 0 0-1.16-.31 27.22 27.22 0 0 1-8.92-3.4 17.34 17.34 0 0 1-4.81-4.59 18.14 18.14 0 0 1-2-3.86 36.8 36.8 0 0 1-1.8-5.73 23.68 23.68 0 0 0-.56-3.43c-.19-.47.72-1.31 1.38-1.34a14.37 14.37 0 0 0 2.31-.16 1.11 1.11 0 0 1 1.41.91c.39 2 3.54 3.05 5.2 3a17.62 17.62 0 0 0 3.38-.26c1.67-.33 2.77-1.26 3-2.66a10.85 10.85 0 0 0-.08-1.65 12.75 12.75 0 0 1 2.23-7.68 7.09 7.09 0 0 1 3.54-2.55 12.31 12.31 0 0 0 2.92-1.33 3.1 3.1 0 0 1 2.38-.46.89.89 0 0 1 .82.88 12.36 12.36 0 0 1 .16 1.46c-.19 1.21.08 2.46-.43 3.64a4 4 0 0 0-.24 1.45c0 1.67-1 2.95-1.74 4.33a8.92 8.92 0 0 1-2.7 3.12 5.36 5.36 0 0 1-2.93 1c-.9 0-1.78.24-2.68.23a1.6 1.6 0 0 0-.92.39c-2.31 1.62-4.71 2.62-7.71 2.12a12.33 12.33 0 0 1-3.57-1.37 2.12 2.12 0 0 0-1-.41c-.33 0-.71-.1-.93.26s.13.56.25.83l.94 2.23a10.59 10.59 0 0 0 8.93 7.36 7.33 7.33 0 0 0 4.37-.3 4.5 4.5 0 0 0 2.21-2.48c.37-.86 1-1.14 1.69-.48a5.43 5.43 0 0 1 1.84 4.91 4.16 4.16 0 0 1-1.45 2.11c-.3.3-.72.58-.54 1.09s.69.54 1.17.53c1.51 0 3 .38 4.51 0 1.27-.36 2.66-.39 3.75-1.3.77-.64 1.15-.47 1.74.75-.32 0-.49-.24-.7-.41s-.61-.2-.69.12c-.2.79-.78.66-1.33.66s-1-.16-1.05.65c0 .37-.34.22-.59.17a3.89 3.89 0 0 0-1.45-.2 18.91 18.91 0 0 1-5.68-.06c-.68-.05-.75-.46-.5-1a8.57 8.57 0 0 1 1.09-1.49c.5-.64 1.33-1.13 1.37-2a5 5 0 0 0-1.53-3.84c-.22-.22-.39-.66-.8-.49s-.32.58-.41.89.12.86-.42 1a1.3 1.3 0 0 0-.91 1.17c-.09.49-.37.66-.79.4a1 1 0 0 0-1.22.06 3.36 3.36 0 0 1-2.82.33 23.11 23.11 0 0 1-3.21-.81 7.54 7.54 0 0 1-2.27-.93 11.51 11.51 0 0 1-4.64-5.7c0-.08-.1-.21-.15-.21-.83 0-.83-.39-.43-1 .14-.21 0-.49-.11-.71-.43-.79-1.12-1.5-.67-2.53 0-.06-.1-.22-.19-.3-.52-.42-.55-.77.1-1.09.15-.07.23-.28.35-.42h.19a.58.58 0 0 0 .38.39c.06.93.7 1.21 1.48 1.31.62.36 1.12.87 1.78 1.22a12.89 12.89 0 0 0 2.61.64 4.47 4.47 0 0 0 2.56.06 11 11 0 0 0 4.34-2.27 1.05 1.05 0 0 1 .68-.22 18 18 0 0 0 4.55-.77 5.82 5.82 0 0 0 3.47-3.21 4.31 4.31 0 0 1 .67-1.18c.44-.53.88-1.12 0-1.71-.4-.28-.1-.7 0-.91s.35.08.53.18c.63.35.68-.13.7-.54l.06-2.33c.07-1.38.65-2.71.19-4.17-.23-.74-.5-1-1.12-.72a11 11 0 0 1-2.78 1.11c-.16 0-.29.22-.42.36a1.66 1.66 0 0 1-1.16.51c-1.5.62-2.88 1.37-3.46 3a1.28 1.28 0 0 1-.26.57 3.2 3.2 0 0 0-.9 2.33 8 8 0 0 0-.59 4.06v1.3a2.44 2.44 0 0 1-1 2.09 9.57 9.57 0 0 1-5.07 1.48 11.84 11.84 0 0 1-4.21-.94 2.36 2.36 0 0 0-1-.34c-.12-.67-.91-1-.92-1.66 0-1.11-.68-1-1.37-.89a4.38 4.38 0 0 1-1.83 0c-.66-.12-1 .22-.89.88l.33 2.56c.47 1.16.53 2.43.88 3.62a.36.36 0 0 0 .08.17c1.06.94.83 2.43 1.56 3.57s1 2.3 1.79 3.36a16.06 16.06 0 0 0 4.67 4.09 29.32 29.32 0 0 0 3 1.49c.94.44 2.1.27 2.9.85 1.49 1.08 3.36.51 4.87 1.33a1.42 1.42 0 0 0 .44.16h7.08c.11 0 .21-.11.32-.16 1.1-.63 2.69-.2 3.47-1.57.05-.09.29-.11.43-.1 1 .09 1-.39.77-1.13z"/><path class="Bh" d="M153.79 54.3l-.82 2.56c-.21.51-.72.49-1.11.21-3.08-2.15-6.59-2.73-10.23-3.06a62.16 62.16 0 0 0-6.77-.31 33.92 33.92 0 0 0-7.17.82 27.92 27.92 0 0 0-6.81 2.48 24 24 0 0 0-6.29 4.88c-1.35 1.45-3 2.7-3.86 4.49-.81 1.63-2.1 3-2.57 4.79s-1.65 3.45-2.15 5.3a17.36 17.36 0 0 0-.95 3.65 2.63 2.63 0 0 1-1.34 2.11 1.21 1.21 0 0 1-1.47-.14c-.51-.41-1.16-.73-.88-1.55.64-1.84.59-3.8 1.26-5.66a46.28 46.28 0 0 1 2.36-6.3 53.3 53.3 0 0 1 5.46-8.58 22.52 22.52 0 0 1 5.46-4.82c1.43-.91 3-1.58 4.45-2.44a10.69 10.69 0 0 1 2.85-1.29 30.36 30.36 0 0 0 3.85-1.27 18.53 18.53 0 0 1 2.37-.43 29.36 29.36 0 0 1 8.19-.57 27 27 0 0 1 5.83.79c3 .75 5.95 1.7 8.89 2.64a2 2 0 0 1 1.45 1.63zm-34.66 2.23c.5.32 1.06.55 1.39.27.7-.6 1.31-1.27 2.35-1.13 0 0 .14-.08.14-.11-.08-1.22.73-.57 1.2-.55s.93 0 1.16-.24c.69-.78 1.61-.67 2.47-.8 3.44-.52 6.84-1.29 10.39-.87s7.19.65 10.64 1.81a8.83 8.83 0 0 1 3 1.5c.2.17.39.33.66.18a.55.55 0 0 0 .26-.56 8.58 8.58 0 0 1-.08-1.55c.08-.63-.13-.9-.68-1.22a17.5 17.5 0 0 0-3.31-1.13c-.9-.31-1.78-1.09-2.64-1-1.77.22-3.19-.85-4.89-1l-4.49-.34a29.78 29.78 0 0 0-9.43 1C125.84 51.2 124.5 52 123 52a.59.59 0 0 0-.35.11c-.93.81-2.2 1-3.21 1.71s-2.5 1.14-3.58 1.94a21 21 0 0 0-4.29 3.72c-1.35 1.69-2.5 3.5-3.77 5.23-.67.91-.93 2-1.65 2.87s-1.8 2.08-.9 3.58c.09.14.07.66-.26.49-1-.49-.72.38-.8.7a1.47 1.47 0 0 1-.46.87 1.39 1.39 0 0 0-.51 1.32 2.43 2.43 0 0 1-.37 1.78 2.9 2.9 0 0 0-.55 1.82 9.89 9.89 0 0 1-.15 1.94 1.43 1.43 0 0 0 1.08 1.76c.71.07 1.25-.64 1.32-1.58a15 15 0 0 1 1.17-4.24 7.57 7.57 0 0 0 .58-2.21c0-.63-.68-1.41.68-1.28.15-.87 1-1.37 1.1-2.29a1.86 1.86 0 0 1 .26-1c1.46-1.9 2.43-4.12 4-5.94.45-.51.57-1.11 1.41-1.39s1.3-1.1 1.82-1.78a11.38 11.38 0 0 1 3.13-2.48c.63-.33.72-.49.43-1.12zm-12.21-11.4c-.4 1.81-.79 3.82-2.16 5.35a13.78 13.78 0 0 0-3 4.89 1.7 1.7 0 0 1-.66.87c-.5.36-1 .49-1.32-.26a21.79 21.79 0 0 0-2.27-4.42 8.37 8.37 0 0 1-1.23-1.73c-1.08-2.49-1.91-5-.53-7.66A2.7 2.7 0 0 1 97 40.72c.51-.23.77-1.07 1.08-1.67.68-1.3 1.68-2.43 1.86-4 .08-.68.51-.61 1.07-.19 1.32 1 2 2.5 3 3.71a11.87 11.87 0 0 1 2.88 6.55zm-10.66-.54l.31 2.62a1.44 1.44 0 0 0 .73 1.29c.27.14.31.52.47.78.46.77.55 1.69 1.07 2.43s1 1.55 1.49 2.34c.11.19 0 .55.37.53s.41-.34.47-.61a6.27 6.27 0 0 1 1.44-2.75 3.26 3.26 0 0 0 .79-1.22 17.38 17.38 0 0 1 1.6-3.08 3.12 3.12 0 0 0 .21-2.68 5.22 5.22 0 0 1-.64-1.6c0-1.37-1.23-2.05-1.62-3.21s-1.84-1.81-1.65-3.31c0-.34-.36-.49-.63-.61s-.37.17-.36.32c0 1-.61 1.66-1 2.42a31 31 0 0 1-2.08 3.56 4.72 4.72 0 0 0-.96 2.78zM56 107.23c-1.31-.33-2.76 0-4.23.13a6.45 6.45 0 0 0-2.77 1.27c-2.29 1.32-4.32 3.07-6.52 4.53a8.73 8.73 0 0 1-7.29 1.46 8.21 8.21 0 0 1-3.05-1.72c-2.47-2.08-3.5-5-4.4-7.89a4.3 4.3 0 0 0-.61-1.23 1.06 1.06 0 0 1 0-1.22.78.78 0 0 1 1.07-.31c2.57 1.18 4.7 0 6.76-1.29a16.76 16.76 0 0 1 7.67-2.35c1.25-.13 2.54-.17 3.76-.4 1.54-.3 2.75.41 4 .94A14.13 14.13 0 0 1 55 102.9a16.91 16.91 0 0 1 2.13 2.78c.57 1 .21 1.57-1.08 1.56zM35.66 114a14.61 14.61 0 0 0 1.47.51c.3.07.79.23.88-.2s-.49-.19-.69-.39c0 0 0-.11-.06-.21a1.89 1.89 0 0 1 1.16.08 2.25 2.25 0 0 0 2.73-.63.57.57 0 0 1 .37-.24c1.08.06 1.69-.84 2.48-1.31.56-.33 2-.95.37-1.94-.29-.18 0-.49.33-.51a.71.71 0 0 1 .68.39c.31.49.68.43 1.09.1a6.5 6.5 0 0 1 3.39-1.85.48.48 0 0 0 .44-.51c0-.2-.23-.2-.37-.18-1.29.21-1.88-.67-2.48-1.56a3.18 3.18 0 0 1 0-3.06 2.49 2.49 0 0 1 2.63-1 2.15 2.15 0 0 1 2.13 1.3c.38 1.11.74 2.32-.37 3.33-.22.2-.8.26-.57.69s.63.1 1 .12a.92.92 0 0 0 .54-.1 2.88 2.88 0 0 1 2.92-.15c.26.1.59.18.76-.11a.65.65 0 0 0-.14-.85c-1-.76-1.43-1.9-2.26-2.79a17.93 17.93 0 0 0-4-3.26 8.79 8.79 0 0 0-3.09-.94.23.23 0 0 0-.29.17.88.88 0 0 1-1.32.45 6.62 6.62 0 0 0-3.27-.16c-2.78.13-5.14 1.39-7.5 2.66-1.25.68-2.43 1.45-4 1.3l-2.59-.21c-.39 0-.79.09-.44.56a12.38 12.38 0 0 1 1.41 3.83c.38 1.17 1.16 2.08 1.6 3.2a2.05 2.05 0 0 0 1.31 1.18 4 4 0 0 0 3.75 2.29zm14-12.12a2.36 2.36 0 0 0-2.06 1.89c0 1.41 1.17 2.9 2.3 2.93a2.73 2.73 0 0 0 2.16-2.32 2.39 2.39 0 0 0-2.39-2.55zm15.19-25.41c.49-.06.65.14.66.58a1.28 1.28 0 0 1-.59 1c-1.83 1.66-2 3.8-1.9 6.08a18.94 18.94 0 0 0 .66 3.27 10.34 10.34 0 0 0 1.5 3c1.43 2.23 3.26 4.18 4.41 6.62.69 1.46 1.86 2.67 2.54 4.18a8.91 8.91 0 0 1 .57 6.61 25.43 25.43 0 0 1-2.16 4.59c-.2.36-.36.82-.94.75s-.64-.54-.79-1a6.4 6.4 0 0 0-2.81-3.49 19 19 0 0 0-4.52-1.88 9.18 9.18 0 0 1-6.06-5.33 25.21 25.21 0 0 1-1.88-8.9l-.23-4.15c0-1.84-.32-3.8.57-5.56a9.75 9.75 0 0 1 5.82-4.94c1.7-.56 3.48-1 5.18-1.42zm-2.16 4.1c0-.37.42-.57.38-.95a3.68 3.68 0 0 1 1-1.51.48.48 0 0 0 .2-.57c-.12-.24-.38-.14-.59-.12a9 9 0 0 1-1.09.14c-.57 0-.7.27-.63.75s-.28.65-.77.44c-1.47-.61-1.47-.6-2.47.52a.34.34 0 0 1-.42.1c-.52-.19-.85.13-1.12.46-.84 1-2.14 1.65-2.73 3a3.49 3.49 0 0 0-.53 1.69c.13 1.83-.24 3.64-.08 5.51a65.67 65.67 0 0 0 .67 6.82c.11.56.13 1.24 1 1.32.48 0 .65 1.16.21 1.28-1.08.3-.59.69-.2 1.19a4.93 4.93 0 0 1 .6 1 8.41 8.41 0 0 0 4.28 4.4 2.32 2.32 0 0 0 2.54-.32c.25-.19.51-.29.73 0s0 .41-.21.5-.55.1-.51.43.46.43.73.45a6 6 0 0 1 2.71 1.3 6.83 6.83 0 0 1 3 3.68c.06.2.16.43.42.45s.28-.26.41-.42a20.7 20.7 0 0 0 1.37-2.6 3.79 3.79 0 0 0 .62-2.66c-.15-.66-.41-1.16.33-1.61.19-.12.1-.46-.06-.68a2.83 2.83 0 0 1-.42-1.87 1.72 1.72 0 0 0-.24-1.16 26 26 0 0 0-1.44-2.36 3.77 3.77 0 0 1-1-1.69c-.17-1.19-1.07-1.85-1.65-2.72A54.26 54.26 0 0 1 64 89.37a15.55 15.55 0 0 1-1.68-7.13 4.11 4.11 0 0 0 .38-1.67zm24.47-23.9a11.52 11.52 0 0 1 3.49 3.12 40.94 40.94 0 0 1 4.09 5.92 33.85 33.85 0 0 1 3.32 7.69l1.54 5.61a5 5 0 0 1 .22 1.65c0 .75-.07 1.56-1 1.74a2 2 0 0 1-2.33-1.4c-.39-1.94-1.15-3.76-1.66-5.67a27.64 27.64 0 0 0-3.05-7.22 38.44 38.44 0 0 0-4-5.09 25.42 25.42 0 0 0-6.9-5.85 30.71 30.71 0 0 0-6.17-2.39A33.57 33.57 0 0 0 68 54c-1.33-.12-2.59.21-3.9.1a36 36 0 0 0-4 0c-3.05.08-5.92 1.08-8.81 1.9-.47.13-.77.64-1.28.72a1.34 1.34 0 0 1 1-1.14c.71-.31 1.47-.45 2.2-.71a25.93 25.93 0 0 1 8.76-1.3c2.5 0 5-.42 7.49-.24a6.43 6.43 0 0 1 1.9.15c1.58.61 3.3.54 4.89 1.16A32.58 32.58 0 0 1 79.8 56a20.24 20.24 0 0 1 4.2 2.69 19.36 19.36 0 0 1 2.35 2 13 13 0 0 0 3.51 3.5.34.34 0 0 1 .19.46c-.15.35.11.53.31.7 1.21 1 1.64 2.56 2.52 3.78a12.6 12.6 0 0 1 1.42 3 20 20 0 0 1 1.24 3.51 4 4 0 0 0 .14.91 21.32 21.32 0 0 1 1.16 4 1.45 1.45 0 0 0 2 1.12c1-.27.73-1.08.6-1.7-.51-2.46-1.57-4.78-1.92-7.28a2.22 2.22 0 0 0-.2-.52 37.77 37.77 0 0 0-1.57-3.67c-.61-1.1-.84-2.47-2-3.22a18.16 18.16 0 0 0-3.73-5.41 3.84 3.84 0 0 0-1-1.37c-.58-.61-1.47-.92-1.78-1.79zm58.73 41.81c-.18-.78.78-.63.92-1.15l.19-3.53a10.18 10.18 0 0 0 .69-3.78c.15-2.34.32-4.73-.87-6.91a16.25 16.25 0 0 0-2.35-2.78 7 7 0 0 0-2.42-1.57 41 41 0 0 0-5-1.74.47.47 0 0 0-.42.1c-.14.19.05.34.18.46a3.83 3.83 0 0 0 .76.68 1.73 1.73 0 0 1 .9 1.25 15.38 15.38 0 0 1 .29 5.38 27.72 27.72 0 0 1-1.61 5.1 8.18 8.18 0 0 1-2.15 3.37c-.58.48-.47 1.41-1.22 1.75l-1.11 1.5a1.5 1.5 0 0 0-.75.93 19.49 19.49 0 0 0-2.4 4.84c-.47 1.35-1.06 2.63-.58 4.1.81 1.77 1 3.73 1.68 5.53.14.36.34.72.74.74s.33-.45.48-.7a14.27 14.27 0 0 1 1.63-2.54 1 1 0 0 1 .89-.41A11.74 11.74 0 0 0 132 113c-.21.59-1 .5-1.38-.16a8.71 8.71 0 0 1-.75-1.58 30.2 30.2 0 0 1-1.55-5.58 6.44 6.44 0 0 1 .64-3.41c1-2.32 1.75-4.77 3.74-6.53a4.29 4.29 0 0 0 .86-1.21c.83-1.55 2-2.86 2.95-4.34a14.31 14.31 0 0 0 1.75-4.84 12 12 0 0 0-.1-5.15 3.2 3.2 0 0 0-1.25-1.94l-.76-.54a.72.72 0 0 1-.24-.84c.1-.32.4-.24.63-.24a7.49 7.49 0 0 1 1.57.14 15.4 15.4 0 0 1 8.16 4.44 5.81 5.81 0 0 1 1.92 4.14 48.32 48.32 0 0 1-.24 7.3 42.38 42.38 0 0 1-.83 5.16 30.33 30.33 0 0 1-2 5.3 4.27 4.27 0 0 1-1.47 1.54 18 18 0 0 1-3.67 1.88c-1.19.43-2.52.61-3.54 1.5-.22.19-.47.47-.8.13a3.66 3.66 0 0 1 2.3-1.3c.82-.15 1.58-.74 2.48-.83a.48.48 0 0 0 .44-.51c0-.27 0-.5.38-.53.31.13.62.36.93 0a6.24 6.24 0 0 0 2.78-2.81c0-.35 0-.75.24-1 .93-.73.71-1.74.7-2.71zm22.96-14.3a15.83 15.83 0 0 1-2.14 8.3 10.91 10.91 0 0 1-3.55 3.34 7.25 7.25 0 0 1-5.59.89 8.48 8.48 0 0 0-3.59 0 2.57 2.57 0 0 1-.81.17 3.79 3.79 0 0 0-3.27 1.18 1.86 1.86 0 0 1-.79.47c-.47.13-.84 0-.7-.61a4.14 4.14 0 0 1 .47-1.49c.58-.86.37-1.92.53-2.89a20.36 20.36 0 0 0 .23-2.58 15.15 15.15 0 0 1 2.18-7.91 9.32 9.32 0 0 1 2.13-2.18 35.3 35.3 0 0 0 4.31-3.5c1.35-1.49 2.37-3.14 2-5.32-.07-.51-.37-1.29.37-1.57s1 .47 1.43.9a43.93 43.93 0 0 1 3.18 3.81 17.7 17.7 0 0 1 1.63 2.59 14 14 0 0 1 1.94 6.33zm-5.6 10.55c1.06 0 1.44-.89 2.13-1.42a4.17 4.17 0 0 0 1.6-3.43c.45-.26.9-.64.88-1.13a40.72 40.72 0 0 1 .43-4.13.83.83 0 0 0 0-.46 4.12 4.12 0 0 1-.35-2.25c0-.52 0-1.19-.45-1.43s-.46-.66-.48-1.07c0-.21 0-.5-.08-.63-.9-1-1.31-2.35-2.16-3.39-.65-.79-1.09-1.79-2.06-2.31-.34-.54-.92-.9-1.16-1.53-.09-.25-.29-.54-.62-.42a.51.51 0 0 0-.24.71c.54 1 .09 1.95 0 2.92a8.74 8.74 0 0 1-2.39 3.53 40.28 40.28 0 0 1-4 3c-.43.29-.45.81-.83 1.07a7.11 7.11 0 0 0-2.69 4.43c-.53 2.12-.43 4.35-.93 6.48-.47 1.3.33 2.87-.88 4a.5.5 0 0 0 0 .68c.21.17.43-.08.55-.22a4.24 4.24 0 0 1 2.63-1.27l.07-.06a3.49 3.49 0 0 0 1.19-.09 7.37 7.37 0 0 1 5.06-.18c1.98.52 3.53.26 4.79-1.4zM45.66 96.56c-.91.46-2 .12-3 .16a8.16 8.16 0 0 1-4.76-.82 7.18 7.18 0 0 1-2.36-2.15 16.38 16.38 0 0 1-2.51-5 13.19 13.19 0 0 1 0-6.72 19.23 19.23 0 0 1 2.62-5.77 33.23 33.23 0 0 1 4.2-5.26c.19-.18.43-.44.73-.26a1.06 1.06 0 0 1 .42 1.17c-.51 1.58.22 2.93.73 4.29a6.35 6.35 0 0 0 2.11 2.3c1 .89 2.36 1.28 3.42 2.15a12.39 12.39 0 0 1 3.15 4.51 16.19 16.19 0 0 1 1.3 7 5.57 5.57 0 0 0 .64 2.84c.42.72.17 1.59.46 2.35.08.2.06.46.18.61.33.43.09.69-.21.93a.59.59 0 0 1-.9-.17C50.7 97.15 49 97 47.23 96.78l-1.57-.22zM51 89.33a10.59 10.59 0 0 0-1.49-4.95 11.61 11.61 0 0 0-3.9-4.22C43.83 79 41.86 78.18 41 76a5.86 5.86 0 0 1-.39-3.62c.08-.32.18-.63-.14-.84s-.49.14-.74.3c-.85.57-.8 1.91-1.95 2.19-.27 1.3-1.47 2-2.1 3A22.62 22.62 0 0 1 34 79.92a1 1 0 0 0-.22.88 2.45 2.45 0 0 1-.37 1.94 3.73 3.73 0 0 0-.41 1.69 15.17 15.17 0 0 0 .55 3.84 10.42 10.42 0 0 0 3.17 5.82A5.91 5.91 0 0 0 41 96a42 42 0 0 0 4.47-.11 1.65 1.65 0 0 1 1.18.11 3.28 3.28 0 0 0 2.22.43c.9.4 2 .29 2.68 1.26.11.16.27.42.51.32s.16-.43.15-.66-.13-.35-.16-.52c-.15-1.07-.8-2-.91-3.06-.14-1.48.08-2.97-.14-4.44z"/><path class="Bh" d="M163.55 114.91c-1.15.19-2.42-.61-3.77-1.12a13.86 13.86 0 0 1-4.78-3.45 15.6 15.6 0 0 0-3.18-2c-1.58-1-3.36-1.1-5-1.68-.18-.06-.29.08-.41.16a2.26 2.26 0 0 1-1.44.24c-.77 0-1.08-.51-.73-1.19a9.28 9.28 0 0 1 2.08-2.59c1.23-1.12 2.36-2.35 3.69-3.36a3.45 3.45 0 0 1 1.36-.73 3.3 3.3 0 0 0 1.67-.75 1 1 0 0 1 .95-.29c1.23.33 2.48 0 3.7.19a17.42 17.42 0 0 1 5.07 1.12c1.92.88 3.82 1.83 5.81 2.54a6.36 6.36 0 0 0 4.59.36c.52-.2 1.23.59 1 1.15-.92 2.58-1.62 5.27-3.21 7.54a8.53 8.53 0 0 1-7.39 3.89zm10.12-11.54c-.21-.59-.69-.45-1.09-.39a7.93 7.93 0 0 1-4.47-.54c-2.21-1-4.3-2.2-6.57-3a2.27 2.27 0 0 0-.62-.18 21.24 21.24 0 0 1-4.7-.36c-.79-.22-1.55.41-2.54.1s-2.12.45-3 1a19 19 0 0 0-4.61 4.31c-.26.35-.07 1-.72 1.09-.43.08-.77.47-.51.9s.64.16 1 0 .88-.5 1.4-.23c1.32.68 2.85.68 4.17 1.51a29.64 29.64 0 0 1 3.52 2.06c1.19 1 2.16 2.23 3.61 2.88a6.07 6.07 0 0 1 1.18.54c1.41 1.05 3.12 1.08 4.73 1.45.22.05.64.07.6-.24-.15-1.17.61-.7 1-.54a1.77 1.77 0 0 0 2-.42 15 15 0 0 0 3.22-3.92 6.37 6.37 0 0 0 1.25-3.13 1.69 1.69 0 0 1 .47-1.42 4.18 4.18 0 0 0 .68-1.47zm-62.34-63.85a7.78 7.78 0 0 1-5.76-2.17 14 14 0 0 1-2.78-4.43 9 9 0 0 0-1.68-3.05c-.57-.53-.9-.53-1.25.19l-2.73 5.48c-1.42 2.71-3.88 3.71-6.75 4a3.52 3.52 0 0 0-1.25.3c-.45.22-.76 0-1.05-.36a.55.55 0 0 1 .11-.83c2-1.91 2.31-4.52 3-7a12.4 12.4 0 0 1 2.57-5.33 19.45 19.45 0 0 1 3.91-3.26c.16-.1.33-.17.48-.28 2.09-1.5 2.57-1.56 4.65-.2a22.72 22.72 0 0 1 5.88 5.05 1.91 1.91 0 0 1 .45.8 32.32 32.32 0 0 0 .92 3.18 30.82 30.82 0 0 0 1.9 5.68 4 4 0 0 0 .65.78c.26.32.54.65.39 1.09s-.67.33-1 .36h-.64zm-12.23-17a.82.82 0 0 0-.58.72 1.11 1.11 0 0 0-.92.39c-.76.55-1.45 1.21-2.19 1.76a9.65 9.65 0 0 0-3.49 5.66c-.31 1.25-.57 2.53-1 3.75s-.69 2.75-2 3.58a.48.48 0 0 0-.22.64c.07.15.27.3.36.21.69-.7 1.6-.16 2.36-.45s1.8-.53 2.69-.88a4.85 4.85 0 0 0 2.47-2.36l3.17-6.16c.33-.56.65-.67 1.18-.27 1.65 1.24 2.21 3.22 3.08 4.92a12.69 12.69 0 0 0 1.57 2.6A7.48 7.48 0 0 0 112 39c.49 0 .56-.22.23-.55a4.37 4.37 0 0 1-.89-1.28c-1.05-2.31-1.4-4.86-2.42-7.18a1.42 1.42 0 0 1-.14-.72 1.1 1.1 0 0 0-.77-1.28.88.88 0 0 0-.29-.75 25.6 25.6 0 0 0-2.89-2.61c-.59-.39-1.15-1.11-2.05-.94a1 1 0 0 1-.74-.37c.23-.39.16-.62-.31-.74a4.4 4.4 0 0 0-2.63-.01zm38.03 17.97a4.48 4.48 0 0 1-2.52 4.61 1.05 1.05 0 0 1-.42.17 5.59 5.59 0 0 1-3.69-1 5.8 5.8 0 0 1-2.09-3.49 1.37 1.37 0 0 1 .18-.88 1.22 1.22 0 0 0 0-1.47 1.32 1.32 0 0 0-1.73 0 20 20 0 0 0-3.88 3.84 12 12 0 0 0-2 3.92 5.64 5.64 0 0 0 0 3.45c.24.64-.27 1.12-.74 1.46l-1.51 1.07a1.24 1.24 0 0 1-2.06-1.08 30.55 30.55 0 0 1 .12-5 15.29 15.29 0 0 1 2.92-7.18 18.57 18.57 0 0 1 2.7-2.49 15.52 15.52 0 0 1 3.91-2.42 6.26 6.26 0 0 1 4.25-.52 3.16 3.16 0 0 0 .74 0 4.86 4.86 0 0 1 4.81 3.08 7.38 7.38 0 0 1 1 3.86zm-.74-1.71a18.66 18.66 0 0 0-1.64-3.19c-1.59-2-3.87-1.69-5.78-1.69a5.08 5.08 0 0 0-5 2.84.35.35 0 0 1-.41.16c-1.56-.31-2.18 1.13-3.13 1.82-1.13.82-1.19 2.53-2.19 3.58a.73.73 0 0 0-.1.26 24.21 24.21 0 0 0-.68 2.57 27.75 27.75 0 0 0-.31 6.1c0 .46.38.93.73.74a7.48 7.48 0 0 0 2.38-1.47.9.9 0 0 0 .18-.79 6.88 6.88 0 0 1 .81-5.78 21 21 0 0 1 5.18-5.93 2.63 2.63 0 0 1 2.38-.18 1.39 1.39 0 0 1 .35 2 1.14 1.14 0 0 0 .23 1.51.79.79 0 0 1 .29.56 2.52 2.52 0 0 0 .1.54c.74 1.76 2.13 2.21 3.91 2.09a2.86 2.86 0 0 0 2.72-2.52 11.9 11.9 0 0 0-.03-3.22zM84.7 49v2.14c0 1.23-.49 1.57-1.59 1.08s-2.4-.87-2.47-2.42a12.83 12.83 0 0 1 .17-1.47c.16-2.17-.94-3.91-2-5.66A13.45 13.45 0 0 0 74 38.29c-.35-.22-.78-.53-1.19-.28s-.45.76-.45 1.25a7 7 0 0 1-.49 3.74 4.63 4.63 0 0 1-5 2 4.31 4.31 0 0 1-2.3-1.57c-.78-1.11-.58-2.31-.5-3.5a7 7 0 0 1 1.53-4 5.82 5.82 0 0 1 3.87-2.32A11.57 11.57 0 0 1 77 35.27a15.54 15.54 0 0 1 5 4.23 14.63 14.63 0 0 1 2.7 9.5zm-.55-2.77a8.68 8.68 0 0 1-.74-2.49 2.2 2.2 0 0 0-.24-1.34l-1.69-2.59c-.62-.82-1-1.64-2-2-.19-.28-.38-.54-.76-.55-.37-.26-.62-.68-1.11-.75-.07-.6-.52-.55-.94-.55a6.25 6.25 0 0 0-2.9-1.46 11.73 11.73 0 0 1-2-.43 5.22 5.22 0 0 0-3.86.52A4 4 0 0 0 66.07 36c-.63 1.11-1.42 2.19-1.13 3.61a.74.74 0 0 1-.11.44 3.16 3.16 0 0 0 .9 3.64c.74.65 1.63.48 2.4.85a2.81 2.81 0 0 0 3-1.86 1.16 1.16 0 0 0 .58-.79 11.17 11.17 0 0 0 .15-3c0-1.42.32-1.63 1.68-1.34a2.79 2.79 0 0 1 1.51.79c.14.21.35.18.56.18a17.2 17.2 0 0 0 1.92 1.68 11 11 0 0 1 2.9 4.5c.19.49.32 1 1 1.11a13.8 13.8 0 0 1-.13 1.93c-.39 2.37.13 3.3 2.11 4.08.53.21.87.17.82-.5-.11-1.36.2-2.7.18-4.06a2 2 0 0 0-.25-1.02zM100.54 89a13.82 13.82 0 0 1-4.31-.29c-2-.43-4.2-.83-5.5-2.88-.45-.71-1.18-1.21-1.46-2.09-.71-2.23-.37-3.2 1.61-4.57.51-.35.9-.82 1.61-.81 1 0 1.65.42 1.7 1.45s.45 2.06.07 3.13c-.19.54.13 1 .75 1 2.16.28 4.28.9 6.49.74a32.26 32.26 0 0 0 4.84-.73.65.65 0 0 0 .58-.79 10.24 10.24 0 0 1 .42-3.27c.29-1.41 1.14-1.77 2.42-1.18 2.33 1.09 3 2.64 2 5.11a7.36 7.36 0 0 1-1.67 2.65 7.72 7.72 0 0 1-2.77 1.53 18.68 18.68 0 0 1-6.78.92zm-3.13-.69a9.2 9.2 0 0 1 2.83.14 26.67 26.67 0 0 0 4.54-.26 7.84 7.84 0 0 0 4.8-1.89 11.2 11.2 0 0 0 1.67-2.62c.86-1.45.25-4-1.63-4.33-1.49-.27-2.09-.22-1.63 1.57a.73.73 0 0 1 0 .53 1.68 1.68 0 0 0-.16 1.5 1.23 1.23 0 0 1-.91 1.52 14.83 14.83 0 0 1-3.36.58 46.29 46.29 0 0 1-8.35-.35 1.74 1.74 0 0 1-1.44-2.17 9.61 9.61 0 0 0-.14-2.93c0-.43-.57-.62-1-.68a7.25 7.25 0 0 0-2.71 1.57c0 1-.52 1.87-.07 2.9a10.46 10.46 0 0 0 1.95 2.77c1.44 1.65 3.54 1.91 5.6 2.11zM39.13 53.26c.44 1.93-.4 3.68-.9 5.48a7.24 7.24 0 0 1-1.76 2.59c-1 1.23-2.14 2.4-3.22 3.59-.53.59-1.12.44-1.37-.34a12.42 12.42 0 0 0-.76-2.43 13.77 13.77 0 0 0-2-2.23 15.41 15.41 0 0 1-2.54-4.67c-.7-1.79-.83-3.74-1.52-5.51-.85-2.21-1.74-4.43-3.84-5.84a1.2 1.2 0 0 1-.64-1.06c0-.51.16-.69.7-.72a27.39 27.39 0 0 1 5.84.27A14.13 14.13 0 0 1 32 44.16a46.73 46.73 0 0 1 4.64 3 6 6 0 0 1 2.54 6.11zm-1.41 4a2.33 2.33 0 0 0 .91-1.33 7.15 7.15 0 0 0 0-2.83 3 3 0 0 1 .07-1.37 1.19 1.19 0 0 0-.29-1.18 1 1 0 0 0-.56-.57 3.36 3.36 0 0 0-1.7-2.4c-.62-.44-1.07-1.27-2-1.15l-1-.89A4.85 4.85 0 0 0 31 44.32c-.63-.08-1.32.19-1.55-.74-.05-.22-.45-.15-.69-.14-.9 0-1.71-.95-2.67-.24 0 0-.11 0-.16-.08a6 6 0 0 0-1.85-.57c-.33-.11-.82-.2-1 .19-.27.55-.38.93-.87.12a.82.82 0 0 0-1.17 0c-.35.44.26.58.52.78a3.63 3.63 0 0 1 .92.77c.24.37.46.51.75.05.12-.19.33-.35.54-.15s0 .34-.16.45a.65.65 0 0 0-.1.92 15.71 15.71 0 0 1 1.27 2.43.66.66 0 0 0 .6.38 3.71 3.71 0 0 0 .31 1.82 6 6 0 0 1 .65 3.13.38.38 0 0 0 .36.45 4.33 4.33 0 0 1 .41 1.67 1.91 1.91 0 0 0 1.08 1.69c0 1.2 1.07 1.79 1.65 2.65a.61.61 0 0 0 .71.29c.36-.13.21-.46.25-.71.44 0 .68.22.53.6a1.49 1.49 0 0 0 .58 1.92.81.81 0 0 1 .22.67 10.9 10.9 0 0 0 0 1.2c0 .38.35.6.66.36a5.75 5.75 0 0 0 2.12-2.13.54.54 0 0 0 .56-.56c.7-.07.64-.82 1-1.19a3.24 3.24 0 0 0 1.25-3.1zm23.91 51.85c2.08-.29 3.57.81 5 2.06a2.78 2.78 0 0 1 1.17 1.46c.25 1.08.15 1.74-.87 2-1.75.37-2.59 1.66-3.39 2.94a11.89 11.89 0 0 1-3 3 20.79 20.79 0 0 1-6 3.21c-.7.24-1.55-.18-1.51-.87.06-1.38-.43-2.69-.42-4.05a9.84 9.84 0 0 1 2.44-6.25 12.59 12.59 0 0 1 4.72-3.32c.57-.27 1.23 0 1.84-.09zm5.72 4.45c0-.45.2-1-.35-1.29-.06-.14-.08-.36-.18-.4-.91-.42-1.46-1.27-2.45-1.69a6.43 6.43 0 0 0-4.69-.28 4.93 4.93 0 0 0-.93.38c-1.08.62-2.28 1.14-2.58 2.55-1.1.33-2.5 2.34-2.6 3.73a5.62 5.62 0 0 0-.36 3.07 10.86 10.86 0 0 1 .21 2.54c-.12.79.7 1.33 1.24.86 1.13-1 2.63-1.09 3.88-1.82a13.2 13.2 0 0 0 5.23-5.05 4 4 0 0 1 1.93-1.76c.54-.25 1.3-.23 1.65-.84zM47.79 56.31a10.82 10.82 0 0 1-.19-2c0-.46.18-.84.6-1 1.94-.51 3.45-2 5.41-2.4l5.36-1.23a37.61 37.61 0 0 1 6.85-.64 29.26 29.26 0 0 1 5.4.65c1.59.32 3.15.78 4.76 1a14 14 0 0 1 3.59 1.37 24.69 24.69 0 0 1 3.18 1.63c1.29.87 2.81 1.31 4 2.33.2.17.4.29.42.57-.32-.11-.75-.13-.94-.35-.76-.88-1.88-1.13-2.82-1.66l-4-2.09a15.66 15.66 0 0 0-3.84-1.38c-1.36-.25-2.67-1-4.12-.69a.7.7 0 0 1-.35-.1c-1.65-.71-3.46-.43-5.17-.81-.44-.1-.77.41-1.24.31a16.58 16.58 0 0 0-5.06.21c-1.16.11-2.27.69-3.38.71a11.69 11.69 0 0 0-4 1.13c-1.25.48-2.45 1.24-3.71 1.81a.85.85 0 0 0-.57.95 2.93 2.93 0 0 0 2.05 2c-.71.75-1.07.76-1.66 0-.16-.21-.29-.39-.58-.37zM102.84 95c-1.94.52-4-.11-6 0a6.19 6.19 0 0 1-1.84-.49c-1.76-.51-3.43-1.22-4.38-3a1.89 1.89 0 0 1 .28-2.3.84.84 0 0 1 1-.23c1 .58 2.32.69 3.11 1.71a1.19 1.19 0 0 0 .83.39 23.34 23.34 0 0 0 7 .3 12.76 12.76 0 0 1 1.3-.06 3.43 3.43 0 0 0 2.61-1 3.47 3.47 0 0 1 1.62-.87c.17-.06.4-.07.5-.19.52-.56 1-.78 1.62-.11.83.88.9 1.12.34 2.08a6.78 6.78 0 0 1-4 2.93c-1.22.38-2.42 1.2-3.94.78zm1-.37c.39.13.63-.13.87-.38s.25-.5.55-.45c1.26.23 2.25-.44 3.29-1a5.4 5.4 0 0 0 2.21-2.38c.16-.28 0-.54-.26-.56-1-.07-2.28-.2-2.92.5a4.43 4.43 0 0 1-3.87 1.42l-5.19.06c-1.06 0-2.34.23-3.15-.43a10.94 10.94 0 0 0-3.25-1.8c-.36-.13-.65-.23-.93.05s-.55.58-.33 1a5.34 5.34 0 0 0 1.9 2.34 9 9 0 0 0 1.93.82 10.57 10.57 0 0 0 2.19.69 51.45 51.45 0 0 0 6.93.15zm.64-83.78a13.88 13.88 0 0 1-1.16 6.15 3.09 3.09 0 0 1-3.41 2 2.54 2.54 0 0 1-1.69-1.6 16.87 16.87 0 0 1-1.37-7.86 6.28 6.28 0 0 1 .57-1.85c.48-1.32.56-2.76 1.3-4A17.11 17.11 0 0 1 100 1.76c.42-.54 1.14-.28 1.55.47a27.73 27.73 0 0 1 2.75 6.22 15.26 15.26 0 0 1 .12 2.4zm-3-7.15a1.85 1.85 0 0 0 0-.55c-.12-.33-.09-.77-.52-.9s-.72.24-1 .51a3.42 3.42 0 0 0-.86 1.87A1.44 1.44 0 0 0 98.34 6 3 3 0 0 1 98 7.46a6.11 6.11 0 0 0-.6 2.54 18.63 18.63 0 0 0 .78 5.73 4.64 4.64 0 0 0 1.68 2.55 1.2 1.2 0 0 0 1.75-.07 6.35 6.35 0 0 0 1.57-2.72 14.07 14.07 0 0 0 .17-8.3 11.22 11.22 0 0 1-.67-1.82 2 2 0 0 0-1.19-1.67zM131 78.68a3.64 3.64 0 0 1-3.42 3.93 8.1 8.1 0 0 0-3.87 1.68c-.29.2-.58.41-.92.21a.66.66 0 0 1-.3-.88 5.13 5.13 0 0 0 .13-1.84c0-1.47 1.1-2.32 2-3.2 1.14-1.11 2.49-2 2.93-3.69.18-.7 1.38-.68 2 0a6.91 6.91 0 0 1 1.45 3.79zm-.73.27c-.4-1.1-.12-2.68-1.46-3.7-.44-.33-.62-.24-.84.19s.05 1-.19 1.15c-.88.5-1.36 1.38-2.16 2-1.27.91-2.44 1.93-2.44 3.7 0 .41 0 .9.41 1s1.15.26 1.41-.15c.74-1.21 2.1-1 3.13-1.39 1.38-.55 2.11-1.05 2.11-2.75zm42.13-35.71a4.19 4.19 0 0 1-2.55 1.17 1.64 1.64 0 0 0-.92.41c-1.16.92-2.45 1.67-3.65 2.53a6.1 6.1 0 0 0-2.63 6.24 22.73 22.73 0 0 0 .43 3.39 8.77 8.77 0 0 0 1.92 3.81c1 1 1.88 2.1 2.83 3.14.27.3.69.37.83-.05a21.55 21.55 0 0 1 1-1.95 3.7 3.7 0 0 1 2-2.07c0 .46-.43.67-.69 1a8 8 0 0 0-1.76 3.61c-.18.72-.57.86-1.09.34-2-1.95-4.11-3.8-5.15-6.48a9.74 9.74 0 0 1-.7-2.76 13.82 13.82 0 0 1 .23-5.6A6 6 0 0 1 165 47q1.79-1.24 3.61-2.44a8.5 8.5 0 0 1 3.79-1.32zm4.28-.18a4.58 4.58 0 0 0-2.88.12.91.91 0 0 1-1-.11 17.74 17.74 0 0 1 6.8-.89c.42 0 1.07-.09 1.2.57s-.37 1-.9 1.22a4.78 4.78 0 0 0-2.11 2.47 77.48 77.48 0 0 0-3 8.77 7 7 0 0 1-2.87 4.46 1.7 1.7 0 0 1 .62-1.11c1-.9.84-2.42 1.89-3.29.19-.16.07-.65.13-1a4.59 4.59 0 0 1 .85-2.57 1.42 1.42 0 0 0 .24-1.06 1 1 0 0 1 .26-.86 2 2 0 0 0 .26-2.38 1.37 1.37 0 0 1-.15-.62c0-.26.08-.57.31-.63s.33.28.41.5 0 .43.27.4.3-.28.31-.5a1.61 1.61 0 0 0-.35-1.2c-.47-.6-.25-1 .54-1.2.37.2 0 .85.46.89s.68-.41.9-.72a1.82 1.82 0 0 1 1-.75c.33-.1.74-.36.52-.71s-.85-.16-1.29-.19c-.22 0-.63-.16-.57.34 0 .16.06.32-.16.36a.4.4 0 0 1-.44-.26c-.41-.7-.82-.53-1.25-.05zm-37.49 75.74c.48.1.8-.2 1.17-.58-.27 1.3.85 1.42 1.35 2 .71.89 2.15.49 2.49 1.73 0 .08.2.14.32.16a6.51 6.51 0 0 1 2.41.81c.45.26.83.12.83-.44v-5.68a6.13 6.13 0 0 0-1.54-3.09c-.42-.54-1.26-.74-1.29-1.6-1.07-.17-1.35-1.4-2.5-1.67a12.09 12.09 0 0 0-3.35-.82 4.48 4.48 0 0 0-3.36 1.67 1.06 1.06 0 0 1-1 .39 6 6 0 0 1 7.45-1.84 11.93 11.93 0 0 1 5.58 5.56 2.86 2.86 0 0 1 .37 1.23 42.59 42.59 0 0 1 0 6.19c-.09.69-1 .88-1.91.37s-2.16-1-3.21-1.59a32.9 32.9 0 0 1-3.81-2.8zM78.94 82.77v.79c0 .92-.35 1.08-1.17.7a20.39 20.39 0 0 0-4.06-1.71 3.91 3.91 0 0 1-2.65-1.47 3.85 3.85 0 0 1-.19-4.27l1.06-2a1.06 1.06 0 0 1 1-.64c.52.06.61.48.73.85a5.37 5.37 0 0 0 2 2.49 15.06 15.06 0 0 1 2.19 2.15 4.31 4.31 0 0 1 1 3.07zm-4.11-5a11.54 11.54 0 0 1-1.55-2.18c-.14-.26-.07-.71-.47-.72s-.54.45-.72.76c-.34.56-.25 1.26-.7 1.79-1 1.17-.65 3.46.75 3.95a17 17 0 0 0 2.81 1.09 3.53 3.53 0 0 1 1.49.66 4.64 4.64 0 0 0 1.81.57c.35.07.33-.31.3-.54 0-.43-.12-.85-.19-1.28-.51-1.96-2.07-2.98-3.53-4.11zm7.09 2.6c.3-.9.76-.62 1.22-.16a9.06 9.06 0 0 1 2.06 4 11.67 11.67 0 0 1 .09 6.4c-.16.61-.43.83-1 .77s-.47-.57-.46-.92c.06-1.76-1.05-3-1.88-4.39a5.32 5.32 0 0 1-.31-5.53c0-.09.2-.12.3-.18 0 .56.64 1.34-.47 1.59-.05 0-.08.23-.08.35a5.5 5.5 0 0 0 .69 3.2c.44.72 1.34 1.2 1.26 2.26 0 .35.28.47.66.22s.59-.08.4.38a3.88 3.88 0 0 0-.21 1.74c0 .25-.13.63.28.68s.37-.3.49-.56c.73-1.64 0-3.31.13-5 0-.55-.33-.25-.56 0a.6.6 0 0 1-.91 0c-.3-.32.09-.46.28-.64a1.44 1.44 0 0 0 .47-1.52 8.49 8.49 0 0 0-1.55-2.69c-.32-.32-.62.02-.9 0zM116 87.08a24.21 24.21 0 0 1 .17-3.4c.34-1.42 1.31-2.49 1.94-3.74.25-.49.85-.49 1.23 0a3.63 3.63 0 0 1 .75 1.27c.21 1.09.69 2.19.08 3.31l-2.09 3.9a6.68 6.68 0 0 0-.55 2.13c-.07.34-.08.6-.51.6s-.68-.09-.81-.56a18.75 18.75 0 0 1-.2-3.54zm.39 1.66v.56c0 .4 0 1 .4 1s.52-.61.5-.94a4.11 4.11 0 0 1 1.27-2.89c1.54-1.74 1.08-3.59.83-5.5a.87.87 0 0 0-.41-.69c-.31-.18-.69-.18-.76.2-.13.69-.9 1.1-.76 1.91a.75.75 0 0 1-.41.69 1.34 1.34 0 0 0-.66 1.51 12.65 12.65 0 0 1 .04 4.15zm18.14 23.15c-.27 1.62-.28 1.64 1.33 2.52a1.13 1.13 0 0 1 .73 1.23 7.26 7.26 0 0 0-2.36-1.54.8.8 0 0 1-.38-1.38c.21-.27.31-.66.68-.83zM77.83 86c.62.2 1.3.29 1.67.94a1.73 1.73 0 0 1-1.68-.94zm61.92-70.37a1.39 1.39 0 0 1-1.88 0zm-5.03 93.29c-.09-.6.18-.84.76-.75-.09.42-.48.51-.76.75zm3.53 8.58a1.08 1.08 0 0 1 .75.94c-.54-.09-.64-.52-.75-.94zm2.81-102.04a.85.85 0 0 1-1.11 0c.37 0 .73-.4 1.11 0zm-4.31 100.36a.52.52 0 0 1 .57.57.58.58 0 0 1-.57-.57z"/><path class="Bh" d="M137.51 116.75a.34.34 0 0 1 .38.38c-.26-.01-.37-.13-.38-.38zm-3.17-7.64a.37.37 0 0 1 .38-.19.4.4 0 0 1-.38.19zm2.98 7.26a.38.38 0 0 1 .19.38.4.4 0 0 1-.19-.38zm1.68 2.06a.38.38 0 0 1 .19.38.39.39 0 0 1-.19-.38zm32.65-58.57l.19-.19zm-36.94 51.84l-.19.19zm3.17 5.42l.19.19zm.19.19l.19.19zm-3.53-1.13l.18.19-.19-.19zm-5.7-103.59c1.15-.22 1.85 0 2.21 1s1.13 1.14 1.71 1.61c1.09.88 2.47 1.38 3.48 2.42.47.48 1 .91 1.53 1.35a.61.61 0 0 1 .07 1c-.32.35-.56 0-.77-.2-1.86-1.84-4.07-3.26-6-5a12.23 12.23 0 0 1-2.23-2.18zm26.11 10.49c-1.24.08-2.25-.24-3 .69a.56.56 0 0 1-.53.07 13.25 13.25 0 0 1-2.23-1.64c-.16-.13-.08-.36.1-.47s.62-.17.76.09c.51 1 1.39.77 2.2.74a20.41 20.41 0 0 0 4.17-.17c.26-.06.66-.08.72.24s-.43.41-.66.44a12 12 0 0 1-1.53.01zm-2.76 1.7H154a1 1 0 0 0 .79-.2c.89-.92 2.08-.49 3.12-.72a.3.3 0 0 1 .4.27c0 .13-.11.27-.23.24-1.16-.32-1.88.73-2.9.91a16.12 16.12 0 0 1-5.06.05c-.2 0-.42-.09-.42-.29s.3-.25.49-.25zM123.67 7.09a2.16 2.16 0 0 1-.23.31c-.22.22-.34 0-.44-.14l-1.79-1.87-1.51-1.51c-.23-.23-.43-.52-.16-.81a.54.54 0 0 1 .76.06 11.76 11.76 0 0 1 2.37 2.68c.23.38.19.91.83.92.12 0 .19.15.17.36zm16.24-4a.37.37 0 0 1-.73.12c-.41-1-1.65-1.1-2.25-1.93-.17-.23-.44-.37-.26-.69s.41-.17.65-.09a6.27 6.27 0 0 1 2.57 2.4l.02.19zm.4 4.19a2.94 2.94 0 0 1-1.84 2c-.15 0-.31 0-.45.09s-.65.32-.8-.07.31-.5.55-.62c.77-.42 1.23-1.18 1.93-1.68.14-.1.25-.32.46-.23s.12.33.15.51zm-27.96-19.86c-.2.47.34 1.32-.33 1.41-.47.07-.16-.83-.35-1.27a1.81 1.81 0 0 1 .18-1.61.24.24 0 0 1 .23 0c.48.39.14.96.27 1.47zm-1.49-3.11c0-.31.16-.61.49-.51a1.25 1.25 0 0 1 .95 1 .33.33 0 0 1-.43.35c-.47-.15-1.03-.15-1.01-.84zm18.08 122.17c-.47-1.46.11-2.75.58-4.1a19.49 19.49 0 0 1 2.4-4.84c1 .08 1 .13.64 1a2.22 2.22 0 0 1-.7 1c-.07.06-.21.11-.22.16 0 1.2-1.12 2-1.23 3.15 0 .24.07.59-.16.7-1.1.51-.73 1.48-.77 2.32 0 .36-.05.66-.54.61zm13.24-1.48c-.31.35-.62.13-.93 0a5.85 5.85 0 0 1-.37-2.61c1.47-.18 3-.11 3.6-2a10.44 10.44 0 0 0 .15-1.72c.42-.1.78-.54 1.27-.19 0 1 .23 2-.69 2.74-.26.22-.24.62-.24 1-.36 0-.77-.05-.91.44a.33.33 0 0 1-.49.26 1.39 1.39 0 0 0-1.76.61c-.52.64.19.99.37 1.47z"/><path class="Bh" d="M144.62 98.67a10.44 10.44 0 0 1-.15 1.72c-.56 1.89-2.14 1.82-3.6 2a4.15 4.15 0 0 1-2-2.73c-.33-.93 1-2.7 2.12-3.07a2.37 2.37 0 0 1 3 1.26c.17.29.4.55.6.82zm-3.12 3.17a2.6 2.6 0 0 0 2.71-2.48 2.74 2.74 0 0 0-2.48-2.56 2.59 2.59 0 0 0-2.34 2.63 2.46 2.46 0 0 0 2.11 2.4zm5.5-8.04l-.21 3.52c-1-.21-1.23-.57-.76-1.39a2.85 2.85 0 0 0 .23-1.35 4.89 4.89 0 0 1 .33-2.6c.54.56-.04 1.32.41 1.82zm-14.33 2.81l1.11-1.5c.61.17.56.66.55 1.12s-.33.53-.7.58a.63.63 0 0 0-.32.17c-.65.63-.65.14-.64-.37zm-85.06-86.2c-1.07 1.31-2.16 1.31-3.4.12a2.08 2.08 0 0 1-.8-1.36c-.05-.56-.25-1.32-.84-1.27a2.33 2.33 0 0 0-1.77 1c-1.55 2.32-1.61 4.86-1.19 7.49A8 8 0 0 0 42 20.8c.63.65 1.65.61 2 1.48 0 .05.17.07.26.06 1.91-.18 3.85.6 5.73 0a10.6 10.6 0 0 0 4.38-2.28c1.14-1.06 2.47-1.89 3.49-3.06 1.4-1.64 3.41-1.41 5.22-1.09a3 3 0 0 0 2.82-1.18 8.3 8.3 0 0 0 1.27-2c.31-.55.18-.91-.37-1.39-1.26-1.09-2.88-1.29-4.27-2A3 3 0 0 1 61 6.48a18.19 18.19 0 0 1 0-2.38 3.74 3.74 0 0 1 1.52-2.63c0 .38.06.68.51.74a.63.63 0 0 0 .73-.43A2.28 2.28 0 0 1 65.1.69a.46.46 0 0 1-.19.49c-.57.33-.66.54.1.73.35.08.44.49.49.84a2.7 2.7 0 0 0 2.37 2.1c2 .31 3.86-.27 5.8-.22.54 0 1-.41 1.47-.53 3.06-.74 5.15-2.84 7-5.21.56-.8 1.21-1.58 1.86-2.39a18.43 18.43 0 0 0 .92-2 11.15 11.15 0 0 0 1.6-4.19c.19-1.43.73-2.81.32-4.29a.87.87 0 0 1 .3-.85 17 17 0 0 1 2.63-1.77c.48-.24.93.13.64.78a3 3 0 0 0-.25 2.32.55.55 0 0 1 0 .37c-.72 1.7-.55 3.6-1.17 5.31l-1 3c-.37.93-.51 2-1.54 2.77s-1.17 2-2 2.8c-1.61 1.68-3 3.56-4.64 5.22l-4.74 4.8a29.19 29.19 0 0 1-3 2.35 16.42 16.42 0 0 0-2 1.62 13.12 13.12 0 0 1-4.67 4c-.56.24-1.05 1.08-1.66 1.58-1.77 1.46-3.45 3-5.11 4.6-2 1.92-3.73 4.05-5.65 6-.21-.11-.36-.6-.65-.23-.9 1.16-2.4 1.8-2.86 3.34-.08.25-.32.35-.51.51a1.35 1.35 0 0 0-.08 2 19.84 19.84 0 0 1-1.62 3.28c-.71 1.16-.52 2.66-1.59 3.62-.2.18-.14.47-.14.71a39.08 39.08 0 0 0 .21 6.5 30.29 30.29 0 0 1 .63 3.45 3.44 3.44 0 0 1 .07.55c-.18 1.63.69 2.94 1.24 4.36a20.92 20.92 0 0 0 2 3.82 11.09 11.09 0 0 0 3.34 3 48.39 48.39 0 0 0 4.72 2.89 4.57 4.57 0 0 0 2 .3 22.18 22.18 0 0 1 3.13.33 4.41 4.41 0 0 0 1.76 0 11 11 0 0 1 3.2-.35.48.48 0 0 0 .27 0c1.44-1 3.27-1.25 4.66-2.54a31.38 31.38 0 0 0 3.08-3.29 10.41 10.41 0 0 0 1.78-3 6.68 6.68 0 0 1 .29-.68c.76-1.55 1.09-1.61 2.34-.44.25.23.55.4.8.63a.86.86 0 0 1-.22 1.48c-.21.1-.44.15-.4.42.12.85-.44 1.36-.89 2s-.83.8-.89 1.54-.59.43-.88 0c-.12-.2-.28-.35-.53-.16a.26.26 0 0 0-.06.41c1 1 0 1.64-.54 2.11a35.21 35.21 0 0 1-6.21 3.93 11.05 11.05 0 0 1-4 1.46c-2.44.27-4.93.48-7.28-.63.16-.19.39-.15.6-.16s.58 0 .59-.31-.37-.26-.58-.3c-1.18-.22-2.47 0-3.5-.85-.08-.06-.24 0-.36 0a1.11 1.11 0 0 1-1-.47 1.72 1.72 0 0 0-2.24-.47 4.4 4.4 0 0 1-2.24-1.37 6.06 6.06 0 0 0-1.95-1.67c-1.17-.67-1.52-2-2.16-3.13a20 20 0 0 1-1.56-3.22C44 58.18 43 56.27 43.1 54c.09-1.42-.65-2.74-.64-4.19s-.36-3.09.38-4.56a.79.79 0 0 0 .09-.36c0-1.9.88-3.56 1.37-5.33.35-1.28 1.09-2.41 1.55-3.65a20.89 20.89 0 0 1 4.15-6.2c.94-1.1 2.14-2 3-3.15.29-.4.45-.73.16-1.17a.85.85 0 0 0-1.14-.26 5.41 5.41 0 0 1-3.24.43c-1-.23-1.95.45-2.93 0l-4.15-1.89c-.51-.24-.45-.95-.9-1.26a11.11 11.11 0 0 1-2.47-2.62 5.52 5.52 0 0 1-.6-1 15.61 15.61 0 0 1-1.16-5.64 1.91 1.91 0 0 1 .11-.54c.23-.95.54-1.86.7-2.85A6.15 6.15 0 0 1 39 6.59a1.35 1.35 0 0 0 .53-1.21 5.5 5.5 0 0 0 1.87-.74c0 .44.31.58.7.55s.7-.13.8-.61c.14-.64.67-.68.9-.19.46 1 .81.48 1.25 0 .77-.77 1.31-.68 2.05.16a3.51 3.51 0 0 1 1.22 2.67.43.43 0 0 0 .44.5c.3 0 .24-.29.32-.48a2.45 2.45 0 0 0 0-1.72c.06 0 .14 0 .17.05.82.87.47 3.56-.55 4.24-.08-.38.59-.79.16-1s-.66.41-1 .66a.94.94 0 0 0-.25.94z"/><path class="Bh" d="M49.09 5.57a2.45 2.45 0 0 1 0 1.72c-.08.19 0 .48-.32.48a.43.43 0 0 1-.44-.5 3.51 3.51 0 0 0-1.22-2.67c-.75-.84-1.28-.93-2.05-.16-.44.44-.78.94-1.25 0-.23-.49-.75-.45-.9.19-.11.47-.42.57-.8.61s-.67-.11-.7-.55a3.37 3.37 0 0 1 2.82-1.19 1.91 1.91 0 0 0 1.88-.5h.18a.88.88 0 0 0 .75.55c.96.36 2.04.66 2.05 2.02zm3.54 63.98a1.72 1.72 0 0 1 2.24.47 1.11 1.11 0 0 0 1 .47h.36c1 .87 2.31.64 3.5.85.21 0 .6-.06.58.3s-.34.3-.59.31-.44 0-.6.16h-.72c-.11-.35-.3-.43-.59-.17h-.54a.35.35 0 0 0-.4-.33 4.7 4.7 0 0 1-2.8-1c-.43-.37-1.3-.21-1.44-1.06zM48.9 36.53a1.35 1.35 0 0 1 .08-2c.18-.16.43-.26.51-.51.46-1.54 2-2.18 2.86-3.34.29-.37.44.12.65.23 0 .35-.25.55-.47.76a20.35 20.35 0 0 0-3.63 4.86zM65.1.69a2.28 2.28 0 0 0-1.33 1.08.63.63 0 0 1-.73.43c-.45-.06-.53-.36-.51-.74A5.38 5.38 0 0 1 64.31.07c.52-.35.69.14.79.62z"/><path class="Bh" d="M47.61 10.41a.94.94 0 0 1 .28-.92c.33-.25.57-.89 1-.66s-.24.65-.16 1a1.2 1.2 0 0 1-1.12.58zM46.11 3a1.91 1.91 0 0 1-1.87.54A2.26 2.26 0 0 1 46.11 3zm.89.52a.88.88 0 0 1-.71-.52c.41-.06.71 0 .71.52zM57.86 72c.29-.27.47-.18.59.17-.23-.01-.45.03-.59-.17zm-.94-.39a.35.35 0 0 1 .4.33c-.25.06-.38-.08-.4-.33zm119.76-28.55c.43-.48.83-.65 1.18.08a.4.4 0 0 0 .44.26c.21 0 .17-.19.16-.36-.06-.5.35-.35.57-.34.44 0 1-.26 1.29.19s-.19.61-.52.71a1.82 1.82 0 0 0-1 .75c-.22.31-.45.76-.9.72s-.1-.7-.46-.89c-.06-.51-.8-.55-.76-1.12zM77.82 86a1.73 1.73 0 0 0 1.68.93 15.74 15.74 0 0 1 1.18 1.31 11.44 11.44 0 0 1 2.15 5.51c.12 1.06-.23 2.11 0 3.22.45 2.48 1.14 3.29 3.59 3.55a2.42 2.42 0 0 1 1.61.58.8.8 0 0 0 1 .11c.63-.67 1.46-.47 2.18-.6a6.49 6.49 0 0 0 2.92-1.3 2.36 2.36 0 0 0 .94-1.31c.33-1.13.66-1.25 1.67-.78a3.74 3.74 0 0 0 1.65.14c.67 0 1 .19.8.95l-.89 3.86a20.52 20.52 0 0 1-.87 3.61c-.88 2-1.42 4.21-3.11 5.83l-2.63 2.71a1.72 1.72 0 0 1-.84.37.49.49 0 0 1-.64-.23c-.12-.25.11-.39.25-.55l.85-.86c.15-.15.35-.31.17-.55s-.35-.2-.58-.13a1.7 1.7 0 0 0-1.11 2.24c.24.59.17.9-.54.86-.18 0-.46 0-.53.08-.62.92-1.89.73-2.58 1.51a.75.75 0 0 1-.41.2c-2.63.45-5.07 1.66-7.7 2a40.71 40.71 0 0 1-5.4.08c-.32 0-.46-.18-.34-.49s.16-.63-.24-.76a.53.53 0 0 0-.66.38c-.2.62-.56.51-1 .35-.68-.23-1.3-.74-2.11-.44-.17.06-.46-.1-.43-.27.16-.92-.51-.6-.93-.64-.26 0-.5-.05-.61-.33s0-.42.21-.58a8.19 8.19 0 0 0 .65-.66c.41-.53.8-.51 1.17 0s1.49.51 1.64 1.48c0 .14.51.25.85.13a7.24 7.24 0 0 1 3.67-.09 1.54 1.54 0 0 0 .74 0c1.15-.4 2.27 0 3.4.09.27 0 .55.19.75-.11a.61.61 0 0 0-.13-.84 2.12 2.12 0 0 1-.72-1.46c0-.62-1-.41-1.08-1 .77-.26.9-.9.32-1.61-.72-.89-.66-1.09.45-2.39.65-.76.82.31 1.27.28a3.26 3.26 0 0 1 1.25.87 3.39 3.39 0 0 0 2.31 1 15 15 0 0 1 2.4.16 1.73 1.73 0 0 0 1.73-.41 1.66 1.66 0 0 1 1-.42 1.9 1.9 0 0 0 1.4-.73 1 1 0 0 1 1.42 0 4.51 4.51 0 0 0 .7.44c.19.09.45.13.57-.11s-.05-.39-.25-.53c-.67-.46-.6-1.14.14-1.51a6.64 6.64 0 0 0 2.18-2.35 5.85 5.85 0 0 1 .64-1 1.76 1.76 0 0 0 .72-1.44 1 1 0 0 1 .33-.74 3.62 3.62 0 0 0 .34-3.49c-.31-.63-.73-.67-1.17-.27-1.21 1.08-2.8 1.41-4.21 2a5.39 5.39 0 0 1-5-.32 18.6 18.6 0 0 0-3.46-1.85 5.44 5.44 0 0 0-1.72-.3 3.42 3.42 0 0 1-2.18-.63 1.6 1.6 0 0 0-.76-.32c-1.43-.24-2.22-1.39-3.27-2.2-.81-.62-.67-1.71-1.54-2.15a.55.55 0 0 1-.2-.41c-.15-2.13-1.33-4.09-1-6.3.12-.79-.16-1.61.2-2.39s.85-1 1.57-.35a1.16 1.16 0 0 0 .81.38 2.24 2.24 0 0 1 2.14.79c.23.37.8.12 1.23.2z"/><path class="Bh" d="M79.5 110.41c-.45 0-.62-1-1.27-.28-1.11 1.29-1.17 1.5-.45 2.39.58.71.45 1.35-.32 1.61a4.52 4.52 0 0 1-.51-4 5 5 0 0 1 1.23-1.58c.23-.26.5-.15.7.12a2.35 2.35 0 0 1 .62 1.74zM93.67-9.73a2.77 2.77 0 0 0 1.88-2.44l.19-6.46A9.08 9.08 0 0 1 97-22.25a12.28 12.28 0 0 0 .89-2 3.59 3.59 0 0 1 1.61-2.21 2.1 2.1 0 0 1 2.86.52c.55.61 1.12 1.13 1 2.07-.07.5.6.69.74 1.14a12.29 12.29 0 0 0 1.22 2.73 1.21 1.21 0 0 1 .08.9c-.55 1.59.24 3.13.14 4.7 0 .21.11.45.06.64-.5 1.92.67 2.92 1.92 4.09a9.89 9.89 0 0 1 2.35 3.27c.47 1.1.82 2.25 1.26 3.37s.17 2.39.43 3.58c.35 1.59.36 3.27.8 4.83a20 20 0 0 0 2.95 6.82c.64.85 1.33 1.7 1.89 2.63.46.75 1.45.74 2.07 1.28.09.08.23.08.35.13s.59.24.5.57-.56.32-.79.22a10.52 10.52 0 0 0-2.08-.38 22.16 22.16 0 0 1-3.81-1.09 10.14 10.14 0 0 1-3.17-2.5 12.69 12.69 0 0 1-2.11-2.68A24.79 24.79 0 0 1 106 6.77a1.84 1.84 0 0 0-.47-.78c-.11-.1-.3-.25-.28-.35.2-1.34-.94-2.11-1.41-3.14a23.48 23.48 0 0 0-1.29-3.08 1.47 1.47 0 0 1-.29-.77c.05-1.35-.38-2.71 0-4 .34-1.05-.25-1.6-1.62-2.19a1.79 1.79 0 0 0-2 1.1 3.87 3.87 0 0 0 0 2.46 6.89 6.89 0 0 1-.49 4.54 6.9 6.9 0 0 0-.42 1.09A8.83 8.83 0 0 1 96 5.25a9.32 9.32 0 0 0-1.07 2.08c-.52 1.21-1.44 2.12-2 3.27A9.16 9.16 0 0 1 90.2 14c-1.62 1.19-3.25 2.41-5.42 2.45-.85 0-1.59.63-2.48.64-.32 0-.73.27-.88-.18s.26-.56.58-.67A3.87 3.87 0 0 0 83.61 15a15.13 15.13 0 0 0 2.86-3.47 20 20 0 0 0 1.43-3.17 4.79 4.79 0 0 1 .23-.8c1.1-2.23 1.08-4.69 1.43-7.06a18.83 18.83 0 0 1 1.73-6.56 11 11 0 0 1 1.95-2.77 1.35 1.35 0 0 0 .43-.9zm6.81-9.7a2 2 0 0 0-2.13 2.17c0 1.87.78 2.88 2.15 2.87A2.59 2.59 0 0 0 103-17a2.71 2.71 0 0 0-2.52-2.43zm34.05 135.62l.19.19c.28.74.19 1.22-.77 1.13-.14 0-.38 0-.43.1-.78 1.37-2.36.94-3.47 1.57a3.48 3.48 0 0 0-2.61-.51c-1.51.16-3 .09-4.51.14-.3 0-.65-.08-.72.37-1.51-.83-3.37-.26-4.87-1.33-.8-.58-2-.41-2.9-.85a29.32 29.32 0 0 1-3-1.49 16.06 16.06 0 0 1-4.67-4.09c-.76-1.05-1.11-2.31-1.79-3.36s-.5-2.63-1.56-3.57a.36.36 0 0 1-.08-.17c-.36-1.19-.41-2.46-.88-3.62.8-.33.87-.92.53-1.61-.15-.3-.25-.58 0-.84a.57.57 0 0 1 .83 0c.32.27.69.19 1.05.2-.11.14-.2.35-.35.42-.66.32-.62.67-.1 1.09.09.07.22.24.19.3-.45 1 .24 1.74.67 2.53.12.22.25.5.11.71-.41.59-.4.95.43 1 .06 0 .13.13.15.21a11.51 11.51 0 0 0 4.64 5.7 7.54 7.54 0 0 0 2.27.93 23.11 23.11 0 0 0 3.21.81 3.36 3.36 0 0 0 2.82-.33 1 1 0 0 1 1.22-.06c.42.25.71.09.79-.4a1.3 1.3 0 0 1 .91-1.17c.54-.16.32-.66.42-1s.07-.75.41-.89.58.27.8.49a5 5 0 0 1 1.53 3.84c0 .91-.86 1.4-1.37 2a8.57 8.57 0 0 0-1.09 1.49c-.25.52-.18.93.5 1a18.91 18.91 0 0 0 5.68.06 3.89 3.89 0 0 1 1.45.2c.24 0 .57.2.59-.17 0-.81.58-.64 1.05-.65s1.13.13 1.33-.66c.08-.32.42-.33.69-.12s.39.42.71.41zm-27.41-16.43a2.36 2.36 0 0 1 1 .34 11.84 11.84 0 0 0 4.21.94 9.57 9.57 0 0 0 5.07-1.48 2.44 2.44 0 0 0 1-2.09v-1.3a8 8 0 0 1 .59-4.06c.65.34 1 0 1.19-.57a6.51 6.51 0 0 1 .73-1.48c.41-.59 1-1.11.89-2 0-.27.21-.43.49-.45.92-.07 1.19-.71 1.33-1.48a1.66 1.66 0 0 0 1.16-.51c.13-.13.26-.33.42-.36a11 11 0 0 0 2.78-1.11c.62-.29.88 0 1.12.72.46 1.46-.12 2.79-.19 4.17l-.06 2.33c0 .41-.06.9-.7.54-.18-.1-.33-.54-.53-.18s-.42.63 0 .91c.85.59.42 1.18 0 1.71a4.31 4.31 0 0 0-.67 1.18 5.82 5.82 0 0 1-3.55 3.23 18 18 0 0 1-4.55.77 1.05 1.05 0 0 0-.68.22 11 11 0 0 1-4.34 2.27 4.47 4.47 0 0 1-2.56-.06 12.89 12.89 0 0 1-2.61-.64c-.67-.35-1.17-.85-1.78-1.22a.46.46 0 0 0 .24-.34z"/><path class="Bh" d="M107.12 99.76a.46.46 0 0 1-.2.39c-.79-.11-1.43-.38-1.48-1.31.17-.13.24-.29.08-.46s-.33-.09-.46.07h-.19c-.36 0-.73.07-1.05-.2a.57.57 0 0 0-.83 0c-.26.26-.16.54 0 .84.35.69.27 1.28-.53 1.61l-.33-2.56c-.09-.66.23-1 .89-.88a4.38 4.38 0 0 0 1.83 0c.69-.16 1.36-.22 1.37.89-.01.6.78.95.9 1.61zm16.57-13.59c-.13.77-.41 1.41-1.33 1.48-.28 0-.52.17-.49.45.1.85-.48 1.36-.89 2a6.51 6.51 0 0 0-.73 1.48c-.21.55-.54.9-1.19.57a3.2 3.2 0 0 1 .9-2.33 1.28 1.28 0 0 0 .26-.57c.59-1.71 1.97-2.46 3.47-3.08z"/><path class="Bh" d="M122.21 119.17c.07-.45.42-.36.72-.37l4.51-.14a3.48 3.48 0 0 1 2.61.51c-.11.06-.21.16-.32.16h-7.08a1.42 1.42 0 0 1-.44-.16zm-17.15-20.72c.13-.16.3-.23.46-.07s.08.33-.08.46a.58.58 0 0 1-.38-.39zm14.07-41.92c.29.63.2.79-.42 1.17a11.38 11.38 0 0 0-3.13 2.48c-.53.67-1.1 1.53-1.82 1.78s-1 .88-1.41 1.39c-1.61 1.82-2.58 4-4 5.94a1.86 1.86 0 0 0-.26 1c-.06.92-1 1.43-1.1 2.29-1.36-.13-.64.65-.68 1.28a7.57 7.57 0 0 1-.58 2.21 15 15 0 0 0-1.17 4.24c-.08.93-.61 1.65-1.32 1.58a1.43 1.43 0 0 1-1.08-1.76 9.89 9.89 0 0 0 .15-1.94 2.9 2.9 0 0 1 .55-1.82 2.43 2.43 0 0 0 .37-1.78 1.39 1.39 0 0 1 .51-1.32 1.47 1.47 0 0 0 .46-.87c.08-.32-.15-1.19.8-.7.32.17.34-.35.26-.49-.9-1.5.13-2.62.9-3.58s1-2 1.65-2.87l3.77-5.23a21 21 0 0 1 4.29-3.72c1.08-.8 2.49-1.15 3.58-1.94s2.28-.89 3.21-1.71A.59.59 0 0 1 123 52c1.54-.05 2.89-.82 4.33-1.22a29.78 29.78 0 0 1 9.43-1l4.49.34c1.7.13 3.12 1.2 4.89 1 .86-.11 1.74.66 2.64 1a17.5 17.5 0 0 1 3.22 1.15c.54.32.76.59.68 1.22a8.58 8.58 0 0 0 .12 1.51.55.55 0 0 1-.26.56c-.27.15-.46 0-.66-.18a8.83 8.83 0 0 0-3-1.5c-3.45-1.16-7.05-1.39-10.64-1.81s-6.94.35-10.39.87c-.86.13-1.78 0-2.47.8-.23.26-.74.25-1.16.24s-1.28-.67-1.2.55c0 0-.09.12-.14.11-1-.14-1.65.53-2.35 1.13-.34.32-.9.08-1.4-.24zM96.27 44.59a4.72 4.72 0 0 1 .93-2.78 31 31 0 0 0 2.08-3.56c.42-.77 1.07-1.45 1-2.42 0-.15.14-.42.36-.32s.67.27.63.61c-.19 1.5 1.26 2.15 1.65 3.31s1.61 1.83 1.62 3.21a5.22 5.22 0 0 0 .64 1.6 3.12 3.12 0 0 1-.21 2.68A17.38 17.38 0 0 0 103.4 50a3.26 3.26 0 0 1-.77 1.24 6.27 6.27 0 0 0-1.44 2.76c-.06.27-.11.59-.47.61s-.25-.34-.37-.53l-1.49-2.34c-.49-.75-.61-1.66-1.07-2.43-.16-.26-.2-.64-.47-.78a1.44 1.44 0 0 1-.73-1.29l-.32-2.65zm-64.34 67.12a2.05 2.05 0 0 1-1.31-1.18c-.44-1.12-1.23-2-1.6-3.2a12.38 12.38 0 0 0-1.42-3.82c-.35-.48.06-.6.44-.56l2.59.21c1.55.15 2.73-.62 4-1.3 2.35-1.28 4.72-2.53 7.5-2.66a6.62 6.62 0 0 1 3.27.16.88.88 0 0 0 1.32-.45.23.23 0 0 1 .29-.17 8.79 8.79 0 0 1 3.11.86 17.93 17.93 0 0 1 4 3.26c.83.89 1.3 2 2.26 2.79a.65.65 0 0 1 .14.85c-.17.29-.51.21-.76.11a2.88 2.88 0 0 0-2.92.15.92.92 0 0 1-.54.1c-.33 0-.81.17-1-.12s.35-.49.57-.69c1.11-1 .75-2.23.37-3.33a2.15 2.15 0 0 0-2.13-1.3 2.49 2.49 0 0 0-2.63 1 3.18 3.18 0 0 0 0 3.06c.59.89 1.19 1.76 2.48 1.56.14 0 .35 0 .37.18a.48.48 0 0 1-.44.51 6.5 6.5 0 0 0-3.39 1.85c-.41.34-.78.39-1.09-.1a.71.71 0 0 0-.68-.39c-.37 0-.62.32-.33.51 1.61 1 .19 1.61-.37 1.94-.79.47-1.4 1.37-2.48 1.31a.57.57 0 0 0-.37.24 2.25 2.25 0 0 1-2.73.63 1.89 1.89 0 0 0-1.16-.08c0 .1 0 .17.06.21.2.2.78-.08.69.39s-.58.27-.88.2a14.61 14.61 0 0 1-1.47-.51c.25-.46.25-.77-.41-.75-1.1 0-1.39-1.39-2.49-1.38 0 0-.07-.16-.09-.25 0-.25-.12-.42-.4-.4s-.35.32-.37.56z"/><path class="Bh" d="M31.93 111.71c0-.24 0-.52.35-.54s.37.16.4.4c0 .09.06.25.09.25 1.09 0 1.39 1.42 2.49 1.38.66 0 .65.29.41.75a4 4 0 0 1-3.74-2.24zm30.41-29.47A15.55 15.55 0 0 0 64 89.37a54.26 54.26 0 0 0 3.66 5.43c.58.87 1.48 1.53 1.65 2.72a3.77 3.77 0 0 0 1 1.69 26 26 0 0 1 1.44 2.36 1.72 1.72 0 0 1 .24 1.16 2.83 2.83 0 0 0 .42 1.87c.16.22.25.57.06.68-.74.45-.48 1-.33 1.61a3.79 3.79 0 0 1-.62 2.66 20.7 20.7 0 0 1-1.37 2.6c-.13.16-.13.44-.41.42s-.36-.25-.42-.45a6.83 6.83 0 0 0-3-3.68 6 6 0 0 0-2.71-1.3c-.26 0-.69 0-.73-.45s.29-.34.51-.43.39-.26.21-.5-.48-.19-.73 0a2.32 2.32 0 0 1-2.54.32 8.41 8.41 0 0 1-4.28-4.4 4.93 4.93 0 0 0-.6-1c-.38-.49-.88-.89.2-1.19.44-.12.27-1.24-.21-1.28-.9-.08-.92-.75-1-1.32a65.67 65.67 0 0 1-.58-6.89c-.16-1.87.21-3.67.08-5.51a3.49 3.49 0 0 1 .53-1.69c.59-1.35 1.88-1.95 2.73-3 .27-.33.6-.65 1.12-.46a.34.34 0 0 0 .42-.1c1-1.12 1-1.14 2.47-.52.5.21.69 0 .77-.44.42.06.4.32.25.61-.38.74-.19 1.58-.42 2.35-.12.4-.11.9.53 1zm-3.33 20c2.14 0 3.31-1 3.33-2.87a3 3 0 0 0-2.88-2.85c-1.82.07-2.59 1.09-2.75 3.05-.1 1.23 1.13 1.55 1.31 2.55.03.22.67.03.98.07z"/><path class="Bh" d="M62.34 82.24c-.63-.07-.65-.57-.53-1 .23-.77 0-1.61.42-2.35.15-.28.16-.55-.25-.61-.06-.48.07-.77.63-.75a9 9 0 0 0 1.09-.14c.2 0 .46-.12.59.12a.48.48 0 0 1-.2.57 3.68 3.68 0 0 0-1 1.51c-.81.35-.88.52-.38.95a4.11 4.11 0 0 1-.37 1.7z"/><path class="Bh" d="M62.7 80.57c-.5-.43-.44-.6.38-.95.04.38-.4.58-.38.95zM50 56.68a2.93 2.93 0 0 1-2.05-2 .85.85 0 0 1 .57-.95c1.26-.56 2.47-1.33 3.71-1.81a11.69 11.69 0 0 1 4-1.13c1.11 0 2.22-.6 3.38-.71a16.58 16.58 0 0 1 5.06-.21c.46.1.8-.41 1.24-.31 1.71.37 3.52.1 5.17.81a.7.7 0 0 0 .35.1c1.45-.28 2.76.45 4.12.69a15.66 15.66 0 0 1 3.84 1.38c1.35.64 2.66 1.37 4 2.09.94.53 2.06.78 2.82 1.66.19.22.62.24.94.35.32.87 1.2 1.18 1.78 1.79a3.84 3.84 0 0 1 1 1.37c-.71.14-.66.57-.2.86a3.9 3.9 0 0 1 1.41 1.77c.48 1.21 1.51 1.92 2.12 3 .18.3.35.06.4-.19 1.18.75 1.41 2.11 2 3.22a37.77 37.77 0 0 1 1.57 3.67 2.22 2.22 0 0 1 .2.52c.35 2.51 1.41 4.82 1.92 7.28.13.62.36 1.43-.6 1.7a1.45 1.45 0 0 1-2-1.12 21.32 21.32 0 0 0-1.16-4 4 4 0 0 1-.14-.91 20 20 0 0 0-1.24-3.51 12.6 12.6 0 0 0-1.42-3c-.88-1.23-1.31-2.76-2.52-3.78-.2-.17-.46-.35-.31-.7a.34.34 0 0 0-.19-.46 13 13 0 0 1-3.51-3.5 19.36 19.36 0 0 0-2.35-2A20.24 20.24 0 0 0 79.8 56a32.58 32.58 0 0 0-3.57-1.36c-1.59-.62-3.32-.55-4.89-1.16a6.43 6.43 0 0 0-1.9-.15c-2.51-.18-5 .24-7.49.24a25.93 25.93 0 0 0-8.76 1.3c-.72.26-1.49.4-2.2.71a1.34 1.34 0 0 0-.99 1.1z"/><path class="Bh" d="M93.68 65.26c0 .26-.23.49-.4.19-.61-1-1.64-1.76-2.12-3a3.9 3.9 0 0 0-1.41-1.77c-.46-.3-.51-.72.2-.86a18.16 18.16 0 0 1 3.73 5.44zm48.5 39.74c-.22-.48-.89-.83-.38-1.52a1.39 1.39 0 0 1 1.76-.61.33.33 0 0 0 .49-.26c.14-.49.55-.41.91-.44a6.24 6.24 0 0 1-2.78 2.83zm20.51-31.9c1 .51 1.41 1.51 2.06 2.31.84 1 1.25 2.37 2.16 3.39.12.13.07.42.08.63 0 .42-.06.78.48 1.07s.41.92.45 1.43a4.12 4.12 0 0 0 .35 2.25.83.83 0 0 1 0 .46 40.72 40.72 0 0 0-.43 4.13c0 .49-.43.87-.88 1.13a1.79 1.79 0 0 0-.42.1c0 .94-.92 1.33-1.22 2a2.15 2.15 0 0 1-1.22 1.3 1.15 1.15 0 0 0-.86 1.41c-1.24 1.65-2.81 1.92-4.76 1.41a7.37 7.37 0 0 0-5.06.18 3.49 3.49 0 0 1-1.19.09c-.05-.57-.47-.6-.89-.55-.8.09-1.06-.29-1-1v-1c0-.32-.12-.59-.54-.55.5-2.13.4-4.36.93-6.48a7.11 7.11 0 0 1 2.69-4.43c.38-.26.4-.78.83-1.07a40.28 40.28 0 0 0 4-3 8.74 8.74 0 0 0 2.39-3.53c.57.46 1 .43.91-.41s.45-1.14 1.14-1.27z"/><path class="Bh" d="M149.85 93.26c.41 0 .55.16.54.55v1c-.07.74.19 1.12 1 1 .41 0 .83 0 .89.55 0 0 0 .06-.07.06a4.24 4.24 0 0 0-2.63 1.27c-.12.14-.33.39-.55.22a.5.5 0 0 1 0-.68c1.14-1.1.35-2.67.82-3.97zm13.41 1.47a1.15 1.15 0 0 1 .86-1.41 2.15 2.15 0 0 0 1.22-1.3c.3-.72 1.22-1.1 1.22-2a1.79 1.79 0 0 1 .42-.1 4.17 4.17 0 0 1-1.6 3.43c-.68.49-1.06 1.43-2.12 1.38zm-.57-21.63c-.7.13-1.16.45-1.12 1.27s-.34.87-.91.41c.1-1 .56-1.93 0-2.92a.51.51 0 0 1 .24-.71c.33-.12.53.17.62.42.25.63.83.99 1.17 1.53zM48.91 96.41a3.28 3.28 0 0 1-2.22-.41 1.65 1.65 0 0 0-1.18-.11A42 42 0 0 1 41 96a5.91 5.91 0 0 1-4.28-1.89 10.42 10.42 0 0 1-3.17-5.82 15.17 15.17 0 0 1-.55-3.86 3.73 3.73 0 0 1 .41-1.69 2.45 2.45 0 0 0 .37-1.94 1 1 0 0 1 .22-.88A22.62 22.62 0 0 0 35.68 77c.63-1.08 1.83-1.74 2.1-3 1.15-.27 1.1-1.62 1.95-2.19.25-.17.38-.53.74-.3s.22.52.14.84A5.86 5.86 0 0 0 41 76c.86 2.2 2.84 3 4.56 4.19a11.61 11.61 0 0 1 3.9 4.22A10.59 10.59 0 0 1 51 89.33c-.31 0-.48.08-.56.44a14.52 14.52 0 0 0 .12 5c.1.73-.1 1.08-.81 1.12-.44-.02-.8.01-.84.52z"/><path class="Bh" d="M48.91 96.41c0-.51.4-.54.8-.56.71 0 .91-.39.81-1.12a14.52 14.52 0 0 1-.12-5c.07-.37.24-.46.56-.44.27 1.47.09 3 .23 4.42.1 1 .76 2 .91 3.06 0 .18.15.35.16.52s.15.54-.15.66-.4-.16-.51-.32c-.66-.93-1.79-.82-2.69-1.22zm124.76 6.96a4.18 4.18 0 0 1-.62 1.45 1.69 1.69 0 0 0-.47 1.42 6.37 6.37 0 0 1-1.25 3.13 15 15 0 0 1-3.22 3.92 1.77 1.77 0 0 1-2 .42c-.42-.17-1.17-.63-1 .54 0 .31-.38.29-.6.24-1.61-.37-3.32-.4-4.73-1.45a6.07 6.07 0 0 0-1.18-.54c-1.45-.65-2.42-1.91-3.61-2.88a29.64 29.64 0 0 0-3.52-2.06c-1.33-.82-2.86-.83-4.17-1.51-.52-.27-1 0-1.4.23s-.75.4-1 0 .08-.82.51-.9c.65-.13.46-.74.72-1.09a19 19 0 0 1 4.61-4.31c.85-.58 2-1.33 3-1s1.75-.32 2.54-.1a21.24 21.24 0 0 0 4.7.36 2.27 2.27 0 0 1 .62.18c2.27.83 4.36 2.06 6.57 3a7.93 7.93 0 0 0 4.47.54c.4-.06.88-.2 1.09.39zm-19.37.84c-.16-1.79-1.08-3.3-3.09-3a2.93 2.93 0 0 0-2.38 2.5c-.29 1.41.29 1.94 1.38 2.55.88.49 1.75 1.13 2.63.56a2.73 2.73 0 0 0 1.46-2.6zm-52.24-80.93a1 1 0 0 0 .74.37 5.68 5.68 0 0 0 1.75 2 5.25 5.25 0 0 1 1 .91 3.44 3.44 0 0 0 2.45 1.39 1.1 1.1 0 0 1 .77 1.28 1.42 1.42 0 0 0 .14.72c1 2.32 1.37 4.86 2.42 7.18a4.37 4.37 0 0 0 .89 1.28c.33.34.26.52-.23.55a7.48 7.48 0 0 1-6.44-2.31 12.69 12.69 0 0 1-1.57-2.6c-.87-1.7-1.43-3.68-3.08-4.92-.53-.4-.86-.29-1.18.27-1.17 2-2.08 4.13-3.17 6.16a4.85 4.85 0 0 1-2.47 2.36c-.89.35-1.81.54-2.69.88s-1.67-.24-2.36.45c-.09.09-.29-.06-.36-.21a.48.48 0 0 1 .22-.64c1.33-.83 1.58-2.29 2-3.58s.67-2.5 1-3.75a9.65 9.65 0 0 1 3.49-5.66c.74-.55 1.42-1.21 2.19-1.76.29.38.64.74 1.11.39s.14-.58-.19-.78a.82.82 0 0 1 .58-.72c0 .14 0 .41.1.42.98.18 1.83 1.39 2.89.32z"/><path class="Bh" d="M108 27.95a3.44 3.44 0 0 1-2.48-1.36 5.25 5.25 0 0 0-1-.91 5.68 5.68 0 0 1-1.75-2c.9-.17 1.46.54 2.05.94a25.6 25.6 0 0 1 2.89 2.61.88.88 0 0 1 .29.72zm-5.94-4.67c-1.07 1.06-1.91-.15-2.86-.3-.05 0-.07-.27-.1-.42a4.4 4.4 0 0 1 2.65 0c.47.1.54.34.31.72zm-3.54 0c.33.2.56.5.19.78s-.82 0-1.11-.39a1.11 1.11 0 0 1 .92-.39zm31.16 18.67a.79.79 0 0 0-.29-.56 1.14 1.14 0 0 1-.23-1.51 1.39 1.39 0 0 0-.35-2 2.63 2.63 0 0 0-2.38.18 21 21 0 0 0-5.13 5.91 6.88 6.88 0 0 0-.81 5.78.9.9 0 0 1-.18.79 7.48 7.48 0 0 1-2.38 1.46c-.35.19-.74-.27-.73-.74a27.75 27.75 0 0 1 .31-6.1 24.21 24.21 0 0 1 .68-2.57.73.73 0 0 1 .1-.26c1-1 1.06-2.76 2.19-3.58 1-.69 1.57-2.13 3.13-1.82a.35.35 0 0 0 .41-.16 5.08 5.08 0 0 1 5-2.84c1.92 0 4.19-.34 5.78 1.69a18.66 18.66 0 0 1 1.64 3.19c-.45 0-.55.32-.55.7v1.68c0 1.5-.66 2.09-2.13 1.93-.22 0-.45-.06-.61.13s-.51.15-.8 0c-.92-.49-1.8-.89-2.67-1.3z"/><path class="Bh" d="M129.68 41.95l2.61 1.26c.3.16.52.33.8 0s.4-.15.61-.13c1.47.17 2.12-.43 2.13-1.93v-1.68c0-.38.1-.68.55-.7a11.9 11.9 0 0 1 0 3.2 2.86 2.86 0 0 1-2.72 2.59c-1.78.13-3.18-.33-3.91-2.09a2.52 2.52 0 0 1-.07-.52zM75 38.39a2.79 2.79 0 0 0-1.51-.79c-1.36-.29-1.65-.08-1.68 1.34a11.17 11.17 0 0 1-.15 3 1.16 1.16 0 0 1-.58.79c-.55-.42-1.2-.29-1.76.4-.17.21-.26.54-.59.52-.75 0-.64.48-.63.94-.76-.36-1.65-.19-2.4-.85a3.16 3.16 0 0 1-.9-3.64.74.74 0 0 0 .11-.44c-.29-1.41.5-2.5 1.13-3.61A4 4 0 0 1 68 34.61a5.22 5.22 0 0 1 3.86-.52 11.73 11.73 0 0 0 2 .43A6.25 6.25 0 0 1 76.7 36c-.56.78-1.53 1.31-1.7 2.39zm4.51-.56c1 .35 1.42 1.24 2 2s1.12 1.73 1.69 2.59a2.2 2.2 0 0 1 .24 1.34 8.68 8.68 0 0 0 .74 2.49c-.57.2-.52.71-.54 1.15v2.14c0 .71-.37.8-.92.82s-.57-.42-.57-.82v-3.07c0-.5-.08-.92-.75-.59-.64-.1-.76-.62-1-1.11a11 11 0 0 0-2.9-4.5 17.2 17.2 0 0 1-1.92-1.68c.2-.12.53-.19.59-.36a2.09 2.09 0 0 1 1.3-1.28c.1 0 .12-.26.17-.4.49.07.75.49 1.11.75-.07.27-.6.51-.14.82a.58.58 0 0 0 .9-.29z"/><path class="Bh" d="M81.36 45.86c.66-.33.75.09.75.59v3.07c0 .4-.07.84.57.82s.9-.25.92-.82v-2.14c0-.44 0-1 .54-1.15a2 2 0 0 1 .18 1.08c0 1.36-.3 2.7-.18 4.06.06.67-.29.7-.82.5-2-.78-2.49-1.72-2.11-4.08a13.8 13.8 0 0 0 .15-1.93zm-13.23-1.31c0-.46-.12-1 .63-.94.33 0 .42-.31.59-.52.56-.69 1.21-.82 1.76-.4a2.81 2.81 0 0 1-2.98 1.86zm9.51-8.02c-.06.14-.08.36-.17.4a2.09 2.09 0 0 0-1.3 1.28c-.06.17-.39.25-.59.36s-.42 0-.56-.18c.15-1.09 1.11-1.61 1.67-2.41.43.02.88-.05.95.55zm1.87 1.3a.58.58 0 0 1-.9.27c-.46-.32.07-.55.14-.82.38.01.58.28.76.55zM97.4 88.27c-2.06-.2-4.16-.46-5.67-2.14a10.46 10.46 0 0 1-1.95-2.77c-.45-1 0-1.94.07-2.9a7.25 7.25 0 0 1 2.71-1.57c.45.06 1 .25 1 .68a9.61 9.61 0 0 1 .14 2.93 1.74 1.74 0 0 0 1.44 2.17 46.29 46.29 0 0 0 8.35.35 14.83 14.83 0 0 0 3.36-.58 1.23 1.23 0 0 0 .91-1.52 1.68 1.68 0 0 1 .16-1.5.73.73 0 0 0 0-.53c-.47-1.78.14-1.84 1.63-1.57 1.88.34 2.49 2.88 1.63 4.33a11.2 11.2 0 0 1-1.67 2.62 7.84 7.84 0 0 1-4.8 1.89 26.67 26.67 0 0 1-4.54.26 9.2 9.2 0 0 0-2.83-.14zm8.2-1.71a.5.5 0 0 0-.47-.57c-.31 0-.45.12-.45.43s.08.64.48.64.42-.23.44-.51zM37.89 50a1 1 0 0 1 .56.57c-.21 0-.31.13-.37.34-.45 1.6 0 3.19 0 4.78 0 .29.29.26.51.26a2.33 2.33 0 0 1-.91 1.33v-.37c-.05-.44-.36-.89-.71-.81s-.19.62-.12 1a6 6 0 0 1-1.13 2.9c-.47.45-.91 1-.26 1.61a.54.54 0 0 1-.56.56c-.32-.58-.9-.6-1.56.1a1.45 1.45 0 0 1-1.23.46.81.81 0 0 0-.22-.67 1.49 1.49 0 0 1-.57-1.91c.15-.39-.09-.64-.53-.6a5.75 5.75 0 0 1-2-2.37c-.13-.35-.51-.34-.63.14a1.91 1.91 0 0 1-1.08-1.69 4.33 4.33 0 0 0-.41-1.67c.45-.07.34-.43.38-.72.11-.78-.25-1.52-.19-2.3a1.23 1.23 0 0 0-.62-1.33c-.5-.29-.33-.8-.22-1.25.07-.29.42-.46.37-.88-.62.13-1 .4-1 1.07a.66.66 0 0 1-.6-.38 15.71 15.71 0 0 0-1.27-2.43.65.65 0 0 1 .1-.92c.13-.11.34-.27.16-.45s-.41 0-.54.15c-.3.45-.52.31-.75-.05a3.63 3.63 0 0 0-.92-.77c-.26-.21-.87-.34-.52-.78a.82.82 0 0 1 1.17 0c.49.81.59.43.87-.12.2-.39.68-.3 1-.19a6 6 0 0 1 1.85.57s.14.09.16.08c1-.71 1.77.29 2.67.24.24 0 .64-.08.69.14.23.93.92.66 1.55.74a4.85 4.85 0 0 1 2.11 1.21c.35.26.69.59 1 .89 0 .56.37.83.76 1.22a4.8 4.8 0 0 1 1.52 1.76c.42.98.92 1.15 1.49.54z"/><path class="Bh" d="M35.48 61.54c-.65-.65-.22-1.15.26-1.61A6 6 0 0 0 36.87 57c-.07-.35-.28-.87.12-1s.66.37.71.81v.37a3.24 3.24 0 0 1-1.2 3.1c-.38.44-.32 1.19-1.02 1.26zM25.39 48.48c0-.67.41-.94 1-1.07.06.42-.29.58-.37.88-.11.46-.28 1 .22 1.25a1.23 1.23 0 0 1 .62 1.33c-.06.78.3 1.52.19 2.3 0 .29.07.65-.38.72a.38.38 0 0 1-.36-.45 6 6 0 0 0-.65-3.13 3.71 3.71 0 0 1-.27-1.83zM37.89 50c-.58.64-1.07.48-1.44-.57a4.8 4.8 0 0 0-1.52-1.76c-.4-.38-.74-.66-.76-1.22.95-.12 1.4.71 2 1.15a3.36 3.36 0 0 1 1.72 2.4zm-5.76 12.66a1.45 1.45 0 0 0 1.23-.46c.67-.71 1.24-.68 1.56-.1a5.75 5.75 0 0 1-2.12 2.13c-.31.24-.61 0-.66-.36a10.9 10.9 0 0 1-.01-1.21zm6.5-6.74c-.22 0-.5 0-.51-.26-.07-1.59-.48-3.18 0-4.78.06-.21.15-.32.37-.34a1.19 1.19 0 0 1 .29 1.18 3 3 0 0 0-.07 1.37 7.15 7.15 0 0 1-.08 2.83zm-10.44 1.33c.12-.48.5-.49.63-.14a5.75 5.75 0 0 0 2 2.37c0 .25.11.59-.25.71a.61.61 0 0 1-.71-.29c-.6-.9-1.63-1.45-1.67-2.65zm27.99 55.58c.3-1.41 1.51-1.93 2.58-2.55a4.93 4.93 0 0 1 .93-.38 6.43 6.43 0 0 1 4.69.28c1 .42 1.54 1.27 2.45 1.69.1 0 .12.27.18.4-.78 0-.56.57-.54 1 0 .71.58.26.89.33-.37.61-1.11.59-1.65.84a4 4 0 0 0-1.93 1.76 13.2 13.2 0 0 1-5.23 5.05c-1.24.74-2.74.83-3.88 1.82-.53.47-1.35-.08-1.24-.86a10.86 10.86 0 0 0-.21-2.54 5.62 5.62 0 0 1 .36-3.07c.24.11.12.62.54.52a.74.74 0 0 0 .56-.66 2.71 2.71 0 0 1 1.16-1.72c.87-.74.95-.93.34-1.91z"/><path class="Bh" d="M67.35 113.56c-.32-.07-.85.39-.89-.33 0-.39-.25-1 .54-1 .56.35.33.88.35 1.33zm36.46-18.9a51.45 51.45 0 0 1-6.92-.11 10.57 10.57 0 0 1-2.19-.69 9 9 0 0 1-1.94-.86 5.34 5.34 0 0 1-1.94-2.34c-.22-.4.06-.71.33-1s.58-.18.93-.05a10.94 10.94 0 0 1 3.25 1.8c.82.66 2.09.39 3.15.43 1.73.06 3.48-.1 5.19-.06a4.43 4.43 0 0 0 3.87-1.42c.64-.7 1.9-.57 2.92-.5.28 0 .42.28.26.56a5.4 5.4 0 0 1-2.21 2.38c-1 .52-2 1.19-3.29 1-.29-.05-.38.28-.55.45s-.47.53-.86.41zM101.49 3.7a2 2 0 0 1 1.21 1.71 11.22 11.22 0 0 0 .67 1.82 14.07 14.07 0 0 1-.17 8.3 6.35 6.35 0 0 1-1.57 2.72 1.2 1.2 0 0 1-1.75.07 4.64 4.64 0 0 1-1.68-2.55 18.63 18.63 0 0 1-.8-5.77 6.11 6.11 0 0 1 .6-2.54A3 3 0 0 0 98.34 6a1.44 1.44 0 0 1 .75-1.39c.35.5.74.53.88-.09s.42-.67.9-.67a2.3 2.3 0 0 0 .62-.15z"/><path class="Bh" d="M101.49 3.7a2.3 2.3 0 0 1-.61.17c-.49 0-.77.11-.9.67s-.53.59-.88.09a3.42 3.42 0 0 1 .86-1.87c.27-.27.5-.66 1-.51s.4.57.52.9a1.85 1.85 0 0 1 .01.55zM130.24 79c0 1.75-.73 2.25-2.15 2.8-1 .4-2.39.18-3.13 1.39-.25.41-.95.3-1.41.15s-.41-.64-.41-1c0-1.77 1.17-2.8 2.44-3.7.8-.57 1.28-1.46 2.16-2 .25-.14 0-.76.19-1.15s.4-.53.84-.19c1.35.97 1.07 2.56 1.47 3.7zm-51.88 2.85l.19 1.28c0 .23 0 .61-.3.54a4.64 4.64 0 0 1-1.81-.57 3.53 3.53 0 0 0-1.49-.66 17 17 0 0 1-2.81-1.09c-1.4-.48-1.75-2.78-.75-3.95.45-.53.37-1.24.7-1.79.19-.31.28-.77.72-.76s.33.47.47.72a11.53 11.53 0 0 0 1.55 2.18c-.86 0-.51.39-.23.8.67 1 1.78 1.56 2.35 2.58a1.2 1.2 0 0 0 1.41.72z"/><path class="Bh" d="M78.36 81.85a1.2 1.2 0 0 1-1.41-.7c-.57-1-1.67-1.61-2.35-2.58-.29-.41-.63-.75.23-.8 1.46 1.12 3.02 2.14 3.53 4.08zm3.56-1.48c.29 0 .58-.31.86 0a8.49 8.49 0 0 1 1.55 2.69 1.44 1.44 0 0 1-.47 1.52c-.19.18-.58.31-.28.64a.6.6 0 0 0 .91 0c.23-.23.6-.53.56 0-.12 1.65.61 3.32-.13 5-.12.26-.13.6-.49.56s-.26-.43-.28-.68a3.88 3.88 0 0 1 .21-1.74c.18-.46 0-.66-.4-.38s-.69.14-.66-.22c.08-1.05-.81-1.54-1.26-2.26a5.5 5.5 0 0 1-.69-3.2c0-.12 0-.33.08-.35 1.11-.25.43-1 .47-1.59zm34.51 8.37a12.65 12.65 0 0 0 0-4.14 1.34 1.34 0 0 1 .66-1.51.75.75 0 0 0 .41-.69c-.14-.81.63-1.22.76-1.91.07-.38.45-.38.76-.2a.87.87 0 0 1 .41.69c.25 1.91.71 3.76-.83 5.5a4.11 4.11 0 0 0-1.27 2.89c0 .33 0 1-.5.94s-.38-.62-.4-1v-.57zM100.48-19.43A2.71 2.71 0 0 1 103-17a2.59 2.59 0 0 1-2.5 2.58c-1.37 0-2.13-1-2.15-2.87a2 2 0 0 1 2.13-2.17zm.15 4.48a1.88 1.88 0 0 0 1.8-2 2.08 2.08 0 0 0-1.85-2.06 1.79 1.79 0 0 0-1.85 1.89 2.07 2.07 0 0 0 1.89 2.12zM59 102.19c-.32 0-1 .14-1-.12-.18-1-1.41-1.32-1.31-2.55.17-2 .94-3 2.75-3.05a3 3 0 0 1 2.88 2.85c0 1.85-1.19 2.86-3.33 2.87zm.45-.56a2.15 2.15 0 0 0 2.29-2.37A2.31 2.31 0 0 0 59.32 97a2.21 2.21 0 0 0-2.2 2.45 2.65 2.65 0 0 0 2.34 2.18zm94.85 2.59a2.73 2.73 0 0 1-1.46 2.65c-.88.57-1.75-.07-2.63-.56-1.09-.61-1.67-1.14-1.38-2.55a2.93 2.93 0 0 1 2.38-2.5c2-.33 2.93 1.18 3.09 3zm-5 0a2.87 2.87 0 0 0 2.44 2.32 2.42 2.42 0 0 0 2.21-2.22 2.8 2.8 0 0 0-2.2-2.63 2.69 2.69 0 0 0-2.48 2.48zm-43.7-17.66c0 .28-.14.49-.44.5s-.48-.3-.48-.64.14-.46.45-.43a.5.5 0 0 1 .47.57z"/></g><path class="Bh" d="M66.62 246.68h-7.15l-11.56-34.4H31.78v-2.49h15.3l-10.62-31.81-22.92 68.7h-2.42l27.66-82.48 27.84 82.48zm74.87 0h-6.83l-3.56-61.74-23.32 62.99-23.94-62.02-3.39 60.77h-2.26l4.69-82.63 27.62 71.54 26.3-71.53 4.69 82.62zm62.34 0h-7.16l-11.55-34.4h-16.13v-2.49h15.29l-10.61-31.81-22.92 68.7h-2.43l27.67-82.48 27.84 82.48zm56.74 1.25l-43.08-67.58v66.33h-2.09V164.2l43.08 66.92v-65.61h2.09v82.42z"/><path class="Bi" d="M273.78 165.51h6.83v81.11h-6.83z"/><path d="M0 253.8h291.73v1.73H0z" fill="url(#B-2)"/></svg>