<?xml version="1.0"?>
<svg xmlns="http://www.w3.org/2000/svg" height="512px" viewBox="0 -3 491.24763 491" width="512px" class=""><g><path d="m334.953125 408.921875 4.222656-5.597656c1.707031-2.5 3.945313-4.59375 6.550781-6.136719 5.554688-2.394531 11.617188-3.371094 17.640626-2.847656 7.363281.921875 14.828124-.585938 21.257812-4.289063 4.605469-5.4375 7.324219-12.226562 7.742188-19.34375.535156-6.441406 2.667968-12.648437 6.207031-18.054687 4.664062-4.339844 10.339843-7.4375 16.511719-9.007813l4.480468-1.722656 4.800782-1.78125 58.855468 58.703125-62.183594 17-17.015624 62.152344zm0 0" fill="#78b9eb" data-original="#78B9EB" class="active-path" style="fill:#020202" data-old_color="#060607"/><path d="m70.222656 415.835938-62.160156-16.992188 58.992188-58.984375 4.960937 2.082031c1.289063.550782 2.585937 1.101563 3.878906 1.511719 6.304688 1.675781 12.097657 4.878906 16.867188 9.328125 3.414062 5.214844 5.480469 11.195312 6.015625 17.40625.402344 7.300781 3.15625 14.277344 7.847656 19.886719 6.183594 3.628906 13.382812 5.128906 20.503906 4.28125 6.429688-.585938 12.902344.476562 18.808594 3.089843 2.4375 1.511719 4.527344 3.523438 6.132812 5.902344l4.226563 5.601563-69.074219 69.046875zm0 0" fill="#78b9eb" data-original="#78B9EB" class="active-path" style="fill:#020202" data-old_color="#060607"/><path d="m245.625 64.445312c-88.367188 0-160 71.632813-160 160 0 88.363282 71.632812 160 160 160 88.363281 0 160-71.636718 160-160-.101562-88.324218-71.675781-159.898437-160-160zm0 280c-66.273438 0-120-53.726562-120-120 0-66.277343 53.726562-120 120-120s120 53.722657 120 120c-.074219 66.242188-53.757812 119.921876-120 120zm0 0" fill="#78b9eb" data-original="#78B9EB" class="active-path" style="fill:#020202" data-old_color="#060607"/><g fill="#1a6fb0"><path d="m253.625 168.445312c0-3.238281-1.949219-6.152343-4.941406-7.390624-2.988282-1.238282-6.429688-.554688-8.714844 1.734374l-32 32 11.3125 11.3125 18.34375-18.347656v84.691406h-16v16h48v-16h-16zm0 0" data-original="#000000" class="" style="fill:#000000"/><path d="m413.625 224.445312c0-92.785156-75.21875-168-168-168-92.785156 0-168 75.214844-168 168 0 92.78125 75.214844 168 168 168 92.738281-.105468 167.894531-75.261718 168-168zm-168 152c-83.949219 0-152-68.054687-152-152 0-83.949218 68.050781-152 152-152 83.945312 0 152 68.050782 152 152-.09375 83.90625-68.09375 151.90625-152 152zm0 0" data-original="#000000" class="" style="fill:#000000"/><path d="m245.625 96.445312c-70.695312 0-128 57.304688-128 128 0 70.691407 57.304688 128 128 128 70.691406 0 128-57.308593 128-128-.085938-70.660156-57.34375-127.917968-128-128zm0 240c-61.855469 0-112-50.144531-112-112 0-61.855468 50.144531-112 112-112s112 50.144532 112 112c-.066406 61.828126-50.171875 111.933594-112 112zm0 0" data-original="#000000" class="" style="fill:#000000"/><path d="m488.902344 393.164062-52.480469-52.398437c1.316406-1.238281 2.472656-2.636719 3.441406-4.160156 3.5625-8.269531 4.128907-17.519531 1.601563-26.160157-1.296875-4.882812-1.515625-9.988281-.640625-14.960937 2.492187-4.25 5.878906-7.90625 9.917969-10.71875 7.585937-5.085937 13.179687-12.628906 15.839843-21.363281.460938-8.925782-2.167969-17.738282-7.4375-24.957032-2.921875-4.199218-4.914062-8.972656-5.839843-14 .925781-5.03125 2.917968-9.804687 5.839843-14 5.269531-7.222656 7.898438-16.035156 7.4375-24.960937-2.660156-8.734375-8.253906-16.277344-15.839843-21.359375-4.039063-2.816406-7.425782-6.472656-9.917969-10.722656-.875-4.972656-.65625-10.078125.640625-14.957032 2.527344-8.640624 1.960937-17.894531-1.601563-26.160156-5.441406-7.257812-13.253906-12.382812-22.078125-14.480468-4.808594-1.304688-9.28125-3.625-13.121094-6.800782-2.457031-4.355468-3.957031-9.179687-4.398437-14.160156-.617187-9.019531-4.316406-17.550781-10.480469-24.160156-7.5625-4.960938-16.613281-7.140625-25.601562-6.160156-4.988282.421874-10.007813-.230469-14.71875-1.917969-3.761719-3.25-6.789063-7.257813-8.882813-11.761719-3.679687-8.3125-10.125-15.09375-18.238281-19.199219-8.746094-2.070312-17.941406-1.023437-26 2.960938-4.59375 2.109375-9.582031 3.226562-14.640625 3.277343-4.566406-1.757812-8.730469-4.425781-12.238281-7.839843-6.3125-6.636719-14.746094-10.851563-23.839844-11.917969-9.097656 1.066406-17.53125 5.28125-23.839844 11.917969-3.511718 3.414062-7.671875 6.082031-12.242187 7.839843-5.054688-.042968-10.046875-1.160156-14.640625-3.277343-8.054688-3.984375-17.25-5.03125-26-2.960938-8.109375 4.105469-14.554688 10.886719-18.238282 19.199219-2.09375 4.503906-5.121093 8.511719-8.878906 11.761719-4.714844 1.6875-9.734375 2.339843-14.722656 1.917969-8.988281-.980469-18.039062 1.199218-25.597656 6.160156-6.179688 6.601562-9.882813 15.136718-10.480469 24.160156-.445313 4.980469-1.945313 9.804688-4.402344 14.160156-3.824219 3.175782-8.304687 5.472656-13.117187 6.71875-8.820313 2.164063-16.621094 7.304688-22.082032 14.5625-3.558593 8.265625-4.125 17.519532-1.597656 26.160156 1.292969 4.878907 1.511719 9.984376.636719 14.957032-2.492187 4.25-5.875 7.90625-9.917969 10.722656-7.582031 5.082031-13.179687 12.625-15.839844 21.359375-.457031 8.925781 2.167969 17.738281 7.441407 24.960937 2.921875 4.195313 4.914062 8.96875 5.839843 14-.925781 5.027344-2.917968 9.800782-5.839843 14-5.273438 7.21875-7.898438 16.03125-7.441407 24.957032 2.660157 8.734375 8.257813 16.277344 15.839844 21.363281 4.042969 2.8125 7.425782 6.46875 9.917969 10.71875.875 4.972656.65625 10.078125-.636719 14.960937-2.527344 8.640626-1.960937 17.890626 1.597656 26.160157.96875 1.523437 2.125 2.921875 3.441407 4.160156l-52.480469 52.398437c-2.015625 2.039063-2.804688 4.988282-2.078125 7.757813.742187 2.757813 2.910156 4.898437 5.679687 5.601563l57.839844 15.761718 15.757813 57.839844c.703125 2.765625 2.84375 4.9375 5.601562 5.679688.679688.15625 1.378907.238281 2.078125.238281 2.125.007812 4.167969-.828125 5.679688-2.320313l61.519531-61.597656c3.226563 5.867188 8.324219 10.484375 14.480469 13.117188 8.75 2.074218 17.945312 1.027343 26-2.957032 4.582031-2.15625 9.578125-3.277344 14.640625-3.28125 4.570312 1.761719 8.730469 4.425782 12.242187 7.839844 6.308594 6.636719 14.742188 10.851562 23.839844 11.921875 9.09375-1.070313 17.527344-5.285156 23.839844-11.921875 3.507812-3.414062 7.671875-6.078125 12.238281-7.839844 5.0625.003906 10.0625 1.125 14.640625 3.28125 8.058594 3.984375 17.253906 5.03125 26 2.957032 6.15625-2.632813 11.253906-7.25 14.480469-13.117188l61.519531 61.597656c1.511719 1.492188 3.554688 2.328125 5.679688 2.320313.699218 0 1.398437-.082031 2.082031-.238281 2.753906-.742188 4.894531-2.914063 5.597656-5.679688l15.761719-57.839844 57.839844-15.761718c2.765624-.703126 4.9375-2.84375 5.679687-5.601563.722656-2.769531-.066406-5.71875-2.082031-7.757813zm-397.597656 69.441407-13.359376-48.882813c-.734374-2.730468-2.867187-4.867187-5.601562-5.597656l-48.878906-13.359375 45.4375-45.441406c1.519531.640625 3.042968 1.28125 4.5625 1.757812 4.808594 1.308594 9.28125 3.625 13.117187 6.800781 2.457031 4.355469 3.957031 9.183594 4.402344 14.160157.613281 9.019531 4.3125 17.550781 10.480469 24.160156 7.558594 4.960937 16.609375 7.140625 25.597656 6.160156 4.988281-.421875 10.007812.230469 14.722656 1.921875 1.554688 1.03125 2.886719 2.363282 3.917969 3.917969zm235.4375-54.722657c-3.199219 5.441407-6.476563 11.121094-9.839844 12.320313-5.246094.347656-10.488282-.703125-15.199219-3.039063-7.144531-3.222656-14.988281-4.570312-22.800781-3.921874-7.398438 2-14.152344 5.886718-19.597656 11.28125-4.882813 4.082031-9.921876 8.242187-13.679688 8.242187-3.761719 0-8.800781-4.160156-13.679688-8.242187-5.445312-5.394532-12.199218-9.28125-19.601562-11.28125-1.425781-.25-2.871094-.382813-4.320312-.398438-6.355469.417969-12.597657 1.878906-18.480469 4.320312-4.707031 2.335938-9.953125 3.386719-15.199219 3.039063-3.359375-1.199219-6.640625-6.878906-9.839844-12.320313-3.3125-6.964843-8.351562-12.96875-14.640625-17.4375-7.070312-3.28125-14.867187-4.6875-22.640625-4.082031-5.265625.542969-10.585937-.285156-15.4375-2.398437-2.964844-4.398438-4.703125-9.507813-5.042968-14.800782-.734376-7.761718-3.464844-15.203124-7.917969-21.601562-5.511719-5.464844-12.347657-9.410156-19.839844-11.4375-5.15625-1.285156-9.894531-3.875-13.761719-7.519531-1.25-5.140625-1.140625-10.519531.320313-15.601563 1.976562-7.558594 1.949219-15.496094-.078125-23.039062-3.28125-6.941406-8.296875-12.921875-14.5625-17.359375-4.878906-4.160157-9.839844-8.402344-10.480469-12 .632813-5.171875 2.558594-10.09375 5.601563-14.320313 4.507812-6.460937 7.238281-13.992187 7.921874-21.839844-.683593-7.847656-3.414062-15.378906-7.921874-21.839843-3.042969-4.226563-4.96875-9.152344-5.601563-14.320313.640625-3.601562 5.601563-7.839844 10.480469-12 6.265625-4.441406 11.28125-10.421875 14.5625-17.363281 2.027344-7.539063 2.054687-15.480469.078125-23.039063-1.460938-5.082031-1.570313-10.460937-.320313-15.597656 3.84375-3.675781 8.59375-6.269531 13.761719-7.519531 7.492187-2.03125 14.328125-5.972656 19.839844-11.441406 4.453125-6.398438 7.183593-13.839844 7.917969-21.601563.339843-5.292968 2.078124-10.398437 5.042968-14.800781 4.851563-2.113281 10.171875-2.941406 15.4375-2.398437 7.773438.605468 15.570313-.796876 22.640625-4.078126 6.289063-4.472656 11.328125-10.476562 14.640625-17.441406 3.199219-5.441406 6.480469-11.121094 9.839844-12.320312 5.246094-.347656 10.492188.703125 15.199219 3.039062 7.144531 3.222656 14.992187 4.574219 22.800781 3.921875 7.402344-2 14.15625-5.886719 19.601562-11.28125 4.878907-4.078125 9.917969-8.238281 13.679688-8.238281 3.757812 0 8.796875 4.160156 13.679688 8.238281 5.445312 5.394531 12.199218 9.28125 19.597656 11.28125 7.8125.652344 15.65625-.699219 22.800781-3.921875 4.710937-2.335937 9.953125-3.386718 15.199219-3.039062 3.363281 1.199218 6.640625 6.878906 9.839844 12.320312 3.3125 6.964844 8.355468 12.96875 14.640624 17.441406 7.070313 3.28125 14.871094 4.683594 22.640626 4.078126 5.269531-.542969 10.585937.285156 15.441406 2.398437 2.960937 4.402344 4.703125 9.507813 5.039062 14.800781.738282 7.761719 3.464844 15.203125 7.917969 21.601563 5.511719 5.46875 12.347656 9.410156 19.84375 11.441406 5.15625 1.28125 9.894531 3.871094 13.757813 7.519531 1.253906 5.136719 1.140624 10.515625-.320313 15.597656-1.972656 7.558594-1.945313 15.5.082031 23.039063 3.28125 6.941406 8.292969 12.921875 14.558594 17.363281 4.878906 4.160156 9.839844 8.398438 10.480469 12-.632813 5.167969-2.558594 10.09375-5.601563 14.320313-4.503906 6.460937-7.234375 13.992187-7.917968 21.839843.683593 7.847657 3.414062 15.378907 7.917968 21.839844 3.042969 4.226563 4.96875 9.148438 5.601563 14.320313-.640625 3.597656-5.601563 7.839843-10.480469 12-6.265625 4.4375-11.277344 10.417969-14.558594 17.359375-2.027344 7.542968-2.054687 15.480468-.082031 23.039062 1.460937 5.082032 1.574219 10.460938.320313 15.601563-3.84375 3.675781-8.589844 6.269531-13.757813 7.519531-7.496094 2.027344-14.332031 5.972656-19.84375 11.4375-4.453125 6.398438-7.179687 13.839844-7.917969 21.601562-.335937 5.292969-2.078125 10.402344-5.039062 14.800782-4.855469 2.113281-10.171875 2.941406-15.441406 2.398437-7.769532-.605469-15.570313.800781-22.640626 4.082031-6.285156 4.46875-11.328124 10.472657-14.640624 17.4375zm92.160156.242188c-2.730469.730469-4.867188 2.867188-5.597656 5.597656l-13.359376 48.882813-54.402343-54.402344c1.03125-1.554687 2.367187-2.886719 3.921875-3.917969 4.710937-1.691406 9.730468-2.34375 14.71875-1.921875 8.988281.980469 18.039062-1.199219 25.601562-6.160156 6.175782-6.601563 9.878906-15.136719 10.480469-24.160156.441406-4.976563 1.941406-9.804688 4.398437-14.160157 3.824219-3.175781 8.304688-5.46875 13.121094-6.71875 1.519532-.558593 3.039063-1.199218 4.558594-1.761718l45.441406 45.363281zm0 0" data-original="#000000" class="" style="fill:#000000"/></g></g> </svg>
