<?xml version="1.0"?>
<svg xmlns="http://www.w3.org/2000/svg" height="512px" viewBox="0 -3 491.26847 491" width="512px" class=""><g><path d="m334.933594 408.933594 4.226562-5.597656c1.707032-2.503907 3.941406-4.597657 6.550782-6.136719 5.554687-2.394531 11.613281-3.371094 17.640624-2.847657 7.363282.917969 14.824219-.585937 21.253907-4.289062 4.609375-5.4375 7.328125-12.226562 7.746093-19.34375.53125-6.441406 2.667969-12.648438 6.207032-18.054688 4.660156-4.34375 10.339844-7.441406 16.511718-9.011718l4.480469-1.71875 4.800781-1.785156 58.855469 58.707031-62.183593 17-17.015626 62.152343zm0 0" fill="#78b9eb" data-original="#78B9EB" class="active-path" style="fill:#070707" data-old_color="#0B0B0B"/><path d="m70.207031 415.847656-62.160156-16.992187 58.992187-58.984375 4.960938 2.078125c1.285156.554687 2.582031 1.105469 3.878906 1.511719 6.300782 1.679687 12.09375 4.882812 16.863282 9.328124 3.414062 5.21875 5.480468 11.199219 6.015624 17.410157.40625 7.300781 3.160157 14.277343 7.847657 19.886719 6.183593 3.625 13.386719 5.128906 20.503906 4.28125 6.429687-.585938 12.902344.476562 18.808594 3.085937 2.4375 1.515625 4.527343 3.527344 6.136719 5.90625l4.222656 5.597656-69.070313 69.050781zm0 0" fill="#78b9eb" data-original="#78B9EB" class="active-path" style="fill:#070707" data-old_color="#0B0B0B"/><path d="m245.605469 64.453125c-88.363281 0-160 71.636719-160 160 0 88.367187 71.636719 160 160 160 88.367187 0 160-71.632813 160-160-.101563-88.324219-71.675781-159.898437-160-160zm0 280c-66.273438 0-120-53.726563-120-120s53.726562-120 120-120c66.273437 0 120 53.726563 120 120-.074219 66.246094-53.757813 119.925781-120 120zm0 0" fill="#78b9eb" data-original="#78B9EB" class="active-path" style="fill:#070707" data-old_color="#0B0B0B"/><g fill="#1a6fb0"><path d="m253.605469 160.453125h-40v16h40c4.417969 0 8 3.582031 8 8v32h-48v16h48v32c0 4.417969-3.582031 8-8 8h-40v16h40c13.253906 0 24-10.742187 24-24v-80c0-13.253906-10.746094-24-24-24zm0 0" data-original="#000000" class="" style="fill:#000000" data-old_color="#0C0A0A"/><path d="m413.605469 224.453125c0-92.78125-75.214844-168-168-168-92.78125 0-168 75.21875-168 168 0 92.785156 75.21875 168 168 168 92.742187-.105469 167.894531-75.257813 168-168zm-168 152c-83.945313 0-152-68.050781-152-152 0-83.945313 68.054687-152 152-152 83.949219 0 152 68.054687 152 152-.09375 83.910156-68.089844 151.910156-152 152zm0 0" data-original="#000000" class="" style="fill:#000000" data-old_color="#0C0A0A"/><path d="m245.605469 96.453125c-70.691407 0-128 57.308594-128 128 0 70.695313 57.308593 128 128 128 70.691406 0 128-57.304687 128-128-.082031-70.65625-57.339844-127.914063-128-128zm0 240c-61.855469 0-112-50.144531-112-112s50.144531-112 112-112 112 50.144531 112 112c-.066407 61.828125-50.171875 111.933594-112 112zm0 0" data-original="#000000" class="" style="fill:#000000" data-old_color="#0C0A0A"/><path d="m488.863281 393.191406-52.449219-52.386718c1.316407-1.246094 2.460938-2.65625 3.417969-4.199219 3.546875-8.277344 4.113281-17.535157 1.597657-26.183594-1.277344-4.878906-1.507813-9.96875-.679688-14.945313 2.539062-4.21875 5.929688-7.867187 9.953125-10.710937 7.597656-5.0625 13.191406-12.621094 15.816406-21.367187.472657-8.925782-2.15625-17.742188-7.441406-24.953126-2.902344-4.199218-4.875-8.96875-5.792969-13.992187.925782-5.023437 2.90625-9.792969 5.816406-13.992187 5.285157-7.207032 7.914063-16.023438 7.441407-24.949219-2.621094-8.75-8.214844-16.304688-15.816407-21.371094-4.011718-2.84375-7.390624-6.492187-9.921874-10.710937-.828126-4.96875-.59375-10.058594.679687-14.933594 2.515625-8.65625 1.949219-17.917969-1.597656-26.203125-5.445313-7.246094-13.234375-12.375-22.039063-14.519531-4.8125-1.300782-9.292968-3.601563-13.152344-6.75-2.449218-4.363282-3.949218-9.191407-4.410156-14.167969-.59375-9.027344-4.296875-17.566407-10.480468-24.167969-7.5625-4.953125-16.609376-7.125-25.597657-6.144531-5.003906.402343-10.035156-.25-14.769531-1.921875-3.742188-3.246094-6.769531-7.242188-8.878906-11.726563-3.648438-8.332031-10.082032-15.136719-18.199219-19.25-8.75-2.050781-17.9375-1-25.992187 2.976563-4.597657 2.136718-9.601563 3.257812-14.671876 3.289062-4.570312-1.753906-8.726562-4.4375-12.199218-7.886718-6.335938-6.625-14.785156-10.832032-23.890625-11.890626-9.09375 1.066407-17.535157 5.269532-23.863281 11.890626-3.472657 3.449218-7.628907 6.132812-12.199219 7.886718-5.070313-.03125-10.074219-1.152344-14.671875-3.289062-8.058594-3.972656-17.246094-5.027344-25.992188-2.976563-8.117187 4.109375-14.550781 10.914063-18.191406 19.25-2.113281 4.488281-5.144531 8.484375-8.898438 11.726563-4.730468 1.671875-9.757812 2.328125-14.757812 1.921875-8.988281-.980469-18.035156 1.191406-25.601562 6.144531-6.183594 6.597656-9.890626 15.140625-10.480469 24.167969-.457031 4.976562-1.957031 9.800781-4.398438 14.160156-3.863281 3.144531-8.34375 5.445313-13.152343 6.75-8.8125 2.140625-16.609376 7.28125-22.046876 14.535156-3.550781 8.28125-4.117187 17.535157-1.601562 26.183594 1.269531 4.882813 1.492188 9.972656.65625 14.945313-2.53125 4.21875-5.90625 7.867187-9.921875 10.710937-7.597656 5.066406-13.191406 12.621094-15.8125 21.371094-.472656 8.921875 2.152344 17.738281 7.429687 24.949219 2.914063 4.199218 4.902344 8.96875 5.824219 13.992187-.921875 5.027344-2.910156 9.796875-5.824219 13.992187-5.277343 7.214844-7.902343 16.027344-7.429687 24.953126 2.621094 8.746093 8.214844 16.304687 15.8125 21.367187 4.015625 2.847656 7.390625 6.492187 9.921875 10.710937.828125 4.972657.597656 10.0625-.679688 14.9375-2.515624 8.65625-1.949218 17.914063 1.601563 26.199219.953125 1.539063 2.101563 2.945313 3.414063 4.191407l-52.390626 52.386718c-2.023437 2.015625-2.816406 4.957032-2.082031 7.714844.730469 2.757812 2.878907 4.917969 5.632813 5.667969l57.832031 15.753906 15.75 57.832031c.761719 2.738282 2.917969 4.871094 5.664063 5.597656.671874.175782 1.363281.265626 2.058593.265626 2.121094.003906 4.160157-.839844 5.65625-2.34375l61.542969-61.53125c3.257812 5.835937 8.339844 10.441406 14.464844 13.113281 8.746094 2.042969 17.933594.992187 25.992187-2.976563 4.601563-2.125 9.601563-3.246094 14.671875-3.285156 4.570313 1.75 8.726563 4.4375 12.199219 7.886719 6.332031 6.621093 14.773437 10.824219 23.871094 11.886719 9.097656-1.0625 17.535156-5.265626 23.863281-11.886719 3.476562-3.449219 7.628906-6.136719 12.203125-7.886719 5.066406.042969 10.066406 1.164062 14.671875 3.285156 8.058594 3.96875 17.242188 5.019532 25.992188 2.976563 6.128906-2.667969 11.214843-7.273438 14.46875-13.113281l61.601562 61.5625c1.496094 1.503906 3.53125 2.347656 5.65625 2.34375.695312 0 1.382812-.089844 2.054688-.265626 2.75-.726562 4.90625-2.859374 5.664062-5.597656l15.753906-57.832031 57.832032-15.753906c2.753906-.746094 4.902343-2.90625 5.632812-5.667969.734375-2.757812-.058594-5.699219-2.082031-7.714844zm-397.5625 69.453125-13.335937-48.933593c-.746094-2.726563-2.875-4.855469-5.597656-5.601563l-48.945313-13.351563 45.457031-45.382812c1.519532.605469 3.054688 1.207031 4.542969 1.757812 4.808594 1.300782 9.292969 3.601563 13.152344 6.753907 2.445312 4.359375 3.949219 9.1875 4.40625 14.167969.59375 9.023437 4.300781 17.566406 10.480469 24.167968 7.566406 4.949219 16.613281 7.121094 25.601562 6.144532 5.003906-.40625 10.035156.25 14.769531 1.917968 1.542969 1.058594 2.871094 2.398438 3.910157 3.953125zm235.433594-54.710937c-3.199219 5.433594-6.488281 11.046875-9.886719 12.296875-5.246094.351562-10.492187-.691407-15.203125-3.023438-7.125-3.265625-14.96875-4.640625-22.78125-4-7.402343 2.019531-14.160156 5.914063-19.617187 11.3125-4.894532 4.046875-9.960938 8.222657-13.679688 8.222657s-8.800781-4.175782-13.679687-8.222657c-5.449219-5.375-12.191407-9.253906-19.578125-11.265625-1.410156-.246094-2.839844-.367187-4.269532-.359375-6.371093.390625-12.628906 1.855469-18.511718 4.328125-4.703125 2.3125-9.929688 3.355469-15.160156 3.023438-3.410157-1.246094-6.695313-6.871094-9.890626-12.304688-3.300781-6.992187-8.351562-13.015625-14.664062-17.488281-7.066406-3.285156-14.863281-4.6875-22.628906-4.070313-5.261719.574219-10.582032-.253906-15.417969-2.402343-2.960937-4.40625-4.703125-9.515625-5.046875-14.8125-.726562-7.75-3.449219-15.175781-7.898438-21.5625-5.507812-5.464844-12.335937-9.410157-19.820312-11.457031-5.601562-2.085938-12-4.445313-13.777344-7.542969-1.261718-5.121094-1.148437-10.484375.320313-15.550781 1.957031-7.5625 1.929687-15.5-.082031-23.046876-3.289063-6.964843-8.320313-12.957031-14.605469-17.402343-4.800781-4.101563-9.785157-8.34375-10.402344-12 .589844-5.171875 2.519531-10.105469 5.601563-14.304688 4.460937-6.480469 7.171874-14.007812 7.871093-21.847656-.699219-7.847656-3.421875-15.382813-7.894531-21.871094-3.082031-4.199219-5.011719-9.128906-5.601562-14.304687.632812-3.613282 5.601562-7.855469 10.402343-12 6.285157-4.445313 11.316407-10.4375 14.605469-17.398438 2.011719-7.546875 2.039062-15.488281.082031-23.046875-1.46875-5.066406-1.582031-10.429687-.320312-15.554687 1.808593-3.101563 8.167969-5.464844 13.78125-7.550782 7.488281-2.046874 14.316406-5.992187 19.824219-11.457031 4.445312-6.382812 7.160156-13.808593 7.890624-21.550781.339844-5.300781 2.082032-10.414062 5.046876-14.816406 4.835937-2.148438 10.15625-2.976563 15.417968-2.398438 7.765625.613282 15.5625-.789062 22.628906-4.074218 6.316407-4.46875 11.371094-10.496094 14.664063-17.496094 3.199219-5.429688 6.488281-11.046875 9.890625-12.296875 5.230469-.339844 10.457031.703125 15.160156 3.027343 7.121094 3.273438 14.96875 4.648438 22.78125 4 7.410156-2.015624 14.175782-5.910156 19.640625-11.304687 4.878907-4.050781 9.960938-8.226563 13.679688-8.226563 3.722656 0 8.800781 4.175782 13.679687 8.226563 5.460938 5.390625 12.214844 9.28125 19.617188 11.292969 7.8125.644531 15.65625-.734375 22.785156-4 4.707031-2.339844 9.953125-3.382813 15.199219-3.023438 3.40625 1.25 6.695312 6.875 9.886719 12.304688 3.300781 6.996094 8.351562 13.019531 14.664062 17.488281 7.066406 3.285156 14.863281 4.6875 22.632812 4.074219 5.261719-.578125 10.578126.25 15.414063 2.398437 2.964844 4.40625 4.703125 9.519531 5.050781 14.816407.71875 7.761718 3.441406 15.203124 7.894532 21.597656 5.507812 5.46875 12.339843 9.414062 19.824218 11.457031 5.601563 2.089844 12 4.449219 13.777344 7.542969 1.257812 5.125 1.148438 10.488281-.320312 15.554687-1.960938 7.558594-1.933594 15.5.078124 23.046875 3.289063 6.960938 8.320313 12.957032 14.609376 17.398438 4.800781 4.105468 9.785156 8.34375 10.398437 12-.589844 5.175781-2.519531 10.105468-5.597656 14.304687-4.476563 6.476563-7.203125 14-7.914063 21.839844.703125 7.851563 3.421875 15.386719 7.898438 21.875 3.078125 4.199219 5.007812 9.128906 5.597656 14.300781-.632812 3.617188-5.597656 7.855469-10.398438 12-6.289062 4.445313-11.320312 10.441406-14.609374 17.402344-2.011719 7.546875-2.039063 15.484375-.078126 23.046875 1.46875 5.066406 1.578126 10.429687.320313 15.550781-1.808594 3.105469-8.167969 5.464844-13.785156 7.554688-7.484375 2.042968-14.3125 5.992187-19.824219 11.453125-4.441406 6.386719-7.160156 13.808593-7.886719 21.554687-.339843 5.296875-2.082031 10.410156-5.050781 14.816406-4.835938 2.148438-10.152344 2.976563-15.414062 2.398438-7.769532-.617188-15.566407.785156-22.632813 4.070312-6.320313 4.457032-11.378906 10.46875-14.6875 17.457032zm92.128906.160156c-2.726562.746094-4.855469 2.875-5.601562 5.601562l-13.335938 48.933594-54.398437-54.398437c1.042968-1.550781 2.375-2.890625 3.917968-3.945313 4.730469-1.671875 9.761719-2.324218 14.761719-1.917968 8.988281.976562 18.035157-1.195313 25.597657-6.144532 6.1875-6.601562 9.890624-15.140625 10.480468-24.167968.460938-4.976563 1.960938-9.800782 4.402344-14.160157 3.863281-3.144531 8.34375-5.445312 13.152344-6.753906 1.496094-.550781 3.03125-1.160156 4.558594-1.765625l45.449218 45.382812zm0 0" data-original="#000000" class="" style="fill:#000000" data-old_color="#0C0A0A"/></g></g> </svg>
