<?xml version="1.0"?>
<svg xmlns="http://www.w3.org/2000/svg" height="512px" viewBox="0 -3 491.26847 491" width="512px" class=""><g><path d="m334.933594 408.933594 4.226562-5.597656c1.707032-2.503907 3.941406-4.597657 6.550782-6.136719 5.554687-2.394531 11.613281-3.371094 17.640624-2.847657 7.363282.917969 14.824219-.585937 21.253907-4.289062 4.609375-5.4375 7.328125-12.226562 7.746093-19.34375.53125-6.441406 2.667969-12.648438 6.207032-18.054688 4.660156-4.34375 10.339844-7.441406 16.511718-9.011718l4.480469-1.71875 4.800781-1.785156 58.855469 58.707031-62.183593 17-17.015626 62.152343zm0 0" fill="#78b9eb" data-original="#78B9EB" class="active-path" style="fill:#020202" data-old_color="#363431"/><path d="m70.207031 415.847656-62.160156-16.992187 58.992187-58.984375 4.960938 2.078125c1.285156.554687 2.582031 1.105469 3.878906 1.511719 6.300782 1.679687 12.09375 4.882812 16.863282 9.328124 3.414062 5.21875 5.480468 11.199219 6.015624 17.410157.40625 7.300781 3.160157 14.277343 7.847657 19.886719 6.183593 3.625 13.386719 5.128906 20.503906 4.28125 6.429687-.585938 12.902344.476562 18.808594 3.085937 2.4375 1.515625 4.527343 3.527344 6.136719 5.90625l4.222656 5.597656-69.070313 69.050781zm0 0" fill="#78b9eb" data-original="#78B9EB" class="active-path" style="fill:#020202" data-old_color="#363431"/><path d="m245.605469 64.453125c-88.363281 0-160 71.636719-160 160 0 88.367187 71.636719 160 160 160 88.367187 0 160-71.632813 160-160-.101563-88.324219-71.675781-159.898437-160-160zm0 280c-66.273438 0-120-53.726563-120-120s53.726562-120 120-120c66.273437 0 120 53.726563 120 120-.074219 66.246094-53.757813 119.925781-120 120zm0 0" fill="#78b9eb" data-original="#78B9EB" class="active-path" style="fill:#020202" data-old_color="#363431"/><g fill="#1a6fb0"><path d="m253.605469 160.453125h-40v16h40c4.417969 0 8 3.582031 8 8v32h-40c-4.417969 0-8 3.582031-8 8v40c0 13.257813 10.746093 24 24 24h40v-16h-40c-4.417969 0-8-3.582031-8-8v-32h40c4.417969 0 8-3.582031 8-8v-40c0-13.253906-10.746094-24-24-24zm0 0" data-original="#000000" class="" style="fill:#000000"/><path d="m413.605469 224.453125c0-92.78125-75.214844-168-168-168-92.78125 0-168 75.21875-168 168 0 92.785156 75.21875 168 168 168 92.742187-.105469 167.894531-75.257813 168-168zm-168 152c-83.945313 0-152-68.050781-152-152 0-83.945313 68.054687-152 152-152 83.949219 0 152 68.054687 152 152-.09375 83.910156-68.089844 151.910156-152 152zm0 0" data-original="#000000" class="" style="fill:#000000"/><path d="m245.605469 96.453125c-70.691407 0-128 57.308594-128 128 0 70.695313 57.308593 128 128 128 70.691406 0 128-57.304687 128-128-.082031-70.65625-57.339844-127.914063-128-128zm0 240c-61.855469 0-112-50.144531-112-112s50.144531-112 112-112 112 50.144531 112 112c-.066407 61.828125-50.171875 111.933594-112 112zm0 0" data-original="#000000" class="" style="fill:#000000"/><path d="m488.863281 393.191406-52.449219-52.386718c1.308594-1.246094 2.457032-2.65625 3.417969-4.191407 3.546875-8.28125 4.113281-17.539062 1.597657-26.191406-1.277344-4.878906-1.507813-9.96875-.679688-14.945313 2.539062-4.21875 5.929688-7.867187 9.953125-10.710937 7.597656-5.0625 13.191406-12.621094 15.816406-21.367187.476563-8.925782-2.152343-17.742188-7.441406-24.953126-2.902344-4.199218-4.875-8.96875-5.792969-13.992187.925782-5.023437 2.90625-9.792969 5.816406-13.992187 5.289063-7.207032 7.917969-16.023438 7.441407-24.949219-2.621094-8.75-8.214844-16.304688-15.816407-21.371094-4.011718-2.84375-7.390624-6.492187-9.921874-10.710937-.828126-4.96875-.59375-10.058594.679687-14.933594 2.515625-8.65625 1.949219-17.917969-1.597656-26.203125-5.441407-7.246094-13.234375-12.378907-22.039063-14.519531-4.8125-1.300782-9.292968-3.601563-13.152344-6.75-2.449218-4.363282-3.949218-9.191407-4.410156-14.167969-.589844-9.027344-4.296875-17.570313-10.488281-24.167969-7.550781-4.945312-16.585937-7.117188-25.558594-6.144531-5.003906.402343-10.035156-.25-14.769531-1.921875-3.746094-3.246094-6.769531-7.238282-8.878906-11.726563-3.644532-8.335937-10.082032-15.140625-18.199219-19.25-8.746094-2.046875-17.933594-.996093-25.992187 2.976563-4.601563 2.125-9.605469 3.246094-14.671876 3.289062-4.570312-1.75-8.722656-4.4375-12.191406-7.886718-6.347656-6.632813-14.8125-10.835938-23.929687-11.890626-9.097657 1.066407-17.539063 5.269532-23.871094 11.890626-3.46875 3.449218-7.621094 6.136718-12.191406 7.886718-5.070313-.039062-10.070313-1.160156-14.671875-3.289062-8.0625-3.972656-17.25-5.023438-26-2.976563-8.113282 4.113281-14.546875 10.917969-18.191406 19.25-2.109376 4.488281-5.136719 8.480469-8.882813 11.726563-4.730469 1.671875-9.765625 2.324218-14.765625 1.921875-8.976562-.972657-18.007812 1.199219-25.5625 6.144531-6.1875 6.597656-9.894531 15.140625-10.488281 24.167969-.453125 4.976562-1.953125 9.800781-4.398438 14.160156-3.863281 3.144531-8.34375 5.445313-13.152343 6.75-8.8125 2.140625-16.605469 7.277344-22.046876 14.527344-3.550781 8.285156-4.117187 17.539062-1.601562 26.191406 1.257812 4.882813 1.472656 9.976563.625 14.945313-2.53125 4.21875-5.90625 7.867187-9.921875 10.710937-7.597656 5.066406-13.191406 12.621094-15.8125 21.371094-.476563 8.925781 2.148437 17.738281 7.429687 24.949219 2.914063 4.199218 4.902344 8.96875 5.824219 13.992187-.921875 5.027344-2.910156 9.796875-5.824219 13.992187-5.28125 7.210938-7.90625 16.027344-7.429687 24.953126 2.621094 8.746093 8.214844 16.304687 15.8125 21.367187 4.015625 2.847656 7.390625 6.492187 9.921875 10.710937.828125 4.972657.597656 10.0625-.679688 14.9375-2.515624 8.65625-1.949218 17.914063 1.601563 26.199219.957031 1.539063 2.101563 2.949219 3.414063 4.199219l-52.390626 52.378906c-2.023437 2.015625-2.816406 4.957032-2.082031 7.714844.730469 2.757812 2.878907 4.917969 5.632813 5.667969l57.832031 15.753906 15.75 57.832031c.761719 2.738282 2.917969 4.871094 5.664063 5.597656.671874.175782 1.363281.261719 2.058593.265626 2.121094 0 4.15625-.84375 5.65625-2.34375l61.597657-61.5625c3.253906 5.835937 8.332031 10.441406 14.457031 13.113281 8.746093 2.042969 17.933593.992187 25.992187-2.976563 4.597656-2.136718 9.601563-3.257812 14.671875-3.289062 4.570313 1.753906 8.722657 4.4375 12.191407 7.890625 6.316406 6.621093 14.746093 10.835937 23.832031 11.917969 9.097656-1.066407 17.539062-5.269532 23.871093-11.886719 3.472657-3.449219 7.625-6.136719 12.195313-7.886719 5.070313.023438 10.074219 1.144531 14.671875 3.285156 8.058594 3.972656 17.25 5.023438 26 2.976563 6.125-2.667969 11.207031-7.277344 14.460938-13.113281l61.601562 61.5625c1.5 1.5 3.535156 2.34375 5.65625 2.34375.695312 0 1.382812-.089844 2.054688-.265626 2.75-.726562 4.90625-2.859374 5.664062-5.597656l15.753906-57.832031 57.832032-15.753906c2.753906-.746094 4.902343-2.90625 5.632812-5.667969.734375-2.757812-.058594-5.699219-2.082031-7.714844zm-397.5625 69.453125-13.335937-48.933593c-.746094-2.726563-2.875-4.855469-5.597656-5.601563l-48.945313-13.351563 45.449219-45.382812c1.527344.597656 3.0625 1.207031 4.550781 1.757812 4.808594 1.300782 9.292969 3.601563 13.152344 6.753907 2.445312 4.359375 3.949219 9.1875 4.40625 14.167969.59375 9.027343 4.300781 17.570312 10.488281 24.167968 7.5625 4.953125 16.613281 7.125 25.601562 6.144532 5.003907-.40625 10.035157.25 14.769532 1.917968 1.542968 1.058594 2.871094 2.398438 3.910156 3.953125zm235.433594-54.710937c-3.199219 5.433594-6.480469 11.046875-9.878906 12.296875-5.246094.347656-10.488281-.695313-15.203125-3.023438-7.125-3.265625-14.96875-4.644531-22.78125-4-7.402344 2.019531-14.160156 5.914063-19.617188 11.3125-4.894531 4.046875-9.960937 8.222657-13.679687 8.222657s-8.800781-4.175782-13.679688-8.222657c-5.453125-5.375-12.199219-9.253906-19.585937-11.265625-1.410156-.246094-2.84375-.367187-4.277344-.359375-6.367188.390625-12.625 1.855469-18.503906 4.328125-4.703125 2.320313-9.929688 3.363282-15.160156 3.023438-3.410157-1.246094-6.703126-6.863282-9.890626-12.296875-3.292968-6.996094-8.34375-13.023438-14.65625-17.496094-7.070312-3.28125-14.867187-4.683594-22.636718-4.070313-5.261719.574219-10.582032-.253906-15.417969-2.402343-2.964844-4.402344-4.707031-9.515625-5.046875-14.8125-.730469-7.75-3.453125-15.175781-7.898438-21.5625-5.507812-5.464844-12.339843-9.414063-19.828124-11.457031-5.601563-2.085938-12-4.445313-13.769532-7.542969-1.261718-5.121094-1.148437-10.484375.320313-15.550781 1.957031-7.5625 1.929687-15.5-.082031-23.046876-3.289063-6.960937-8.316407-12.953124-14.597657-17.402343-4.800781-4.101563-9.800781-8.34375-10.402343-12 .597656-5.171875 2.527343-10.101563 5.601562-14.304688 4.457031-6.484375 7.167969-14.007812 7.863281-21.847656-.699219-7.847656-3.421875-15.382813-7.894531-21.871094-3.078125-4.203125-5.007812-9.132812-5.601562-14.304687.632812-3.613282 5.601562-7.855469 10.402343-12 6.277344-4.449219 11.308594-10.441406 14.597657-17.398438 2.011718-7.546875 2.039062-15.488281.082031-23.046875-1.46875-5.070312-1.578125-10.433593-.3125-15.554687 1.800781-3.101563 8.160156-5.464844 13.773437-7.550782 7.488282-2.046874 14.316406-5.992187 19.824219-11.457031 4.445313-6.382812 7.164063-13.808593 7.890625-21.550781.347656-5.296875 2.085938-10.410156 5.046875-14.816406 4.839844-2.148438 10.160156-2.976563 15.425781-2.398438 7.765625.613282 15.5625-.789062 22.628906-4.074218 6.3125-4.46875 11.363282-10.496094 14.65625-17.496094 3.199219-5.429688 6.480469-11.046875 9.882813-12.296875 5.242187-.355469 10.488281.6875 15.199219 3.027343 7.121094 3.273438 14.96875 4.652344 22.78125 4 7.402344-2.019531 14.160156-5.914062 19.617187-11.304687 4.878907-4.050781 9.960938-8.226563 13.679688-8.226563 3.722656 0 8.800781 4.175782 13.679687 8.226563 5.460938 5.390625 12.214844 9.28125 19.617188 11.292969 7.8125.644531 15.65625-.734375 22.785156-4 4.707031-2.332032 9.953125-3.378906 15.199219-3.023438 3.40625 1.25 6.703125 6.867188 9.886719 12.296875 3.296874 7 8.34375 13.023438 14.65625 17.496094 7.070312 3.285156 14.871093 4.6875 22.640624 4.074219 5.261719-.578125 10.578126.25 15.414063 2.398437 2.964844 4.40625 4.707031 9.515625 5.050781 14.816407.722656 7.761718 3.445313 15.199218 7.894532 21.597656 5.511718 5.46875 12.34375 9.414062 19.832031 11.457031 5.601562 2.089844 12 4.449219 13.769531 7.542969 1.257812 5.125 1.148438 10.488281-.320312 15.554687-1.960938 7.558594-1.933594 15.5.078124 23.046875 3.292969 6.957032 8.320313 12.949219 14.601563 17.398438 4.800781 4.105468 9.800781 8.34375 10.398437 12-.59375 5.175781-2.523437 10.105468-5.597656 14.304687-4.472656 6.480469-7.195312 14-7.90625 21.839844.703125 7.851563 3.421875 15.386719 7.898438 21.875 3.074218 4.199219 5.003906 9.128906 5.597656 14.300781-.632812 3.617188-5.597656 7.855469-10.398438 12-6.28125 4.449219-11.308593 10.445313-14.601562 17.402344-2.011719 7.546875-2.039062 15.484375-.078125 23.046875 1.464844 5.066406 1.574219 10.429687.3125 15.550781-1.800781 3.105469-8.160156 5.464844-13.777344 7.554688-7.484375 2.042968-14.3125 5.992187-19.824219 11.453125-4.445312 6.386719-7.160156 13.808593-7.886718 21.554687-.347656 5.296875-2.089844 10.40625-5.050782 14.816406-4.835937 2.148438-10.160156 2.976563-15.421874 2.398438-7.769532-.613281-15.566407.789062-22.632813 4.070312-6.316406 4.457032-11.378906 10.46875-14.6875 17.457032zm92.128906.160156c-2.726562.746094-4.855469 2.875-5.601562 5.601562l-13.335938 48.933594-54.398437-54.398437c1.039062-1.554688 2.367187-2.894531 3.910156-3.953125 4.734375-1.667969 9.765625-2.324219 14.769531-1.917969 8.988281.980469 18.035157-1.191406 25.597657-6.144531 6.191406-6.597656 9.898437-15.140625 10.488281-24.167969.457031-4.976563 1.957031-9.800781 4.402343-14.160156 3.863282-3.148438 8.34375-5.449219 13.152344-6.753907 1.496094-.550781 3.03125-1.160156 4.558594-1.765624l45.449219 45.382812zm0 0" data-original="#000000" class="" style="fill:#000000"/></g></g> </svg>
